<?xml version="1.0" encoding="utf-8" standalone="no"?>
<!DOCTYPE svg PUBLIC "-//W3C//DTD SVG 1.1//EN"
  "http://www.w3.org/Graphics/SVG/1.1/DTD/svg11.dtd">
<svg xmlns:xlink="http://www.w3.org/1999/xlink" width="864pt" height="360pt" viewBox="0 0 864 360" xmlns="http://www.w3.org/2000/svg" version="1.1">
 <metadata>
  <rdf:RDF xmlns:dc="http://purl.org/dc/elements/1.1/" xmlns:cc="http://creativecommons.org/ns#" xmlns:rdf="http://www.w3.org/1999/02/22-rdf-syntax-ns#">
   <cc:Work>
    <dc:type rdf:resource="http://purl.org/dc/dcmitype/StillImage"/>
    <dc:date>2024-08-07T18:48:06.516343</dc:date>
    <dc:format>image/svg+xml</dc:format>
    <dc:creator>
     <cc:Agent>
      <dc:title>Matplotlib v3.9.0, https://matplotlib.org/</dc:title>
     </cc:Agent>
    </dc:creator>
   </cc:Work>
  </rdf:RDF>
 </metadata>
 <defs>
  <style type="text/css">*{stroke-linejoin: round; stroke-linecap: butt}</style>
 </defs>
 <g id="figure_1">
  <g id="patch_1">
   <path d="M 0 360 
L 864 360 
L 864 0 
L 0 0 
z
" style="fill: #ffffff"/>
  </g>
  <g id="axes_1">
   <g id="patch_2">
    <path d="M 115.67589 287.08 
L 350.97589 287.08 
L 350.97589 51.78 
L 115.67589 51.78 
z
" style="fill: #ffffff"/>
   </g>
   <g id="QuadMesh_1">
    <path d="M 115.67589 51.78 
L 162.73589 51.78 
L 162.73589 98.84 
L 115.67589 98.84 
L 115.67589 51.78 
" clip-path="url(#p81f709697a)" style="fill: #c6c6c6"/>
    <path d="M 162.73589 51.78 
L 209.79589 51.78 
L 209.79589 98.84 
L 162.73589 98.84 
L 162.73589 51.78 
" clip-path="url(#p81f709697a)" style="fill: #c6c6c6"/>
    <path d="M 209.79589 51.78 
L 256.85589 51.78 
L 256.85589 98.84 
L 209.79589 98.84 
L 209.79589 51.78 
" clip-path="url(#p81f709697a)" style="fill: #c6c6c6"/>
    <path d="M 256.85589 51.78 
L 303.91589 51.78 
L 303.91589 98.84 
L 256.85589 98.84 
L 256.85589 51.78 
" clip-path="url(#p81f709697a)" style="fill: #686868"/>
    <path d="M 303.91589 51.78 
L 350.97589 51.78 
L 350.97589 98.84 
L 303.91589 98.84 
L 303.91589 51.78 
" clip-path="url(#p81f709697a)" style="fill: #c6c6c6"/>
    <path d="M 115.67589 98.84 
L 162.73589 98.84 
L 162.73589 145.9 
L 115.67589 145.9 
L 115.67589 98.84 
" clip-path="url(#p81f709697a)" style="fill: #c6c6c6"/>
    <path d="M 162.73589 98.84 
L 209.79589 98.84 
L 209.79589 145.9 
L 162.73589 145.9 
L 162.73589 98.84 
" clip-path="url(#p81f709697a)" style="fill: #c6c6c6"/>
    <path d="M 209.79589 98.84 
L 256.85589 98.84 
L 256.85589 145.9 
L 209.79589 145.9 
L 209.79589 98.84 
" clip-path="url(#p81f709697a)" style="fill: #686868"/>
    <path d="M 256.85589 98.84 
L 303.91589 98.84 
L 303.91589 145.9 
L 256.85589 145.9 
L 256.85589 98.84 
" clip-path="url(#p81f709697a)" style="fill: #686868"/>
    <path d="M 303.91589 98.84 
L 350.97589 98.84 
L 350.97589 145.9 
L 303.91589 145.9 
L 303.91589 98.84 
" clip-path="url(#p81f709697a)" style="fill: #c6c6c6"/>
    <path d="M 115.67589 145.9 
L 162.73589 145.9 
L 162.73589 192.96 
L 115.67589 192.96 
L 115.67589 145.9 
" clip-path="url(#p81f709697a)" style="fill: #c6c6c6"/>
    <path d="M 162.73589 145.9 
L 209.79589 145.9 
L 209.79589 192.96 
L 162.73589 192.96 
L 162.73589 145.9 
" clip-path="url(#p81f709697a)" style="fill: #686868"/>
    <path d="M 209.79589 145.9 
L 256.85589 145.9 
L 256.85589 192.96 
L 209.79589 192.96 
L 209.79589 145.9 
" clip-path="url(#p81f709697a)" style="fill: #c6c6c6"/>
    <path d="M 256.85589 145.9 
L 303.91589 145.9 
L 303.91589 192.96 
L 256.85589 192.96 
L 256.85589 145.9 
" clip-path="url(#p81f709697a)" style="fill: #c6c6c6"/>
    <path d="M 303.91589 145.9 
L 350.97589 145.9 
L 350.97589 192.96 
L 303.91589 192.96 
L 303.91589 145.9 
" clip-path="url(#p81f709697a)" style="fill: #c6c6c6"/>
    <path d="M 115.67589 192.96 
L 162.73589 192.96 
L 162.73589 240.02 
L 115.67589 240.02 
L 115.67589 192.96 
" clip-path="url(#p81f709697a)" style="fill: #686868"/>
    <path d="M 162.73589 192.96 
L 209.79589 192.96 
L 209.79589 240.02 
L 162.73589 240.02 
L 162.73589 192.96 
" clip-path="url(#p81f709697a)" style="fill: #686868"/>
    <path d="M 209.79589 192.96 
L 256.85589 192.96 
L 256.85589 240.02 
L 209.79589 240.02 
L 209.79589 192.96 
" clip-path="url(#p81f709697a)" style="fill: #c6c6c6"/>
    <path d="M 256.85589 192.96 
L 303.91589 192.96 
L 303.91589 240.02 
L 256.85589 240.02 
L 256.85589 192.96 
" clip-path="url(#p81f709697a)" style="fill: #c6c6c6"/>
    <path d="M 303.91589 192.96 
L 350.97589 192.96 
L 350.97589 240.02 
L 303.91589 240.02 
L 303.91589 192.96 
" clip-path="url(#p81f709697a)" style="fill: #c6c6c6"/>
    <path d="M 115.67589 240.02 
L 162.73589 240.02 
L 162.73589 287.08 
L 115.67589 287.08 
L 115.67589 240.02 
" clip-path="url(#p81f709697a)" style="fill: #c6c6c6"/>
    <path d="M 162.73589 240.02 
L 209.79589 240.02 
L 209.79589 287.08 
L 162.73589 287.08 
L 162.73589 240.02 
" clip-path="url(#p81f709697a)" style="fill: #c6c6c6"/>
    <path d="M 209.79589 240.02 
L 256.85589 240.02 
L 256.85589 287.08 
L 209.79589 287.08 
L 209.79589 240.02 
" clip-path="url(#p81f709697a)" style="fill: #c6c6c6"/>
    <path d="M 256.85589 240.02 
L 303.91589 240.02 
L 303.91589 287.08 
L 256.85589 287.08 
L 256.85589 240.02 
" clip-path="url(#p81f709697a)" style="fill: #c6c6c6"/>
    <path d="M 303.91589 240.02 
L 350.97589 240.02 
L 350.97589 287.08 
L 303.91589 287.08 
L 303.91589 240.02 
" clip-path="url(#p81f709697a)" style="fill: #c6c6c6"/>
   </g>
   <g id="matplotlib.axis_1">
    <g id="xtick_1">
     <g id="line2d_1">
      <defs>
       <path id="m57f49f769b" d="M 0 0 
L 0 3.5 
" style="stroke: #000000; stroke-width: 0.8"/>
      </defs>
      <g>
       <use xlink:href="#m57f49f769b" x="139.20589" y="287.08" style="stroke: #000000; stroke-width: 0.8"/>
      </g>
     </g>
     <g id="text_1">
      <!-- SI -->
      <g transform="translate(129.907452 309.276875) scale(0.2 -0.2)">
       <defs>
        <path id="DejaVuSans-53" d="M 3425 4513 
L 3425 3897 
Q 3066 4069 2747 4153 
Q 2428 4238 2131 4238 
Q 1616 4238 1336 4038 
Q 1056 3838 1056 3469 
Q 1056 3159 1242 3001 
Q 1428 2844 1947 2747 
L 2328 2669 
Q 3034 2534 3370 2195 
Q 3706 1856 3706 1288 
Q 3706 609 3251 259 
Q 2797 -91 1919 -91 
Q 1588 -91 1214 -16 
Q 841 59 441 206 
L 441 856 
Q 825 641 1194 531 
Q 1563 422 1919 422 
Q 2459 422 2753 634 
Q 3047 847 3047 1241 
Q 3047 1584 2836 1778 
Q 2625 1972 2144 2069 
L 1759 2144 
Q 1053 2284 737 2584 
Q 422 2884 422 3419 
Q 422 4038 858 4394 
Q 1294 4750 2059 4750 
Q 2388 4750 2728 4690 
Q 3069 4631 3425 4513 
z
" transform="scale(0.015625)"/>
        <path id="DejaVuSans-49" d="M 628 4666 
L 1259 4666 
L 1259 0 
L 628 0 
L 628 4666 
z
" transform="scale(0.015625)"/>
       </defs>
       <use xlink:href="#DejaVuSans-53"/>
       <use xlink:href="#DejaVuSans-49" x="63.476562"/>
      </g>
     </g>
    </g>
    <g id="xtick_2">
     <g id="line2d_2">
      <g>
       <use xlink:href="#m57f49f769b" x="186.26589" y="287.08" style="stroke: #000000; stroke-width: 0.8"/>
      </g>
     </g>
     <g id="text_2">
      <!-- L -->
      <g transform="translate(180.694015 309.276875) scale(0.2 -0.2)">
       <defs>
        <path id="DejaVuSans-4c" d="M 628 4666 
L 1259 4666 
L 1259 531 
L 3531 531 
L 3531 0 
L 628 0 
L 628 4666 
z
" transform="scale(0.015625)"/>
       </defs>
       <use xlink:href="#DejaVuSans-4c"/>
      </g>
     </g>
    </g>
    <g id="xtick_3">
     <g id="line2d_3">
      <g>
       <use xlink:href="#m57f49f769b" x="233.32589" y="287.08" style="stroke: #000000; stroke-width: 0.8"/>
      </g>
     </g>
     <g id="text_3">
      <!-- H/E -->
      <g transform="translate(216.118077 309.276875) scale(0.2 -0.2)">
       <defs>
        <path id="DejaVuSans-48" d="M 628 4666 
L 1259 4666 
L 1259 2753 
L 3553 2753 
L 3553 4666 
L 4184 4666 
L 4184 0 
L 3553 0 
L 3553 2222 
L 1259 2222 
L 1259 0 
L 628 0 
L 628 4666 
z
" transform="scale(0.015625)"/>
        <path id="DejaVuSans-2f" d="M 1625 4666 
L 2156 4666 
L 531 -594 
L 0 -594 
L 1625 4666 
z
" transform="scale(0.015625)"/>
        <path id="DejaVuSans-45" d="M 628 4666 
L 3578 4666 
L 3578 4134 
L 1259 4134 
L 1259 2753 
L 3481 2753 
L 3481 2222 
L 1259 2222 
L 1259 531 
L 3634 531 
L 3634 0 
L 628 0 
L 628 4666 
z
" transform="scale(0.015625)"/>
       </defs>
       <use xlink:href="#DejaVuSans-48"/>
       <use xlink:href="#DejaVuSans-2f" x="75.195312"/>
       <use xlink:href="#DejaVuSans-45" x="108.886719"/>
      </g>
     </g>
    </g>
    <g id="xtick_4">
     <g id="line2d_4">
      <g>
       <use xlink:href="#m57f49f769b" x="280.38589" y="287.08" style="stroke: #000000; stroke-width: 0.8"/>
      </g>
     </g>
     <g id="text_4">
      <!-- T/M -->
      <g transform="translate(262.281202 309.276875) scale(0.2 -0.2)">
       <defs>
        <path id="DejaVuSans-54" d="M -19 4666 
L 3928 4666 
L 3928 4134 
L 2272 4134 
L 2272 0 
L 1638 0 
L 1638 4134 
L -19 4134 
L -19 4666 
z
" transform="scale(0.015625)"/>
        <path id="DejaVuSans-4d" d="M 628 4666 
L 1569 4666 
L 2759 1491 
L 3956 4666 
L 4897 4666 
L 4897 0 
L 4281 0 
L 4281 4097 
L 3078 897 
L 2444 897 
L 1241 4097 
L 1241 0 
L 628 0 
L 628 4666 
z
" transform="scale(0.015625)"/>
       </defs>
       <use xlink:href="#DejaVuSans-54"/>
       <use xlink:href="#DejaVuSans-2f" x="61.083984"/>
       <use xlink:href="#DejaVuSans-4d" x="94.775391"/>
      </g>
     </g>
    </g>
    <g id="xtick_5">
     <g id="line2d_5">
      <g>
       <use xlink:href="#m57f49f769b" x="327.44589" y="287.08" style="stroke: #000000; stroke-width: 0.8"/>
      </g>
     </g>
     <g id="text_5">
      <!-- BS -->
      <g transform="translate(314.411515 309.276875) scale(0.2 -0.2)">
       <defs>
        <path id="DejaVuSans-42" d="M 1259 2228 
L 1259 519 
L 2272 519 
Q 2781 519 3026 730 
Q 3272 941 3272 1375 
Q 3272 1813 3026 2020 
Q 2781 2228 2272 2228 
L 1259 2228 
z
M 1259 4147 
L 1259 2741 
L 2194 2741 
Q 2656 2741 2882 2914 
Q 3109 3088 3109 3444 
Q 3109 3797 2882 3972 
Q 2656 4147 2194 4147 
L 1259 4147 
z
M 628 4666 
L 2241 4666 
Q 2963 4666 3353 4366 
Q 3744 4066 3744 3513 
Q 3744 3084 3544 2831 
Q 3344 2578 2956 2516 
Q 3422 2416 3680 2098 
Q 3938 1781 3938 1306 
Q 3938 681 3513 340 
Q 3088 0 2303 0 
L 628 0 
L 628 4666 
z
" transform="scale(0.015625)"/>
       </defs>
       <use xlink:href="#DejaVuSans-42"/>
       <use xlink:href="#DejaVuSans-53" x="66.853516"/>
      </g>
     </g>
    </g>
    <g id="text_6">
     <!-- Brain Area -->
     <g transform="translate(180.924327 332.633125) scale(0.2 -0.2)">
      <defs>
       <path id="DejaVuSans-72" d="M 2631 2963 
Q 2534 3019 2420 3045 
Q 2306 3072 2169 3072 
Q 1681 3072 1420 2755 
Q 1159 2438 1159 1844 
L 1159 0 
L 581 0 
L 581 3500 
L 1159 3500 
L 1159 2956 
Q 1341 3275 1631 3429 
Q 1922 3584 2338 3584 
Q 2397 3584 2469 3576 
Q 2541 3569 2628 3553 
L 2631 2963 
z
" transform="scale(0.015625)"/>
       <path id="DejaVuSans-61" d="M 2194 1759 
Q 1497 1759 1228 1600 
Q 959 1441 959 1056 
Q 959 750 1161 570 
Q 1363 391 1709 391 
Q 2188 391 2477 730 
Q 2766 1069 2766 1631 
L 2766 1759 
L 2194 1759 
z
M 3341 1997 
L 3341 0 
L 2766 0 
L 2766 531 
Q 2569 213 2275 61 
Q 1981 -91 1556 -91 
Q 1019 -91 701 211 
Q 384 513 384 1019 
Q 384 1609 779 1909 
Q 1175 2209 1959 2209 
L 2766 2209 
L 2766 2266 
Q 2766 2663 2505 2880 
Q 2244 3097 1772 3097 
Q 1472 3097 1187 3025 
Q 903 2953 641 2809 
L 641 3341 
Q 956 3463 1253 3523 
Q 1550 3584 1831 3584 
Q 2591 3584 2966 3190 
Q 3341 2797 3341 1997 
z
" transform="scale(0.015625)"/>
       <path id="DejaVuSans-69" d="M 603 3500 
L 1178 3500 
L 1178 0 
L 603 0 
L 603 3500 
z
M 603 4863 
L 1178 4863 
L 1178 4134 
L 603 4134 
L 603 4863 
z
" transform="scale(0.015625)"/>
       <path id="DejaVuSans-6e" d="M 3513 2113 
L 3513 0 
L 2938 0 
L 2938 2094 
Q 2938 2591 2744 2837 
Q 2550 3084 2163 3084 
Q 1697 3084 1428 2787 
Q 1159 2491 1159 1978 
L 1159 0 
L 581 0 
L 581 3500 
L 1159 3500 
L 1159 2956 
Q 1366 3272 1645 3428 
Q 1925 3584 2291 3584 
Q 2894 3584 3203 3211 
Q 3513 2838 3513 2113 
z
" transform="scale(0.015625)"/>
       <path id="DejaVuSans-20" transform="scale(0.015625)"/>
       <path id="DejaVuSans-41" d="M 2188 4044 
L 1331 1722 
L 3047 1722 
L 2188 4044 
z
M 1831 4666 
L 2547 4666 
L 4325 0 
L 3669 0 
L 3244 1197 
L 1141 1197 
L 716 0 
L 50 0 
L 1831 4666 
z
" transform="scale(0.015625)"/>
       <path id="DejaVuSans-65" d="M 3597 1894 
L 3597 1613 
L 953 1613 
Q 991 1019 1311 708 
Q 1631 397 2203 397 
Q 2534 397 2845 478 
Q 3156 559 3463 722 
L 3463 178 
Q 3153 47 2828 -22 
Q 2503 -91 2169 -91 
Q 1331 -91 842 396 
Q 353 884 353 1716 
Q 353 2575 817 3079 
Q 1281 3584 2069 3584 
Q 2775 3584 3186 3129 
Q 3597 2675 3597 1894 
z
M 3022 2063 
Q 3016 2534 2758 2815 
Q 2500 3097 2075 3097 
Q 1594 3097 1305 2825 
Q 1016 2553 972 2059 
L 3022 2063 
z
" transform="scale(0.015625)"/>
      </defs>
      <use xlink:href="#DejaVuSans-42"/>
      <use xlink:href="#DejaVuSans-72" x="68.603516"/>
      <use xlink:href="#DejaVuSans-61" x="109.716797"/>
      <use xlink:href="#DejaVuSans-69" x="170.996094"/>
      <use xlink:href="#DejaVuSans-6e" x="198.779297"/>
      <use xlink:href="#DejaVuSans-20" x="262.158203"/>
      <use xlink:href="#DejaVuSans-41" x="293.945312"/>
      <use xlink:href="#DejaVuSans-72" x="362.353516"/>
      <use xlink:href="#DejaVuSans-65" x="401.216797"/>
      <use xlink:href="#DejaVuSans-61" x="462.740234"/>
     </g>
    </g>
   </g>
   <g id="matplotlib.axis_2">
    <g id="ytick_1">
     <g id="line2d_6">
      <defs>
       <path id="md5d54fff7a" d="M 0 0 
L -3.5 0 
" style="stroke: #000000; stroke-width: 0.8"/>
      </defs>
      <g>
       <use xlink:href="#md5d54fff7a" x="115.67589" y="75.31" style="stroke: #000000; stroke-width: 0.8"/>
      </g>
     </g>
     <g id="text_7">
      <!-- SI -->
      <g transform="translate(104.516515 84.608437) rotate(-90) scale(0.2 -0.2)">
       <use xlink:href="#DejaVuSans-53"/>
       <use xlink:href="#DejaVuSans-49" x="63.476562"/>
      </g>
     </g>
    </g>
    <g id="ytick_2">
     <g id="line2d_7">
      <g>
       <use xlink:href="#md5d54fff7a" x="115.67589" y="122.37" style="stroke: #000000; stroke-width: 0.8"/>
      </g>
     </g>
     <g id="text_8">
      <!-- L -->
      <g transform="translate(104.516515 127.941875) rotate(-90) scale(0.2 -0.2)">
       <use xlink:href="#DejaVuSans-4c"/>
      </g>
     </g>
    </g>
    <g id="ytick_3">
     <g id="line2d_8">
      <g>
       <use xlink:href="#md5d54fff7a" x="115.67589" y="169.43" style="stroke: #000000; stroke-width: 0.8"/>
      </g>
     </g>
     <g id="text_9">
      <!-- H/E -->
      <g transform="translate(104.516515 186.637812) rotate(-90) scale(0.2 -0.2)">
       <use xlink:href="#DejaVuSans-48"/>
       <use xlink:href="#DejaVuSans-2f" x="75.195312"/>
       <use xlink:href="#DejaVuSans-45" x="108.886719"/>
      </g>
     </g>
    </g>
    <g id="ytick_4">
     <g id="line2d_9">
      <g>
       <use xlink:href="#md5d54fff7a" x="115.67589" y="216.49" style="stroke: #000000; stroke-width: 0.8"/>
      </g>
     </g>
     <g id="text_10">
      <!-- T/M -->
      <g transform="translate(104.516515 234.594687) rotate(-90) scale(0.2 -0.2)">
       <use xlink:href="#DejaVuSans-54"/>
       <use xlink:href="#DejaVuSans-2f" x="61.083984"/>
       <use xlink:href="#DejaVuSans-4d" x="94.775391"/>
      </g>
     </g>
    </g>
    <g id="ytick_5">
     <g id="line2d_10">
      <g>
       <use xlink:href="#md5d54fff7a" x="115.67589" y="263.55" style="stroke: #000000; stroke-width: 0.8"/>
      </g>
     </g>
     <g id="text_11">
      <!-- BS -->
      <g transform="translate(104.516515 276.584375) rotate(-90) scale(0.2 -0.2)">
       <use xlink:href="#DejaVuSans-42"/>
       <use xlink:href="#DejaVuSans-53" x="66.853516"/>
      </g>
     </g>
    </g>
    <g id="text_12">
     <!-- Brain Area -->
     <g transform="translate(81.160265 221.831562) rotate(-90) scale(0.2 -0.2)">
      <use xlink:href="#DejaVuSans-42"/>
      <use xlink:href="#DejaVuSans-72" x="68.603516"/>
      <use xlink:href="#DejaVuSans-61" x="109.716797"/>
      <use xlink:href="#DejaVuSans-69" x="170.996094"/>
      <use xlink:href="#DejaVuSans-6e" x="198.779297"/>
      <use xlink:href="#DejaVuSans-20" x="262.158203"/>
      <use xlink:href="#DejaVuSans-41" x="293.945312"/>
      <use xlink:href="#DejaVuSans-72" x="362.353516"/>
      <use xlink:href="#DejaVuSans-65" x="401.216797"/>
      <use xlink:href="#DejaVuSans-61" x="462.740234"/>
     </g>
    </g>
   </g>
   <g id="text_13">
    <!-- (A) Earthling adj. matrix -->
    <g transform="translate(115.67589 35.28) scale(0.18 -0.18)">
     <defs>
      <path id="DejaVuSans-28" d="M 1984 4856 
Q 1566 4138 1362 3434 
Q 1159 2731 1159 2009 
Q 1159 1288 1364 580 
Q 1569 -128 1984 -844 
L 1484 -844 
Q 1016 -109 783 600 
Q 550 1309 550 2009 
Q 550 2706 781 3412 
Q 1013 4119 1484 4856 
L 1984 4856 
z
" transform="scale(0.015625)"/>
      <path id="DejaVuSans-29" d="M 513 4856 
L 1013 4856 
Q 1481 4119 1714 3412 
Q 1947 2706 1947 2009 
Q 1947 1309 1714 600 
Q 1481 -109 1013 -844 
L 513 -844 
Q 928 -128 1133 580 
Q 1338 1288 1338 2009 
Q 1338 2731 1133 3434 
Q 928 4138 513 4856 
z
" transform="scale(0.015625)"/>
      <path id="DejaVuSans-74" d="M 1172 4494 
L 1172 3500 
L 2356 3500 
L 2356 3053 
L 1172 3053 
L 1172 1153 
Q 1172 725 1289 603 
Q 1406 481 1766 481 
L 2356 481 
L 2356 0 
L 1766 0 
Q 1100 0 847 248 
Q 594 497 594 1153 
L 594 3053 
L 172 3053 
L 172 3500 
L 594 3500 
L 594 4494 
L 1172 4494 
z
" transform="scale(0.015625)"/>
      <path id="DejaVuSans-68" d="M 3513 2113 
L 3513 0 
L 2938 0 
L 2938 2094 
Q 2938 2591 2744 2837 
Q 2550 3084 2163 3084 
Q 1697 3084 1428 2787 
Q 1159 2491 1159 1978 
L 1159 0 
L 581 0 
L 581 4863 
L 1159 4863 
L 1159 2956 
Q 1366 3272 1645 3428 
Q 1925 3584 2291 3584 
Q 2894 3584 3203 3211 
Q 3513 2838 3513 2113 
z
" transform="scale(0.015625)"/>
      <path id="DejaVuSans-6c" d="M 603 4863 
L 1178 4863 
L 1178 0 
L 603 0 
L 603 4863 
z
" transform="scale(0.015625)"/>
      <path id="DejaVuSans-67" d="M 2906 1791 
Q 2906 2416 2648 2759 
Q 2391 3103 1925 3103 
Q 1463 3103 1205 2759 
Q 947 2416 947 1791 
Q 947 1169 1205 825 
Q 1463 481 1925 481 
Q 2391 481 2648 825 
Q 2906 1169 2906 1791 
z
M 3481 434 
Q 3481 -459 3084 -895 
Q 2688 -1331 1869 -1331 
Q 1566 -1331 1297 -1286 
Q 1028 -1241 775 -1147 
L 775 -588 
Q 1028 -725 1275 -790 
Q 1522 -856 1778 -856 
Q 2344 -856 2625 -561 
Q 2906 -266 2906 331 
L 2906 616 
Q 2728 306 2450 153 
Q 2172 0 1784 0 
Q 1141 0 747 490 
Q 353 981 353 1791 
Q 353 2603 747 3093 
Q 1141 3584 1784 3584 
Q 2172 3584 2450 3431 
Q 2728 3278 2906 2969 
L 2906 3500 
L 3481 3500 
L 3481 434 
z
" transform="scale(0.015625)"/>
      <path id="DejaVuSans-64" d="M 2906 2969 
L 2906 4863 
L 3481 4863 
L 3481 0 
L 2906 0 
L 2906 525 
Q 2725 213 2448 61 
Q 2172 -91 1784 -91 
Q 1150 -91 751 415 
Q 353 922 353 1747 
Q 353 2572 751 3078 
Q 1150 3584 1784 3584 
Q 2172 3584 2448 3432 
Q 2725 3281 2906 2969 
z
M 947 1747 
Q 947 1113 1208 752 
Q 1469 391 1925 391 
Q 2381 391 2643 752 
Q 2906 1113 2906 1747 
Q 2906 2381 2643 2742 
Q 2381 3103 1925 3103 
Q 1469 3103 1208 2742 
Q 947 2381 947 1747 
z
" transform="scale(0.015625)"/>
      <path id="DejaVuSans-6a" d="M 603 3500 
L 1178 3500 
L 1178 -63 
Q 1178 -731 923 -1031 
Q 669 -1331 103 -1331 
L -116 -1331 
L -116 -844 
L 38 -844 
Q 366 -844 484 -692 
Q 603 -541 603 -63 
L 603 3500 
z
M 603 4863 
L 1178 4863 
L 1178 4134 
L 603 4134 
L 603 4863 
z
" transform="scale(0.015625)"/>
      <path id="DejaVuSans-2e" d="M 684 794 
L 1344 794 
L 1344 0 
L 684 0 
L 684 794 
z
" transform="scale(0.015625)"/>
      <path id="DejaVuSans-6d" d="M 3328 2828 
Q 3544 3216 3844 3400 
Q 4144 3584 4550 3584 
Q 5097 3584 5394 3201 
Q 5691 2819 5691 2113 
L 5691 0 
L 5113 0 
L 5113 2094 
Q 5113 2597 4934 2840 
Q 4756 3084 4391 3084 
Q 3944 3084 3684 2787 
Q 3425 2491 3425 1978 
L 3425 0 
L 2847 0 
L 2847 2094 
Q 2847 2600 2669 2842 
Q 2491 3084 2119 3084 
Q 1678 3084 1418 2786 
Q 1159 2488 1159 1978 
L 1159 0 
L 581 0 
L 581 3500 
L 1159 3500 
L 1159 2956 
Q 1356 3278 1631 3431 
Q 1906 3584 2284 3584 
Q 2666 3584 2933 3390 
Q 3200 3197 3328 2828 
z
" transform="scale(0.015625)"/>
      <path id="DejaVuSans-78" d="M 3513 3500 
L 2247 1797 
L 3578 0 
L 2900 0 
L 1881 1375 
L 863 0 
L 184 0 
L 1544 1831 
L 300 3500 
L 978 3500 
L 1906 2253 
L 2834 3500 
L 3513 3500 
z
" transform="scale(0.015625)"/>
     </defs>
     <use xlink:href="#DejaVuSans-28"/>
     <use xlink:href="#DejaVuSans-41" x="39.013672"/>
     <use xlink:href="#DejaVuSans-29" x="107.421875"/>
     <use xlink:href="#DejaVuSans-20" x="146.435547"/>
     <use xlink:href="#DejaVuSans-45" x="178.222656"/>
     <use xlink:href="#DejaVuSans-61" x="241.40625"/>
     <use xlink:href="#DejaVuSans-72" x="302.685547"/>
     <use xlink:href="#DejaVuSans-74" x="343.798828"/>
     <use xlink:href="#DejaVuSans-68" x="383.007812"/>
     <use xlink:href="#DejaVuSans-6c" x="446.386719"/>
     <use xlink:href="#DejaVuSans-69" x="474.169922"/>
     <use xlink:href="#DejaVuSans-6e" x="501.953125"/>
     <use xlink:href="#DejaVuSans-67" x="565.332031"/>
     <use xlink:href="#DejaVuSans-20" x="628.808594"/>
     <use xlink:href="#DejaVuSans-61" x="660.595703"/>
     <use xlink:href="#DejaVuSans-64" x="721.875"/>
     <use xlink:href="#DejaVuSans-6a" x="785.351562"/>
     <use xlink:href="#DejaVuSans-2e" x="813.134766"/>
     <use xlink:href="#DejaVuSans-20" x="844.921875"/>
     <use xlink:href="#DejaVuSans-6d" x="876.708984"/>
     <use xlink:href="#DejaVuSans-61" x="974.121094"/>
     <use xlink:href="#DejaVuSans-74" x="1035.400391"/>
     <use xlink:href="#DejaVuSans-72" x="1074.609375"/>
     <use xlink:href="#DejaVuSans-69" x="1115.722656"/>
     <use xlink:href="#DejaVuSans-78" x="1143.505859"/>
    </g>
   </g>
  </g>
  <g id="axes_2">
   <g id="patch_3">
    <path d="M 521.03452 287.08 
L 756.33452 287.08 
L 756.33452 51.78 
L 521.03452 51.78 
z
" style="fill: #ffffff"/>
   </g>
   <g id="QuadMesh_2">
    <path d="M 521.03452 51.78 
L 568.09452 51.78 
L 568.09452 98.84 
L 521.03452 98.84 
L 521.03452 51.78 
" clip-path="url(#p157303c412)" style="fill: #c6c6c6"/>
    <path d="M 568.09452 51.78 
L 615.15452 51.78 
L 615.15452 98.84 
L 568.09452 98.84 
L 568.09452 51.78 
" clip-path="url(#p157303c412)" style="fill: #c6c6c6"/>
    <path d="M 615.15452 51.78 
L 662.21452 51.78 
L 662.21452 98.84 
L 615.15452 98.84 
L 615.15452 51.78 
" clip-path="url(#p157303c412)" style="fill: #686868"/>
    <path d="M 662.21452 51.78 
L 709.27452 51.78 
L 709.27452 98.84 
L 662.21452 98.84 
L 662.21452 51.78 
" clip-path="url(#p157303c412)" style="fill: #686868"/>
    <path d="M 709.27452 51.78 
L 756.33452 51.78 
L 756.33452 98.84 
L 709.27452 98.84 
L 709.27452 51.78 
" clip-path="url(#p157303c412)" style="fill: #686868"/>
    <path d="M 521.03452 98.84 
L 568.09452 98.84 
L 568.09452 145.9 
L 521.03452 145.9 
L 521.03452 98.84 
" clip-path="url(#p157303c412)" style="fill: #c6c6c6"/>
    <path d="M 568.09452 98.84 
L 615.15452 98.84 
L 615.15452 145.9 
L 568.09452 145.9 
L 568.09452 98.84 
" clip-path="url(#p157303c412)" style="fill: #c6c6c6"/>
    <path d="M 615.15452 98.84 
L 662.21452 98.84 
L 662.21452 145.9 
L 615.15452 145.9 
L 615.15452 98.84 
" clip-path="url(#p157303c412)" style="fill: #c6c6c6"/>
    <path d="M 662.21452 98.84 
L 709.27452 98.84 
L 709.27452 145.9 
L 662.21452 145.9 
L 662.21452 98.84 
" clip-path="url(#p157303c412)" style="fill: #686868"/>
    <path d="M 709.27452 98.84 
L 756.33452 98.84 
L 756.33452 145.9 
L 709.27452 145.9 
L 709.27452 98.84 
" clip-path="url(#p157303c412)" style="fill: #c6c6c6"/>
    <path d="M 521.03452 145.9 
L 568.09452 145.9 
L 568.09452 192.96 
L 521.03452 192.96 
L 521.03452 145.9 
" clip-path="url(#p157303c412)" style="fill: #686868"/>
    <path d="M 568.09452 145.9 
L 615.15452 145.9 
L 615.15452 192.96 
L 568.09452 192.96 
L 568.09452 145.9 
" clip-path="url(#p157303c412)" style="fill: #c6c6c6"/>
    <path d="M 615.15452 145.9 
L 662.21452 145.9 
L 662.21452 192.96 
L 615.15452 192.96 
L 615.15452 145.9 
" clip-path="url(#p157303c412)" style="fill: #c6c6c6"/>
    <path d="M 662.21452 145.9 
L 709.27452 145.9 
L 709.27452 192.96 
L 662.21452 192.96 
L 662.21452 145.9 
" clip-path="url(#p157303c412)" style="fill: #686868"/>
    <path d="M 709.27452 145.9 
L 756.33452 145.9 
L 756.33452 192.96 
L 709.27452 192.96 
L 709.27452 145.9 
" clip-path="url(#p157303c412)" style="fill: #686868"/>
    <path d="M 521.03452 192.96 
L 568.09452 192.96 
L 568.09452 240.02 
L 521.03452 240.02 
L 521.03452 192.96 
" clip-path="url(#p157303c412)" style="fill: #686868"/>
    <path d="M 568.09452 192.96 
L 615.15452 192.96 
L 615.15452 240.02 
L 568.09452 240.02 
L 568.09452 192.96 
" clip-path="url(#p157303c412)" style="fill: #686868"/>
    <path d="M 615.15452 192.96 
L 662.21452 192.96 
L 662.21452 240.02 
L 615.15452 240.02 
L 615.15452 192.96 
" clip-path="url(#p157303c412)" style="fill: #686868"/>
    <path d="M 662.21452 192.96 
L 709.27452 192.96 
L 709.27452 240.02 
L 662.21452 240.02 
L 662.21452 192.96 
" clip-path="url(#p157303c412)" style="fill: #c6c6c6"/>
    <path d="M 709.27452 192.96 
L 756.33452 192.96 
L 756.33452 240.02 
L 709.27452 240.02 
L 709.27452 192.96 
" clip-path="url(#p157303c412)" style="fill: #c6c6c6"/>
    <path d="M 521.03452 240.02 
L 568.09452 240.02 
L 568.09452 287.08 
L 521.03452 287.08 
L 521.03452 240.02 
" clip-path="url(#p157303c412)" style="fill: #686868"/>
    <path d="M 568.09452 240.02 
L 615.15452 240.02 
L 615.15452 287.08 
L 568.09452 287.08 
L 568.09452 240.02 
" clip-path="url(#p157303c412)" style="fill: #c6c6c6"/>
    <path d="M 615.15452 240.02 
L 662.21452 240.02 
L 662.21452 287.08 
L 615.15452 287.08 
L 615.15452 240.02 
" clip-path="url(#p157303c412)" style="fill: #686868"/>
    <path d="M 662.21452 240.02 
L 709.27452 240.02 
L 709.27452 287.08 
L 662.21452 287.08 
L 662.21452 240.02 
" clip-path="url(#p157303c412)" style="fill: #c6c6c6"/>
    <path d="M 709.27452 240.02 
L 756.33452 240.02 
L 756.33452 287.08 
L 709.27452 287.08 
L 709.27452 240.02 
" clip-path="url(#p157303c412)" style="fill: #c6c6c6"/>
   </g>
   <g id="matplotlib.axis_3">
    <g id="xtick_6">
     <g id="line2d_11">
      <g>
       <use xlink:href="#m57f49f769b" x="544.56452" y="287.08" style="stroke: #000000; stroke-width: 0.8"/>
      </g>
     </g>
     <g id="text_14">
      <!-- SI -->
      <g transform="translate(535.266083 309.276875) scale(0.2 -0.2)">
       <use xlink:href="#DejaVuSans-53"/>
       <use xlink:href="#DejaVuSans-49" x="63.476562"/>
      </g>
     </g>
    </g>
    <g id="xtick_7">
     <g id="line2d_12">
      <g>
       <use xlink:href="#m57f49f769b" x="591.62452" y="287.08" style="stroke: #000000; stroke-width: 0.8"/>
      </g>
     </g>
     <g id="text_15">
      <!-- L -->
      <g transform="translate(586.052645 309.276875) scale(0.2 -0.2)">
       <use xlink:href="#DejaVuSans-4c"/>
      </g>
     </g>
    </g>
    <g id="xtick_8">
     <g id="line2d_13">
      <g>
       <use xlink:href="#m57f49f769b" x="638.68452" y="287.08" style="stroke: #000000; stroke-width: 0.8"/>
      </g>
     </g>
     <g id="text_16">
      <!-- H/E -->
      <g transform="translate(621.476708 309.276875) scale(0.2 -0.2)">
       <use xlink:href="#DejaVuSans-48"/>
       <use xlink:href="#DejaVuSans-2f" x="75.195312"/>
       <use xlink:href="#DejaVuSans-45" x="108.886719"/>
      </g>
     </g>
    </g>
    <g id="xtick_9">
     <g id="line2d_14">
      <g>
       <use xlink:href="#m57f49f769b" x="685.74452" y="287.08" style="stroke: #000000; stroke-width: 0.8"/>
      </g>
     </g>
     <g id="text_17">
      <!-- T/M -->
      <g transform="translate(667.639833 309.276875) scale(0.2 -0.2)">
       <use xlink:href="#DejaVuSans-54"/>
       <use xlink:href="#DejaVuSans-2f" x="61.083984"/>
       <use xlink:href="#DejaVuSans-4d" x="94.775391"/>
      </g>
     </g>
    </g>
    <g id="xtick_10">
     <g id="line2d_15">
      <g>
       <use xlink:href="#m57f49f769b" x="732.80452" y="287.08" style="stroke: #000000; stroke-width: 0.8"/>
      </g>
     </g>
     <g id="text_18">
      <!-- BS -->
      <g transform="translate(719.770145 309.276875) scale(0.2 -0.2)">
       <use xlink:href="#DejaVuSans-42"/>
       <use xlink:href="#DejaVuSans-53" x="66.853516"/>
      </g>
     </g>
    </g>
    <g id="text_19">
     <!-- Brain Area -->
     <g transform="translate(586.282958 332.633125) scale(0.2 -0.2)">
      <use xlink:href="#DejaVuSans-42"/>
      <use xlink:href="#DejaVuSans-72" x="68.603516"/>
      <use xlink:href="#DejaVuSans-61" x="109.716797"/>
      <use xlink:href="#DejaVuSans-69" x="170.996094"/>
      <use xlink:href="#DejaVuSans-6e" x="198.779297"/>
      <use xlink:href="#DejaVuSans-20" x="262.158203"/>
      <use xlink:href="#DejaVuSans-41" x="293.945312"/>
      <use xlink:href="#DejaVuSans-72" x="362.353516"/>
      <use xlink:href="#DejaVuSans-65" x="401.216797"/>
      <use xlink:href="#DejaVuSans-61" x="462.740234"/>
     </g>
    </g>
   </g>
   <g id="matplotlib.axis_4">
    <g id="ytick_6">
     <g id="line2d_16">
      <g>
       <use xlink:href="#md5d54fff7a" x="521.03452" y="75.31" style="stroke: #000000; stroke-width: 0.8"/>
      </g>
     </g>
     <g id="text_20">
      <!-- SI -->
      <g transform="translate(509.875145 84.608437) rotate(-90) scale(0.2 -0.2)">
       <use xlink:href="#DejaVuSans-53"/>
       <use xlink:href="#DejaVuSans-49" x="63.476562"/>
      </g>
     </g>
    </g>
    <g id="ytick_7">
     <g id="line2d_17">
      <g>
       <use xlink:href="#md5d54fff7a" x="521.03452" y="122.37" style="stroke: #000000; stroke-width: 0.8"/>
      </g>
     </g>
     <g id="text_21">
      <!-- L -->
      <g transform="translate(509.875145 127.941875) rotate(-90) scale(0.2 -0.2)">
       <use xlink:href="#DejaVuSans-4c"/>
      </g>
     </g>
    </g>
    <g id="ytick_8">
     <g id="line2d_18">
      <g>
       <use xlink:href="#md5d54fff7a" x="521.03452" y="169.43" style="stroke: #000000; stroke-width: 0.8"/>
      </g>
     </g>
     <g id="text_22">
      <!-- H/E -->
      <g transform="translate(509.875145 186.637812) rotate(-90) scale(0.2 -0.2)">
       <use xlink:href="#DejaVuSans-48"/>
       <use xlink:href="#DejaVuSans-2f" x="75.195312"/>
       <use xlink:href="#DejaVuSans-45" x="108.886719"/>
      </g>
     </g>
    </g>
    <g id="ytick_9">
     <g id="line2d_19">
      <g>
       <use xlink:href="#md5d54fff7a" x="521.03452" y="216.49" style="stroke: #000000; stroke-width: 0.8"/>
      </g>
     </g>
     <g id="text_23">
      <!-- T/M -->
      <g transform="translate(509.875145 234.594687) rotate(-90) scale(0.2 -0.2)">
       <use xlink:href="#DejaVuSans-54"/>
       <use xlink:href="#DejaVuSans-2f" x="61.083984"/>
       <use xlink:href="#DejaVuSans-4d" x="94.775391"/>
      </g>
     </g>
    </g>
    <g id="ytick_10">
     <g id="line2d_20">
      <g>
       <use xlink:href="#md5d54fff7a" x="521.03452" y="263.55" style="stroke: #000000; stroke-width: 0.8"/>
      </g>
     </g>
     <g id="text_24">
      <!-- BS -->
      <g transform="translate(509.875145 276.584375) rotate(-90) scale(0.2 -0.2)">
       <use xlink:href="#DejaVuSans-42"/>
       <use xlink:href="#DejaVuSans-53" x="66.853516"/>
      </g>
     </g>
    </g>
    <g id="text_25">
     <!-- Brain Area -->
     <g transform="translate(486.518895 221.831562) rotate(-90) scale(0.2 -0.2)">
      <use xlink:href="#DejaVuSans-42"/>
      <use xlink:href="#DejaVuSans-72" x="68.603516"/>
      <use xlink:href="#DejaVuSans-61" x="109.716797"/>
      <use xlink:href="#DejaVuSans-69" x="170.996094"/>
      <use xlink:href="#DejaVuSans-6e" x="198.779297"/>
      <use xlink:href="#DejaVuSans-20" x="262.158203"/>
      <use xlink:href="#DejaVuSans-41" x="293.945312"/>
      <use xlink:href="#DejaVuSans-72" x="362.353516"/>
      <use xlink:href="#DejaVuSans-65" x="401.216797"/>
      <use xlink:href="#DejaVuSans-61" x="462.740234"/>
     </g>
    </g>
   </g>
   <g id="text_26">
    <!-- (A) Astronaut adj. matrix -->
    <g transform="translate(521.03452 35.28) scale(0.18 -0.18)">
     <defs>
      <path id="DejaVuSans-73" d="M 2834 3397 
L 2834 2853 
Q 2591 2978 2328 3040 
Q 2066 3103 1784 3103 
Q 1356 3103 1142 2972 
Q 928 2841 928 2578 
Q 928 2378 1081 2264 
Q 1234 2150 1697 2047 
L 1894 2003 
Q 2506 1872 2764 1633 
Q 3022 1394 3022 966 
Q 3022 478 2636 193 
Q 2250 -91 1575 -91 
Q 1294 -91 989 -36 
Q 684 19 347 128 
L 347 722 
Q 666 556 975 473 
Q 1284 391 1588 391 
Q 1994 391 2212 530 
Q 2431 669 2431 922 
Q 2431 1156 2273 1281 
Q 2116 1406 1581 1522 
L 1381 1569 
Q 847 1681 609 1914 
Q 372 2147 372 2553 
Q 372 3047 722 3315 
Q 1072 3584 1716 3584 
Q 2034 3584 2315 3537 
Q 2597 3491 2834 3397 
z
" transform="scale(0.015625)"/>
      <path id="DejaVuSans-6f" d="M 1959 3097 
Q 1497 3097 1228 2736 
Q 959 2375 959 1747 
Q 959 1119 1226 758 
Q 1494 397 1959 397 
Q 2419 397 2687 759 
Q 2956 1122 2956 1747 
Q 2956 2369 2687 2733 
Q 2419 3097 1959 3097 
z
M 1959 3584 
Q 2709 3584 3137 3096 
Q 3566 2609 3566 1747 
Q 3566 888 3137 398 
Q 2709 -91 1959 -91 
Q 1206 -91 779 398 
Q 353 888 353 1747 
Q 353 2609 779 3096 
Q 1206 3584 1959 3584 
z
" transform="scale(0.015625)"/>
      <path id="DejaVuSans-75" d="M 544 1381 
L 544 3500 
L 1119 3500 
L 1119 1403 
Q 1119 906 1312 657 
Q 1506 409 1894 409 
Q 2359 409 2629 706 
Q 2900 1003 2900 1516 
L 2900 3500 
L 3475 3500 
L 3475 0 
L 2900 0 
L 2900 538 
Q 2691 219 2414 64 
Q 2138 -91 1772 -91 
Q 1169 -91 856 284 
Q 544 659 544 1381 
z
M 1991 3584 
L 1991 3584 
z
" transform="scale(0.015625)"/>
     </defs>
     <use xlink:href="#DejaVuSans-28"/>
     <use xlink:href="#DejaVuSans-41" x="39.013672"/>
     <use xlink:href="#DejaVuSans-29" x="107.421875"/>
     <use xlink:href="#DejaVuSans-20" x="146.435547"/>
     <use xlink:href="#DejaVuSans-41" x="178.222656"/>
     <use xlink:href="#DejaVuSans-73" x="246.630859"/>
     <use xlink:href="#DejaVuSans-74" x="298.730469"/>
     <use xlink:href="#DejaVuSans-72" x="337.939453"/>
     <use xlink:href="#DejaVuSans-6f" x="376.802734"/>
     <use xlink:href="#DejaVuSans-6e" x="437.984375"/>
     <use xlink:href="#DejaVuSans-61" x="501.363281"/>
     <use xlink:href="#DejaVuSans-75" x="562.642578"/>
     <use xlink:href="#DejaVuSans-74" x="626.021484"/>
     <use xlink:href="#DejaVuSans-20" x="665.230469"/>
     <use xlink:href="#DejaVuSans-61" x="697.017578"/>
     <use xlink:href="#DejaVuSans-64" x="758.296875"/>
     <use xlink:href="#DejaVuSans-6a" x="821.773438"/>
     <use xlink:href="#DejaVuSans-2e" x="849.556641"/>
     <use xlink:href="#DejaVuSans-20" x="881.34375"/>
     <use xlink:href="#DejaVuSans-6d" x="913.130859"/>
     <use xlink:href="#DejaVuSans-61" x="1010.542969"/>
     <use xlink:href="#DejaVuSans-74" x="1071.822266"/>
     <use xlink:href="#DejaVuSans-72" x="1111.03125"/>
     <use xlink:href="#DejaVuSans-69" x="1152.144531"/>
     <use xlink:href="#DejaVuSans-78" x="1179.927734"/>
    </g>
   </g>
  </g>
 </g>
 <defs>
  <clipPath id="p81f709697a">
   <rect x="115.67589" y="51.78" width="235.3" height="235.3"/>
  </clipPath>
  <clipPath id="p157303c412">
   <rect x="521.03452" y="51.78" width="235.3" height="235.3"/>
  </clipPath>
 </defs>
</svg>
