<svg xmlns="http://www.w3.org/2000/svg" xmlns:rdkit="http://www.rdkit.org/xml" xmlns:xlink="http://www.w3.org/1999/xlink" version="1.1" baseProfile="full" xml:space="preserve" width="600px" height="280px" viewBox="0 0 600 280">
<!-- END OF HEADER -->
<rect style="opacity:1.0;fill:#FFFFFF;stroke:none" width="600.0" height="280.0" x="0.0" y="0.0"> </rect>
<path class="bond-0 atom-1 atom-0" d="M 180.3,143.2 L 180.4,142.7" style="fill:none;fill-rule:evenodd;stroke:#000000;stroke-width:1.0px;stroke-linecap:butt;stroke-linejoin:miter;stroke-opacity:1"/>
<path class="bond-0 atom-1 atom-0" d="M 183.7,143.7 L 183.8,142.6" style="fill:none;fill-rule:evenodd;stroke:#000000;stroke-width:1.0px;stroke-linecap:butt;stroke-linejoin:miter;stroke-opacity:1"/>
<path class="bond-0 atom-1 atom-0" d="M 187.0,144.3 L 187.2,142.6" style="fill:none;fill-rule:evenodd;stroke:#000000;stroke-width:1.0px;stroke-linecap:butt;stroke-linejoin:miter;stroke-opacity:1"/>
<path class="bond-0 atom-1 atom-0" d="M 190.4,144.8 L 190.6,142.6" style="fill:none;fill-rule:evenodd;stroke:#000000;stroke-width:1.0px;stroke-linecap:butt;stroke-linejoin:miter;stroke-opacity:1"/>
<path class="bond-0 atom-1 atom-0" d="M 193.7,145.3 L 193.9,142.5" style="fill:none;fill-rule:evenodd;stroke:#000000;stroke-width:1.0px;stroke-linecap:butt;stroke-linejoin:miter;stroke-opacity:1"/>
<path class="bond-0 atom-1 atom-0" d="M 197.1,145.8 L 197.3,142.5" style="fill:none;fill-rule:evenodd;stroke:#000000;stroke-width:1.0px;stroke-linecap:butt;stroke-linejoin:miter;stroke-opacity:1"/>
<path class="bond-0 atom-1 atom-0" d="M 200.5,146.4 L 200.7,142.5" style="fill:none;fill-rule:evenodd;stroke:#000000;stroke-width:1.0px;stroke-linecap:butt;stroke-linejoin:miter;stroke-opacity:1"/>
<path class="bond-0 atom-1 atom-0" d="M 203.8,146.9 L 204.1,142.4" style="fill:none;fill-rule:evenodd;stroke:#000000;stroke-width:1.0px;stroke-linecap:butt;stroke-linejoin:miter;stroke-opacity:1"/>
<path class="bond-0 atom-1 atom-0" d="M 207.2,147.4 L 207.5,142.4" style="fill:none;fill-rule:evenodd;stroke:#000000;stroke-width:1.0px;stroke-linecap:butt;stroke-linejoin:miter;stroke-opacity:1"/>
<path class="bond-0 atom-1 atom-0" d="M 210.5,147.9 L 210.9,142.4" style="fill:none;fill-rule:evenodd;stroke:#000000;stroke-width:1.0px;stroke-linecap:butt;stroke-linejoin:miter;stroke-opacity:1"/>
<path class="bond-1 atom-1 atom-2" d="M 177.0,142.7 L 156.0,173.5" style="fill:none;fill-rule:evenodd;stroke:#000000;stroke-width:2.0px;stroke-linecap:butt;stroke-linejoin:miter;stroke-opacity:1"/>
<path class="bond-2 atom-2 atom-3" d="M 156.0,173.5 L 118.9,170.8" style="fill:none;fill-rule:evenodd;stroke:#000000;stroke-width:2.0px;stroke-linecap:butt;stroke-linejoin:miter;stroke-opacity:1"/>
<path class="bond-3 atom-3 atom-4" d="M 118.9,170.8 L 102.6,137.3" style="fill:none;fill-rule:evenodd;stroke:#000000;stroke-width:2.0px;stroke-linecap:butt;stroke-linejoin:miter;stroke-opacity:1"/>
<path class="bond-4 atom-4 atom-5" d="M 102.6,137.3 L 123.6,106.4" style="fill:none;fill-rule:evenodd;stroke:#000000;stroke-width:2.0px;stroke-linecap:butt;stroke-linejoin:miter;stroke-opacity:1"/>
<path class="bond-5 atom-5 atom-6" d="M 126.8,106.7 L 119.9,92.5" style="fill:none;fill-rule:evenodd;stroke:#000000;stroke-width:2.0px;stroke-linecap:butt;stroke-linejoin:miter;stroke-opacity:1"/>
<path class="bond-5 atom-5 atom-6" d="M 119.9,92.5 L 113.1,78.4" style="fill:none;fill-rule:evenodd;stroke:#FF0000;stroke-width:2.0px;stroke-linecap:butt;stroke-linejoin:miter;stroke-opacity:1"/>
<path class="bond-5 atom-5 atom-6" d="M 121.7,109.1 L 114.9,95.0" style="fill:none;fill-rule:evenodd;stroke:#000000;stroke-width:2.0px;stroke-linecap:butt;stroke-linejoin:miter;stroke-opacity:1"/>
<path class="bond-5 atom-5 atom-6" d="M 114.9,95.0 L 108.1,80.8" style="fill:none;fill-rule:evenodd;stroke:#FF0000;stroke-width:2.0px;stroke-linecap:butt;stroke-linejoin:miter;stroke-opacity:1"/>
<path class="bond-6 atom-5 atom-7" d="M 123.6,106.4 L 139.1,107.6" style="fill:none;fill-rule:evenodd;stroke:#000000;stroke-width:2.0px;stroke-linecap:butt;stroke-linejoin:miter;stroke-opacity:1"/>
<path class="bond-6 atom-5 atom-7" d="M 139.1,107.6 L 154.7,108.7" style="fill:none;fill-rule:evenodd;stroke:#FF0000;stroke-width:2.0px;stroke-linecap:butt;stroke-linejoin:miter;stroke-opacity:1"/>
<path class="bond-7 atom-4 atom-8" d="M 102.6,137.3 L 87.6,137.6 L 87.8,134.8 Z" style="fill:#000000;fill-rule:evenodd;fill-opacity:1;stroke:#000000;stroke-width:0.5px;stroke-linecap:butt;stroke-linejoin:miter;stroke-opacity:1;"/>
<path class="bond-7 atom-4 atom-8" d="M 87.6,137.6 L 73.0,132.3 L 72.6,137.9 Z" style="fill:#FF0000;fill-rule:evenodd;fill-opacity:1;stroke:#FF0000;stroke-width:0.5px;stroke-linecap:butt;stroke-linejoin:miter;stroke-opacity:1;"/>
<path class="bond-7 atom-4 atom-8" d="M 87.6,137.6 L 87.8,134.8 L 73.0,132.3 Z" style="fill:#FF0000;fill-rule:evenodd;fill-opacity:1;stroke:#FF0000;stroke-width:0.5px;stroke-linecap:butt;stroke-linejoin:miter;stroke-opacity:1;"/>
<path class="bond-8 atom-3 atom-9" d="M 117.2,173.9 L 116.6,173.5" style="fill:none;fill-rule:evenodd;stroke:#000000;stroke-width:1.0px;stroke-linecap:butt;stroke-linejoin:miter;stroke-opacity:1"/>
<path class="bond-8 atom-3 atom-9" d="M 115.5,177.0 L 114.4,176.2" style="fill:none;fill-rule:evenodd;stroke:#000000;stroke-width:1.0px;stroke-linecap:butt;stroke-linejoin:miter;stroke-opacity:1"/>
<path class="bond-8 atom-3 atom-9" d="M 113.9,180.0 L 112.1,178.9" style="fill:none;fill-rule:evenodd;stroke:#000000;stroke-width:1.0px;stroke-linecap:butt;stroke-linejoin:miter;stroke-opacity:1"/>
<path class="bond-8 atom-3 atom-9" d="M 112.2,183.1 L 109.9,181.5" style="fill:none;fill-rule:evenodd;stroke:#000000;stroke-width:1.0px;stroke-linecap:butt;stroke-linejoin:miter;stroke-opacity:1"/>
<path class="bond-8 atom-3 atom-9" d="M 110.5,186.2 L 107.6,184.2" style="fill:none;fill-rule:evenodd;stroke:#FF0000;stroke-width:1.0px;stroke-linecap:butt;stroke-linejoin:miter;stroke-opacity:1"/>
<path class="bond-8 atom-3 atom-9" d="M 108.9,189.3 L 105.4,186.9" style="fill:none;fill-rule:evenodd;stroke:#FF0000;stroke-width:1.0px;stroke-linecap:butt;stroke-linejoin:miter;stroke-opacity:1"/>
<path class="bond-8 atom-3 atom-9" d="M 107.2,192.3 L 103.2,189.6" style="fill:none;fill-rule:evenodd;stroke:#FF0000;stroke-width:1.0px;stroke-linecap:butt;stroke-linejoin:miter;stroke-opacity:1"/>
<path class="bond-8 atom-3 atom-9" d="M 105.5,195.4 L 100.9,192.3" style="fill:none;fill-rule:evenodd;stroke:#FF0000;stroke-width:1.0px;stroke-linecap:butt;stroke-linejoin:miter;stroke-opacity:1"/>
<path class="bond-9 atom-2 atom-10" d="M 156.0,173.5 L 163.5,185.8 L 161.0,187.0 Z" style="fill:#000000;fill-rule:evenodd;fill-opacity:1;stroke:#000000;stroke-width:0.5px;stroke-linecap:butt;stroke-linejoin:miter;stroke-opacity:1;"/>
<path class="bond-9 atom-2 atom-10" d="M 163.5,185.8 L 166.0,200.5 L 171.0,198.0 Z" style="fill:#FF0000;fill-rule:evenodd;fill-opacity:1;stroke:#FF0000;stroke-width:0.5px;stroke-linecap:butt;stroke-linejoin:miter;stroke-opacity:1;"/>
<path class="bond-9 atom-2 atom-10" d="M 163.5,185.8 L 161.0,187.0 L 166.0,200.5 Z" style="fill:#FF0000;fill-rule:evenodd;fill-opacity:1;stroke:#FF0000;stroke-width:0.5px;stroke-linecap:butt;stroke-linejoin:miter;stroke-opacity:1;"/>
<path class="bond-10 atom-0 atom-11" d="M 214.1,145.4 L 222.3,133.3" style="fill:none;fill-rule:evenodd;stroke:#000000;stroke-width:2.0px;stroke-linecap:butt;stroke-linejoin:miter;stroke-opacity:1"/>
<path class="bond-10 atom-0 atom-11" d="M 222.3,133.3 L 230.5,121.3" style="fill:none;fill-rule:evenodd;stroke:#FF0000;stroke-width:2.0px;stroke-linecap:butt;stroke-linejoin:miter;stroke-opacity:1"/>
<path class="bond-11 atom-7 atom-1" d="M 164.0,115.9 L 170.5,129.3" style="fill:none;fill-rule:evenodd;stroke:#FF0000;stroke-width:2.0px;stroke-linecap:butt;stroke-linejoin:miter;stroke-opacity:1"/>
<path class="bond-11 atom-7 atom-1" d="M 170.5,129.3 L 177.0,142.7" style="fill:none;fill-rule:evenodd;stroke:#000000;stroke-width:2.0px;stroke-linecap:butt;stroke-linejoin:miter;stroke-opacity:1"/>
<path d="M 175.9,144.2 L 177.0,142.7 L 176.6,142.0" style="fill:none;stroke:#000000;stroke-width:2.0px;stroke-linecap:butt;stroke-linejoin:miter;stroke-opacity:1;"/>
<path d="M 157.1,172.0 L 156.0,173.5 L 154.2,173.4" style="fill:none;stroke:#000000;stroke-width:2.0px;stroke-linecap:butt;stroke-linejoin:miter;stroke-opacity:1;"/>
<path d="M 120.7,170.9 L 118.9,170.8 L 118.0,169.1" style="fill:none;stroke:#000000;stroke-width:2.0px;stroke-linecap:butt;stroke-linejoin:miter;stroke-opacity:1;"/>
<path d="M 103.4,138.9 L 102.6,137.3 L 103.7,135.7" style="fill:none;stroke:#000000;stroke-width:2.0px;stroke-linecap:butt;stroke-linejoin:miter;stroke-opacity:1;"/>
<path d="M 122.5,108.0 L 123.6,106.4 L 124.3,106.5" style="fill:none;stroke:#000000;stroke-width:2.0px;stroke-linecap:butt;stroke-linejoin:miter;stroke-opacity:1;"/>
<path class="atom-6" d="M 102.5 72.9 Q 102.5 70.4, 103.7 69.0 Q 105.0 67.5, 107.3 67.5 Q 109.7 67.5, 110.9 69.0 Q 112.2 70.4, 112.2 72.9 Q 112.2 75.5, 110.9 76.9 Q 109.6 78.4, 107.3 78.4 Q 105.0 78.4, 103.7 76.9 Q 102.5 75.5, 102.5 72.9 M 107.3 77.2 Q 108.9 77.2, 109.8 76.1 Q 110.7 75.0, 110.7 72.9 Q 110.7 70.8, 109.8 69.8 Q 108.9 68.7, 107.3 68.7 Q 105.7 68.7, 104.8 69.8 Q 104.0 70.8, 104.0 72.9 Q 104.0 75.0, 104.8 76.1 Q 105.7 77.2, 107.3 77.2 " fill="#FF0000"/>
<path class="atom-7" d="M 155.9 109.2 Q 155.9 106.6, 157.1 105.2 Q 158.4 103.8, 160.7 103.8 Q 163.1 103.8, 164.3 105.2 Q 165.6 106.6, 165.6 109.2 Q 165.6 111.7, 164.3 113.2 Q 163.0 114.6, 160.7 114.6 Q 158.4 114.6, 157.1 113.2 Q 155.9 111.7, 155.9 109.2 M 160.7 113.4 Q 162.3 113.4, 163.2 112.4 Q 164.1 111.3, 164.1 109.2 Q 164.1 107.1, 163.2 106.1 Q 162.3 105.0, 160.7 105.0 Q 159.1 105.0, 158.2 106.0 Q 157.4 107.1, 157.4 109.2 Q 157.4 111.3, 158.2 112.4 Q 159.1 113.4, 160.7 113.4 " fill="#FF0000"/>
<path class="atom-8" d="M 50.2 129.3 L 51.6 129.3 L 51.6 133.8 L 57.0 133.8 L 57.0 129.3 L 58.4 129.3 L 58.4 139.9 L 57.0 139.9 L 57.0 135.0 L 51.6 135.0 L 51.6 139.9 L 50.2 139.9 L 50.2 129.3 " fill="#FF0000"/>
<path class="atom-8" d="M 60.6 134.6 Q 60.6 132.0, 61.9 130.6 Q 63.1 129.2, 65.5 129.2 Q 67.8 129.2, 69.0 130.6 Q 70.3 132.0, 70.3 134.6 Q 70.3 137.1, 69.0 138.6 Q 67.8 140.0, 65.5 140.0 Q 63.1 140.0, 61.9 138.6 Q 60.6 137.2, 60.6 134.6 M 65.5 138.9 Q 67.1 138.9, 67.9 137.8 Q 68.8 136.7, 68.8 134.6 Q 68.8 132.5, 67.9 131.5 Q 67.1 130.4, 65.5 130.4 Q 63.8 130.4, 63.0 131.4 Q 62.1 132.5, 62.1 134.6 Q 62.1 136.7, 63.0 137.8 Q 63.8 138.9, 65.5 138.9 " fill="#FF0000"/>
<path class="atom-9" d="M 82.7 196.4 L 84.1 196.4 L 84.1 200.9 L 89.5 200.9 L 89.5 196.4 L 90.9 196.4 L 90.9 207.0 L 89.5 207.0 L 89.5 202.1 L 84.1 202.1 L 84.1 207.0 L 82.7 207.0 L 82.7 196.4 " fill="#FF0000"/>
<path class="atom-9" d="M 93.1 201.7 Q 93.1 199.1, 94.3 197.7 Q 95.6 196.3, 97.9 196.3 Q 100.3 196.3, 101.5 197.7 Q 102.8 199.1, 102.8 201.7 Q 102.8 204.2, 101.5 205.7 Q 100.2 207.1, 97.9 207.1 Q 95.6 207.1, 94.3 205.7 Q 93.1 204.2, 93.1 201.7 M 97.9 205.9 Q 99.5 205.9, 100.4 204.9 Q 101.3 203.8, 101.3 201.7 Q 101.3 199.6, 100.4 198.5 Q 99.5 197.5, 97.9 197.5 Q 96.3 197.5, 95.4 198.5 Q 94.6 199.6, 94.6 201.7 Q 94.6 203.8, 95.4 204.9 Q 96.3 205.9, 97.9 205.9 " fill="#FF0000"/>
<path class="atom-10" d="M 167.4 207.1 Q 167.4 204.6, 168.7 203.1 Q 169.9 201.7, 172.3 201.7 Q 174.6 201.7, 175.9 203.1 Q 177.1 204.6, 177.1 207.1 Q 177.1 209.7, 175.8 211.1 Q 174.6 212.6, 172.3 212.6 Q 169.9 212.6, 168.7 211.1 Q 167.4 209.7, 167.4 207.1 M 172.3 211.4 Q 173.9 211.4, 174.7 210.3 Q 175.6 209.2, 175.6 207.1 Q 175.6 205.0, 174.7 204.0 Q 173.9 202.9, 172.3 202.9 Q 170.7 202.9, 169.8 204.0 Q 168.9 205.0, 168.9 207.1 Q 168.9 209.2, 169.8 210.3 Q 170.7 211.4, 172.3 211.4 " fill="#FF0000"/>
<path class="atom-10" d="M 178.8 201.8 L 180.2 201.8 L 180.2 206.3 L 185.6 206.3 L 185.6 201.8 L 187.0 201.8 L 187.0 212.4 L 185.6 212.4 L 185.6 207.5 L 180.2 207.5 L 180.2 212.4 L 178.8 212.4 L 178.8 201.8 " fill="#FF0000"/>
<path class="atom-11" d="M 230.2 114.6 Q 230.2 112.1, 231.5 110.6 Q 232.7 109.2, 235.1 109.2 Q 237.4 109.2, 238.7 110.6 Q 239.9 112.1, 239.9 114.6 Q 239.9 117.2, 238.6 118.6 Q 237.4 120.1, 235.1 120.1 Q 232.7 120.1, 231.5 118.6 Q 230.2 117.2, 230.2 114.6 M 235.1 118.9 Q 236.7 118.9, 237.5 117.8 Q 238.4 116.7, 238.4 114.6 Q 238.4 112.5, 237.5 111.5 Q 236.7 110.4, 235.1 110.4 Q 233.5 110.4, 232.6 111.5 Q 231.7 112.5, 231.7 114.6 Q 231.7 116.7, 232.6 117.8 Q 233.5 118.9, 235.1 118.9 " fill="#FF0000"/>
<path class="atom-11" d="M 241.6 109.3 L 243.0 109.3 L 243.0 113.8 L 248.4 113.8 L 248.4 109.3 L 249.8 109.3 L 249.8 119.9 L 248.4 119.9 L 248.4 115.0 L 243.0 115.0 L 243.0 119.9 L 241.6 119.9 L 241.6 109.3 " fill="#FF0000"/>
<path class="note" d="M 220.3 148.6 Q 219.4 148.6, 218.9 147.9 Q 218.4 147.1, 218.4 145.9 Q 218.4 144.6, 218.9 143.9 Q 219.3 143.2, 220.3 143.2 Q 221.3 143.2, 221.8 143.9 Q 222.3 144.6, 222.3 145.9 Q 222.3 147.1, 221.8 147.9 Q 221.3 148.6, 220.3 148.6 M 220.3 148.0 Q 220.9 148.0, 221.2 147.5 Q 221.5 146.9, 221.5 145.9 Q 221.5 144.8, 221.2 144.3 Q 220.9 143.8, 220.3 143.8 Q 219.8 143.8, 219.4 144.3 Q 219.1 144.8, 219.1 145.9 Q 219.1 146.9, 219.4 147.5 Q 219.8 148.0, 220.3 148.0 " fill="#000000"/>
<path class="note" d="M 178.4 150.3 L 179.5 150.3 L 179.5 146.4 L 178.2 146.8 L 178.1 146.3 L 179.7 145.6 L 180.2 145.7 L 180.2 150.3 L 181.3 150.3 L 181.3 150.9 L 178.4 150.9 L 178.4 150.3 " fill="#000000"/>
<path class="note" d="M 151.6 166.3 Q 151.8 165.8, 152.2 165.5 Q 152.7 165.3, 153.3 165.3 Q 154.1 165.3, 154.6 165.7 Q 155.0 166.1, 155.0 166.9 Q 155.0 167.7, 154.4 168.4 Q 153.9 169.1, 152.7 170.0 L 155.1 170.0 L 155.1 170.6 L 151.5 170.6 L 151.5 170.1 Q 152.5 169.4, 153.1 168.9 Q 153.7 168.3, 154.0 167.9 Q 154.3 167.4, 154.3 166.9 Q 154.3 166.4, 154.0 166.1 Q 153.8 165.9, 153.3 165.9 Q 152.9 165.9, 152.6 166.0 Q 152.3 166.2, 152.1 166.6 L 151.6 166.3 " fill="#000000"/>
<path class="note" d="M 123.1 165.6 Q 123.6 165.7, 123.9 166.0 Q 124.1 166.4, 124.1 166.9 Q 124.1 167.3, 123.9 167.7 Q 123.7 168.0, 123.3 168.2 Q 122.9 168.4, 122.3 168.4 Q 121.8 168.4, 121.3 168.2 Q 120.9 168.0, 120.6 167.6 L 121.0 167.2 Q 121.3 167.5, 121.6 167.7 Q 121.9 167.8, 122.3 167.8 Q 122.8 167.8, 123.1 167.6 Q 123.4 167.3, 123.4 166.9 Q 123.4 166.3, 123.1 166.1 Q 122.8 165.9, 122.1 165.9 L 121.7 165.9 L 121.7 165.3 L 122.1 165.3 Q 122.7 165.3, 123.0 165.1 Q 123.3 164.8, 123.3 164.3 Q 123.3 164.0, 123.0 163.8 Q 122.8 163.6, 122.3 163.6 Q 121.9 163.6, 121.6 163.7 Q 121.3 163.9, 121.1 164.3 L 120.6 164.0 Q 120.8 163.6, 121.3 163.3 Q 121.7 163.0, 122.3 163.0 Q 123.1 163.0, 123.6 163.4 Q 124.0 163.7, 124.0 164.3 Q 124.0 164.8, 123.8 165.1 Q 123.5 165.4, 123.1 165.6 " fill="#000000"/>
<path class="note" d="M 110.2 138.5 L 110.9 138.5 L 110.9 139.1 L 110.2 139.1 L 110.2 140.3 L 109.5 140.3 L 109.5 139.1 L 106.8 139.1 L 106.8 138.7 L 109.1 135.1 L 110.2 135.1 L 110.2 138.5 M 107.7 138.5 L 109.5 138.5 L 109.5 135.5 L 107.7 138.5 " fill="#000000"/>
<path class="note" d="M 126.4 111.4 Q 126.9 111.4, 127.2 111.6 Q 127.6 111.7, 127.8 112.1 Q 128.1 112.5, 128.1 113.0 Q 128.1 113.5, 127.8 113.9 Q 127.5 114.3, 127.1 114.5 Q 126.7 114.7, 126.2 114.7 Q 125.7 114.7, 125.2 114.5 Q 124.8 114.4, 124.5 114.0 L 124.9 113.6 Q 125.2 113.8, 125.5 114.0 Q 125.8 114.1, 126.2 114.1 Q 126.7 114.1, 127.0 113.8 Q 127.3 113.5, 127.3 113.0 Q 127.3 112.4, 127.0 112.2 Q 126.7 111.9, 126.1 111.9 Q 125.7 111.9, 125.2 112.1 L 124.8 111.9 L 125.0 109.4 L 127.7 109.4 L 127.6 110.0 L 125.6 110.0 L 125.5 111.5 Q 125.9 111.4, 126.4 111.4 " fill="#000000"/>
<path class="note" d="M 102.1 61.1 Q 102.6 61.1, 103.0 61.3 Q 103.3 61.5, 103.5 61.8 Q 103.7 62.2, 103.7 62.7 Q 103.7 63.2, 103.5 63.6 Q 103.3 64.0, 102.9 64.2 Q 102.5 64.4, 102.0 64.4 Q 101.0 64.4, 100.6 63.8 Q 100.1 63.1, 100.1 61.9 Q 100.1 60.5, 100.7 59.8 Q 101.3 59.0, 102.4 59.0 Q 102.7 59.0, 103.0 59.1 Q 103.3 59.2, 103.5 59.3 L 103.2 59.8 Q 102.9 59.6, 102.4 59.6 Q 101.6 59.6, 101.3 60.1 Q 100.9 60.6, 100.8 61.6 Q 101.1 61.3, 101.4 61.2 Q 101.8 61.1, 102.1 61.1 M 102.0 63.8 Q 102.3 63.8, 102.5 63.7 Q 102.7 63.5, 102.9 63.3 Q 103.0 63.0, 103.0 62.7 Q 103.0 62.2, 102.7 61.9 Q 102.5 61.7, 102.0 61.7 Q 101.7 61.7, 101.4 61.8 Q 101.1 61.9, 100.8 62.2 Q 100.9 63.0, 101.1 63.4 Q 101.4 63.8, 102.0 63.8 " fill="#000000"/>
<path class="note" d="M 168.7 96.8 L 166.0 96.8 L 166.0 96.2 L 169.5 96.2 L 169.5 96.8 L 167.3 101.5 L 166.6 101.5 L 168.7 96.8 " fill="#000000"/>
<path class="note" d="M 60.9 123.2 Q 61.4 123.4, 61.6 123.8 Q 61.9 124.1, 61.9 124.6 Q 61.9 125.0, 61.7 125.4 Q 61.4 125.7, 61.0 125.9 Q 60.6 126.1, 60.1 126.1 Q 59.2 126.1, 58.7 125.7 Q 58.2 125.3, 58.2 124.6 Q 58.2 124.2, 58.4 123.8 Q 58.6 123.5, 59.1 123.3 Q 58.7 123.1, 58.6 122.8 Q 58.4 122.5, 58.4 122.0 Q 58.4 121.4, 58.8 121.1 Q 59.3 120.7, 60.0 120.7 Q 60.8 120.7, 61.3 121.1 Q 61.7 121.4, 61.7 122.0 Q 61.7 122.4, 61.5 122.7 Q 61.3 123.0, 60.9 123.2 M 60.0 121.3 Q 59.6 121.3, 59.4 121.5 Q 59.1 121.7, 59.1 122.0 Q 59.1 122.3, 59.3 122.5 Q 59.4 122.7, 59.7 122.8 Q 59.9 122.9, 60.4 123.0 Q 60.7 122.8, 60.8 122.6 Q 61.0 122.3, 61.0 122.0 Q 61.0 121.7, 60.7 121.5 Q 60.5 121.3, 60.0 121.3 M 60.1 125.5 Q 60.6 125.5, 60.9 125.3 Q 61.2 125.0, 61.2 124.6 Q 61.2 124.3, 61.0 124.1 Q 60.8 123.9, 60.6 123.8 Q 60.4 123.7, 60.0 123.6 L 59.6 123.5 Q 59.3 123.7, 59.1 124.0 Q 58.9 124.2, 58.9 124.6 Q 58.9 125.0, 59.2 125.3 Q 59.6 125.5, 60.1 125.5 " fill="#000000"/>
<path class="note" d="M 90.9 209.2 Q 91.8 209.2, 92.3 209.9 Q 92.8 210.5, 92.8 211.8 Q 92.8 213.2, 92.2 213.9 Q 91.6 214.6, 90.5 214.6 Q 90.2 214.6, 89.9 214.6 Q 89.6 214.5, 89.3 214.3 L 89.6 213.8 Q 90.0 214.0, 90.5 214.0 Q 91.2 214.0, 91.6 213.6 Q 92.0 213.1, 92.0 212.1 Q 91.8 212.3, 91.4 212.5 Q 91.1 212.6, 90.7 212.6 Q 90.3 212.6, 89.9 212.4 Q 89.5 212.2, 89.3 211.8 Q 89.1 211.5, 89.1 211.0 Q 89.1 210.5, 89.3 210.1 Q 89.6 209.7, 90.0 209.5 Q 90.4 209.2, 90.9 209.2 M 89.9 211.0 Q 89.9 211.5, 90.1 211.7 Q 90.4 212.0, 90.8 212.0 Q 91.2 212.0, 91.5 211.9 Q 91.8 211.7, 92.0 211.5 Q 92.0 210.6, 91.7 210.3 Q 91.4 209.9, 90.9 209.9 Q 90.6 209.9, 90.4 210.0 Q 90.1 210.2, 90.0 210.4 Q 89.9 210.7, 89.9 211.0 " fill="#000000"/>
<path class="note" d="M 174.1 220.3 L 175.3 220.3 L 175.3 216.4 L 174.0 216.8 L 173.8 216.3 L 175.4 215.6 L 176.0 215.7 L 176.0 220.3 L 177.0 220.3 L 177.0 220.9 L 174.1 220.9 L 174.1 220.3 " fill="#000000"/>
<path class="note" d="M 179.6 221.0 Q 178.6 221.0, 178.1 220.3 Q 177.7 219.5, 177.7 218.3 Q 177.7 217.0, 178.1 216.3 Q 178.6 215.6, 179.6 215.6 Q 180.6 215.6, 181.1 216.3 Q 181.5 217.0, 181.5 218.3 Q 181.5 219.5, 181.0 220.3 Q 180.6 221.0, 179.6 221.0 M 179.6 220.4 Q 180.2 220.4, 180.5 219.8 Q 180.8 219.3, 180.8 218.3 Q 180.8 217.2, 180.5 216.7 Q 180.2 216.2, 179.6 216.2 Q 179.0 216.2, 178.7 216.7 Q 178.4 217.2, 178.4 218.3 Q 178.4 219.3, 178.7 219.8 Q 179.0 220.4, 179.6 220.4 " fill="#000000"/>
<path class="note" d="M 238.8 106.3 L 240.0 106.3 L 240.0 102.4 L 238.7 102.8 L 238.5 102.4 L 240.2 101.6 L 240.7 101.7 L 240.7 106.3 L 241.7 106.3 L 241.7 106.9 L 238.8 106.9 L 238.8 106.3 " fill="#000000"/>
<path class="note" d="M 242.7 106.3 L 243.8 106.3 L 243.8 102.4 L 242.5 102.8 L 242.4 102.4 L 244.0 101.6 L 244.5 101.7 L 244.5 106.3 L 245.5 106.3 L 245.5 106.9 L 242.7 106.9 L 242.7 106.3 " fill="#000000"/>
<path class="bond-0 atom-0 atom-1" d="M 398.4,103.3 L 361.7,110.1" style="fill:none;fill-rule:evenodd;stroke:#000000;stroke-width:2.0px;stroke-linecap:butt;stroke-linejoin:miter;stroke-opacity:1"/>
<path class="bond-1 atom-1 atom-2" d="M 361.7,110.1 L 356.9,147.1" style="fill:none;fill-rule:evenodd;stroke:#000000;stroke-width:2.0px;stroke-linecap:butt;stroke-linejoin:miter;stroke-opacity:1"/>
<path class="bond-2 atom-2 atom-3" d="M 356.9,147.1 L 370.7,153.7" style="fill:none;fill-rule:evenodd;stroke:#000000;stroke-width:2.0px;stroke-linecap:butt;stroke-linejoin:miter;stroke-opacity:1"/>
<path class="bond-2 atom-2 atom-3" d="M 370.7,153.7 L 384.5,160.2" style="fill:none;fill-rule:evenodd;stroke:#FF0000;stroke-width:2.0px;stroke-linecap:butt;stroke-linejoin:miter;stroke-opacity:1"/>
<path class="bond-3 atom-3 atom-4" d="M 396.6,156.7 L 406.4,146.4" style="fill:none;fill-rule:evenodd;stroke:#FF0000;stroke-width:2.0px;stroke-linecap:butt;stroke-linejoin:miter;stroke-opacity:1"/>
<path class="bond-3 atom-3 atom-4" d="M 406.4,146.4 L 416.2,136.1" style="fill:none;fill-rule:evenodd;stroke:#000000;stroke-width:2.0px;stroke-linecap:butt;stroke-linejoin:miter;stroke-opacity:1"/>
<path class="bond-4 atom-4 atom-5" d="M 419.5,136.9 L 419.6,136.2" style="fill:none;fill-rule:evenodd;stroke:#000000;stroke-width:1.0px;stroke-linecap:butt;stroke-linejoin:miter;stroke-opacity:1"/>
<path class="bond-4 atom-4 atom-5" d="M 422.9,137.7 L 423.0,136.3" style="fill:none;fill-rule:evenodd;stroke:#000000;stroke-width:1.0px;stroke-linecap:butt;stroke-linejoin:miter;stroke-opacity:1"/>
<path class="bond-4 atom-4 atom-5" d="M 426.2,138.4 L 426.5,136.4" style="fill:none;fill-rule:evenodd;stroke:#000000;stroke-width:1.0px;stroke-linecap:butt;stroke-linejoin:miter;stroke-opacity:1"/>
<path class="bond-4 atom-4 atom-5" d="M 429.5,139.2 L 429.9,136.5" style="fill:none;fill-rule:evenodd;stroke:#000000;stroke-width:1.0px;stroke-linecap:butt;stroke-linejoin:miter;stroke-opacity:1"/>
<path class="bond-4 atom-4 atom-5" d="M 432.9,140.0 L 433.3,136.6" style="fill:none;fill-rule:evenodd;stroke:#0000FF;stroke-width:1.0px;stroke-linecap:butt;stroke-linejoin:miter;stroke-opacity:1"/>
<path class="bond-4 atom-4 atom-5" d="M 436.2,140.8 L 436.8,136.7" style="fill:none;fill-rule:evenodd;stroke:#0000FF;stroke-width:1.0px;stroke-linecap:butt;stroke-linejoin:miter;stroke-opacity:1"/>
<path class="bond-4 atom-4 atom-5" d="M 439.6,141.6 L 440.2,136.8" style="fill:none;fill-rule:evenodd;stroke:#0000FF;stroke-width:1.0px;stroke-linecap:butt;stroke-linejoin:miter;stroke-opacity:1"/>
<path class="bond-4 atom-4 atom-5" d="M 442.9,142.4 L 443.6,136.9" style="fill:none;fill-rule:evenodd;stroke:#0000FF;stroke-width:1.0px;stroke-linecap:butt;stroke-linejoin:miter;stroke-opacity:1"/>
<path class="bond-5 atom-5 atom-6" d="M 455.8,147.4 L 461.6,161.4" style="fill:none;fill-rule:evenodd;stroke:#0000FF;stroke-width:2.0px;stroke-linecap:butt;stroke-linejoin:miter;stroke-opacity:1"/>
<path class="bond-5 atom-5 atom-6" d="M 461.6,161.4 L 467.4,175.4" style="fill:none;fill-rule:evenodd;stroke:#000000;stroke-width:2.0px;stroke-linecap:butt;stroke-linejoin:miter;stroke-opacity:1"/>
<path class="bond-6 atom-6 atom-7" d="M 467.4,175.4 L 483.3,177.4" style="fill:none;fill-rule:evenodd;stroke:#000000;stroke-width:2.0px;stroke-linecap:butt;stroke-linejoin:miter;stroke-opacity:1"/>
<path class="bond-6 atom-6 atom-7" d="M 483.3,177.4 L 499.1,179.5" style="fill:none;fill-rule:evenodd;stroke:#0000FF;stroke-width:2.0px;stroke-linecap:butt;stroke-linejoin:miter;stroke-opacity:1"/>
<path class="bond-6 atom-6 atom-7" d="M 471.3,170.2 L 485.6,172.1" style="fill:none;fill-rule:evenodd;stroke:#000000;stroke-width:2.0px;stroke-linecap:butt;stroke-linejoin:miter;stroke-opacity:1"/>
<path class="bond-6 atom-6 atom-7" d="M 485.6,172.1 L 499.9,174.0" style="fill:none;fill-rule:evenodd;stroke:#0000FF;stroke-width:2.0px;stroke-linecap:butt;stroke-linejoin:miter;stroke-opacity:1"/>
<path class="bond-7 atom-7 atom-8" d="M 509.3,173.7 L 518.2,162.2" style="fill:none;fill-rule:evenodd;stroke:#0000FF;stroke-width:2.0px;stroke-linecap:butt;stroke-linejoin:miter;stroke-opacity:1"/>
<path class="bond-7 atom-7 atom-8" d="M 518.2,162.2 L 527.0,150.6" style="fill:none;fill-rule:evenodd;stroke:#000000;stroke-width:2.0px;stroke-linecap:butt;stroke-linejoin:miter;stroke-opacity:1"/>
<path class="bond-8 atom-8 atom-9" d="M 527.0,150.6 L 521.2,136.7" style="fill:none;fill-rule:evenodd;stroke:#000000;stroke-width:2.0px;stroke-linecap:butt;stroke-linejoin:miter;stroke-opacity:1"/>
<path class="bond-8 atom-8 atom-9" d="M 521.2,136.7 L 515.5,122.7" style="fill:none;fill-rule:evenodd;stroke:#0000FF;stroke-width:2.0px;stroke-linecap:butt;stroke-linejoin:miter;stroke-opacity:1"/>
<path class="bond-8 atom-8 atom-9" d="M 520.6,149.8 L 515.5,137.3" style="fill:none;fill-rule:evenodd;stroke:#000000;stroke-width:2.0px;stroke-linecap:butt;stroke-linejoin:miter;stroke-opacity:1"/>
<path class="bond-8 atom-8 atom-9" d="M 515.5,137.3 L 510.3,124.9" style="fill:none;fill-rule:evenodd;stroke:#0000FF;stroke-width:2.0px;stroke-linecap:butt;stroke-linejoin:miter;stroke-opacity:1"/>
<path class="bond-9 atom-9 atom-10" d="M 507.5,115.5 L 491.7,113.4" style="fill:none;fill-rule:evenodd;stroke:#0000FF;stroke-width:2.0px;stroke-linecap:butt;stroke-linejoin:miter;stroke-opacity:1"/>
<path class="bond-9 atom-9 atom-10" d="M 491.7,113.4 L 475.8,111.4" style="fill:none;fill-rule:evenodd;stroke:#000000;stroke-width:2.0px;stroke-linecap:butt;stroke-linejoin:miter;stroke-opacity:1"/>
<path class="bond-10 atom-10 atom-11" d="M 479.0,111.8 L 473.0,97.2" style="fill:none;fill-rule:evenodd;stroke:#000000;stroke-width:2.0px;stroke-linecap:butt;stroke-linejoin:miter;stroke-opacity:1"/>
<path class="bond-10 atom-10 atom-11" d="M 473.0,97.2 L 466.9,82.6" style="fill:none;fill-rule:evenodd;stroke:#FF0000;stroke-width:2.0px;stroke-linecap:butt;stroke-linejoin:miter;stroke-opacity:1"/>
<path class="bond-10 atom-10 atom-11" d="M 473.8,113.9 L 467.8,99.3" style="fill:none;fill-rule:evenodd;stroke:#000000;stroke-width:2.0px;stroke-linecap:butt;stroke-linejoin:miter;stroke-opacity:1"/>
<path class="bond-10 atom-10 atom-11" d="M 467.8,99.3 L 461.7,84.7" style="fill:none;fill-rule:evenodd;stroke:#FF0000;stroke-width:2.0px;stroke-linecap:butt;stroke-linejoin:miter;stroke-opacity:1"/>
<path class="bond-11 atom-8 atom-12" d="M 527.0,150.6 L 542.9,152.7" style="fill:none;fill-rule:evenodd;stroke:#000000;stroke-width:2.0px;stroke-linecap:butt;stroke-linejoin:miter;stroke-opacity:1"/>
<path class="bond-11 atom-8 atom-12" d="M 542.9,152.7 L 558.8,154.8" style="fill:none;fill-rule:evenodd;stroke:#0000FF;stroke-width:2.0px;stroke-linecap:butt;stroke-linejoin:miter;stroke-opacity:1"/>
<path class="bond-12 atom-2 atom-13" d="M 353.8,148.5 L 354.1,148.9" style="fill:none;fill-rule:evenodd;stroke:#000000;stroke-width:1.0px;stroke-linecap:butt;stroke-linejoin:miter;stroke-opacity:1"/>
<path class="bond-12 atom-2 atom-13" d="M 350.7,149.8 L 351.2,150.8" style="fill:none;fill-rule:evenodd;stroke:#000000;stroke-width:1.0px;stroke-linecap:butt;stroke-linejoin:miter;stroke-opacity:1"/>
<path class="bond-12 atom-2 atom-13" d="M 347.6,151.2 L 348.4,152.7" style="fill:none;fill-rule:evenodd;stroke:#000000;stroke-width:1.0px;stroke-linecap:butt;stroke-linejoin:miter;stroke-opacity:1"/>
<path class="bond-12 atom-2 atom-13" d="M 344.5,152.6 L 345.5,154.5" style="fill:none;fill-rule:evenodd;stroke:#000000;stroke-width:1.0px;stroke-linecap:butt;stroke-linejoin:miter;stroke-opacity:1"/>
<path class="bond-12 atom-2 atom-13" d="M 341.4,153.9 L 342.7,156.4" style="fill:none;fill-rule:evenodd;stroke:#000000;stroke-width:1.0px;stroke-linecap:butt;stroke-linejoin:miter;stroke-opacity:1"/>
<path class="bond-12 atom-2 atom-13" d="M 338.2,155.3 L 339.8,158.3" style="fill:none;fill-rule:evenodd;stroke:#000000;stroke-width:1.0px;stroke-linecap:butt;stroke-linejoin:miter;stroke-opacity:1"/>
<path class="bond-12 atom-2 atom-13" d="M 335.1,156.7 L 337.0,160.1" style="fill:none;fill-rule:evenodd;stroke:#000000;stroke-width:1.0px;stroke-linecap:butt;stroke-linejoin:miter;stroke-opacity:1"/>
<path class="bond-12 atom-2 atom-13" d="M 332.0,158.1 L 334.2,162.0" style="fill:none;fill-rule:evenodd;stroke:#000000;stroke-width:1.0px;stroke-linecap:butt;stroke-linejoin:miter;stroke-opacity:1"/>
<path class="bond-12 atom-2 atom-13" d="M 328.9,159.4 L 331.3,163.8" style="fill:none;fill-rule:evenodd;stroke:#000000;stroke-width:1.0px;stroke-linecap:butt;stroke-linejoin:miter;stroke-opacity:1"/>
<path class="bond-12 atom-2 atom-13" d="M 325.8,160.8 L 328.5,165.7" style="fill:none;fill-rule:evenodd;stroke:#000000;stroke-width:1.0px;stroke-linecap:butt;stroke-linejoin:miter;stroke-opacity:1"/>
<path class="bond-13 atom-13 atom-14" d="M 324.1,164.9 L 323.8,180.2" style="fill:none;fill-rule:evenodd;stroke:#000000;stroke-width:2.0px;stroke-linecap:butt;stroke-linejoin:miter;stroke-opacity:1"/>
<path class="bond-13 atom-13 atom-14" d="M 323.8,180.2 L 323.4,195.6" style="fill:none;fill-rule:evenodd;stroke:#FF0000;stroke-width:2.0px;stroke-linecap:butt;stroke-linejoin:miter;stroke-opacity:1"/>
<path class="bond-14 atom-1 atom-15" d="M 361.7,110.1 L 350.9,101.8 L 352.8,99.8 Z" style="fill:#000000;fill-rule:evenodd;fill-opacity:1;stroke:#000000;stroke-width:0.5px;stroke-linecap:butt;stroke-linejoin:miter;stroke-opacity:1;"/>
<path class="bond-14 atom-1 atom-15" d="M 350.9,101.8 L 343.9,89.4 L 340.1,93.4 Z" style="fill:#FF0000;fill-rule:evenodd;fill-opacity:1;stroke:#FF0000;stroke-width:0.5px;stroke-linecap:butt;stroke-linejoin:miter;stroke-opacity:1;"/>
<path class="bond-14 atom-1 atom-15" d="M 350.9,101.8 L 352.8,99.8 L 343.9,89.4 Z" style="fill:#FF0000;fill-rule:evenodd;fill-opacity:1;stroke:#FF0000;stroke-width:0.5px;stroke-linecap:butt;stroke-linejoin:miter;stroke-opacity:1;"/>
<path class="bond-15 atom-4 atom-0" d="M 416.2,136.1 L 398.4,103.3" style="fill:none;fill-rule:evenodd;stroke:#000000;stroke-width:2.0px;stroke-linecap:butt;stroke-linejoin:miter;stroke-opacity:1"/>
<path class="bond-16 atom-10 atom-5" d="M 475.8,111.4 L 467.0,122.9" style="fill:none;fill-rule:evenodd;stroke:#000000;stroke-width:2.0px;stroke-linecap:butt;stroke-linejoin:miter;stroke-opacity:1"/>
<path class="bond-16 atom-10 atom-5" d="M 467.0,122.9 L 458.1,134.4" style="fill:none;fill-rule:evenodd;stroke:#0000FF;stroke-width:2.0px;stroke-linecap:butt;stroke-linejoin:miter;stroke-opacity:1"/>
<path d="M 396.6,103.7 L 398.4,103.3 L 399.3,105.0" style="fill:none;stroke:#000000;stroke-width:2.0px;stroke-linecap:butt;stroke-linejoin:miter;stroke-opacity:1;"/>
<path d="M 363.6,109.8 L 361.7,110.1 L 361.5,112.0" style="fill:none;stroke:#000000;stroke-width:2.0px;stroke-linecap:butt;stroke-linejoin:miter;stroke-opacity:1;"/>
<path d="M 357.1,145.2 L 356.9,147.1 L 357.6,147.4" style="fill:none;stroke:#000000;stroke-width:2.0px;stroke-linecap:butt;stroke-linejoin:miter;stroke-opacity:1;"/>
<path d="M 415.7,136.6 L 416.2,136.1 L 415.3,134.4" style="fill:none;stroke:#000000;stroke-width:2.0px;stroke-linecap:butt;stroke-linejoin:miter;stroke-opacity:1;"/>
<path d="M 467.1,174.7 L 467.4,175.4 L 468.2,175.5" style="fill:none;stroke:#000000;stroke-width:2.0px;stroke-linecap:butt;stroke-linejoin:miter;stroke-opacity:1;"/>
<path d="M 476.6,111.5 L 475.8,111.4 L 475.4,111.9" style="fill:none;stroke:#000000;stroke-width:2.0px;stroke-linecap:butt;stroke-linejoin:miter;stroke-opacity:1;"/>
<path class="atom-3" d="M 385.7 163.1 Q 385.7 160.6, 386.9 159.2 Q 388.2 157.8, 390.5 157.8 Q 392.9 157.8, 394.1 159.2 Q 395.4 160.6, 395.4 163.1 Q 395.4 165.7, 394.1 167.2 Q 392.8 168.6, 390.5 168.6 Q 388.2 168.6, 386.9 167.2 Q 385.7 165.7, 385.7 163.1 M 390.5 167.4 Q 392.1 167.4, 393.0 166.4 Q 393.9 165.3, 393.9 163.1 Q 393.9 161.1, 393.0 160.0 Q 392.1 159.0, 390.5 159.0 Q 388.9 159.0, 388.0 160.0 Q 387.2 161.1, 387.2 163.1 Q 387.2 165.3, 388.0 166.4 Q 388.9 167.4, 390.5 167.4 " fill="#FF0000"/>
<path class="atom-5" d="M 450.8 135.6 L 454.3 141.2 Q 454.6 141.8, 455.2 142.8 Q 455.7 143.8, 455.7 143.8 L 455.7 135.6 L 457.1 135.6 L 457.1 146.2 L 455.7 146.2 L 452.0 140.1 Q 451.5 139.4, 451.1 138.6 Q 450.6 137.7, 450.5 137.5 L 450.5 146.2 L 449.1 146.2 L 449.1 135.6 L 450.8 135.6 " fill="#0000FF"/>
<path class="atom-7" d="M 502.0 174.9 L 505.5 180.5 Q 505.8 181.1, 506.4 182.1 Q 506.9 183.1, 507.0 183.1 L 507.0 174.9 L 508.4 174.9 L 508.4 185.5 L 506.9 185.5 L 503.2 179.4 Q 502.8 178.7, 502.3 177.8 Q 501.9 177.0, 501.7 176.8 L 501.7 185.5 L 500.4 185.5 L 500.4 174.9 L 502.0 174.9 " fill="#0000FF"/>
<path class="atom-9" d="M 510.4 110.9 L 513.9 116.5 Q 514.2 117.1, 514.8 118.1 Q 515.3 119.1, 515.4 119.1 L 515.4 110.9 L 516.8 110.9 L 516.8 121.5 L 515.3 121.5 L 511.6 115.4 Q 511.2 114.7, 510.7 113.8 Q 510.3 113.0, 510.1 112.8 L 510.1 121.5 L 508.8 121.5 L 508.8 110.9 L 510.4 110.9 " fill="#0000FF"/>
<path class="atom-11" d="M 456.7 77.0 Q 456.7 74.4, 457.9 73.0 Q 459.2 71.6, 461.5 71.6 Q 463.9 71.6, 465.1 73.0 Q 466.4 74.4, 466.4 77.0 Q 466.4 79.5, 465.1 81.0 Q 463.8 82.4, 461.5 82.4 Q 459.2 82.4, 457.9 81.0 Q 456.7 79.5, 456.7 77.0 M 461.5 81.2 Q 463.1 81.2, 464.0 80.2 Q 464.9 79.1, 464.9 77.0 Q 464.9 74.9, 464.0 73.8 Q 463.1 72.8, 461.5 72.8 Q 459.9 72.8, 459.0 73.8 Q 458.2 74.9, 458.2 77.0 Q 458.2 79.1, 459.0 80.2 Q 459.9 81.2, 461.5 81.2 " fill="#FF0000"/>
<path class="atom-12" d="M 561.7 150.2 L 565.1 155.8 Q 565.5 156.3, 566.0 157.3 Q 566.6 158.3, 566.6 158.4 L 566.6 150.2 L 568.0 150.2 L 568.0 160.8 L 566.5 160.8 L 562.8 154.6 Q 562.4 153.9, 561.9 153.1 Q 561.5 152.3, 561.4 152.0 L 561.4 160.8 L 560.0 160.8 L 560.0 150.2 L 561.7 150.2 " fill="#0000FF"/>
<path class="atom-12" d="M 570.0 150.2 L 571.4 150.2 L 571.4 154.7 L 576.8 154.7 L 576.8 150.2 L 578.3 150.2 L 578.3 160.8 L 576.8 160.8 L 576.8 155.9 L 571.4 155.9 L 571.4 160.8 L 570.0 160.8 L 570.0 150.2 " fill="#0000FF"/>
<path class="atom-12" d="M 580.3 160.4 Q 580.6 159.7, 581.2 159.4 Q 581.8 159.0, 582.6 159.0 Q 583.7 159.0, 584.3 159.6 Q 584.9 160.1, 584.9 161.1 Q 584.9 162.2, 584.1 163.1 Q 583.4 164.1, 581.8 165.3 L 585.0 165.3 L 585.0 166.0 L 580.3 166.0 L 580.3 165.4 Q 581.6 164.5, 582.4 163.8 Q 583.2 163.1, 583.5 162.5 Q 583.9 161.8, 583.9 161.2 Q 583.9 160.5, 583.6 160.2 Q 583.2 159.8, 582.6 159.8 Q 582.1 159.8, 581.7 160.0 Q 581.3 160.2, 581.1 160.7 L 580.3 160.4 " fill="#0000FF"/>
<path class="atom-14" d="M 318.3 202.2 Q 318.3 199.6, 319.6 198.2 Q 320.8 196.8, 323.2 196.8 Q 325.5 196.8, 326.8 198.2 Q 328.0 199.6, 328.0 202.2 Q 328.0 204.7, 326.8 206.2 Q 325.5 207.6, 323.2 207.6 Q 320.9 207.6, 319.6 206.2 Q 318.3 204.7, 318.3 202.2 M 323.2 206.4 Q 324.8 206.4, 325.7 205.4 Q 326.5 204.3, 326.5 202.2 Q 326.5 200.1, 325.7 199.0 Q 324.8 198.0, 323.2 198.0 Q 321.6 198.0, 320.7 199.0 Q 319.8 200.1, 319.8 202.2 Q 319.8 204.3, 320.7 205.4 Q 321.6 206.4, 323.2 206.4 " fill="#FF0000"/>
<path class="atom-14" d="M 329.7 196.9 L 331.1 196.9 L 331.1 201.4 L 336.5 201.4 L 336.5 196.9 L 337.9 196.9 L 337.9 207.5 L 336.5 207.5 L 336.5 202.6 L 331.1 202.6 L 331.1 207.5 L 329.7 207.5 L 329.7 196.9 " fill="#FF0000"/>
<path class="atom-15" d="M 319.4 79.3 L 320.9 79.3 L 320.9 83.8 L 326.3 83.8 L 326.3 79.3 L 327.7 79.3 L 327.7 89.8 L 326.3 89.8 L 326.3 84.9 L 320.9 84.9 L 320.9 89.8 L 319.4 89.8 L 319.4 79.3 " fill="#FF0000"/>
<path class="atom-15" d="M 329.9 84.5 Q 329.9 82.0, 331.1 80.6 Q 332.4 79.2, 334.7 79.2 Q 337.0 79.2, 338.3 80.6 Q 339.5 82.0, 339.5 84.5 Q 339.5 87.1, 338.3 88.5 Q 337.0 90.0, 334.7 90.0 Q 332.4 90.0, 331.1 88.5 Q 329.9 87.1, 329.9 84.5 M 334.7 88.8 Q 336.3 88.8, 337.2 87.7 Q 338.1 86.6, 338.1 84.5 Q 338.1 82.4, 337.2 81.4 Q 336.3 80.3, 334.7 80.3 Q 333.1 80.3, 332.2 81.4 Q 331.4 82.4, 331.4 84.5 Q 331.4 86.6, 332.2 87.7 Q 333.1 88.8, 334.7 88.8 " fill="#FF0000"/>
<path class="note" d="M 401.1 100.4 Q 400.1 100.4, 399.6 99.7 Q 399.1 99.0, 399.1 97.7 Q 399.1 96.5, 399.6 95.8 Q 400.1 95.1, 401.1 95.1 Q 402.0 95.1, 402.5 95.8 Q 403.0 96.5, 403.0 97.7 Q 403.0 99.0, 402.5 99.7 Q 402.0 100.4, 401.1 100.4 M 401.1 99.9 Q 401.6 99.9, 401.9 99.3 Q 402.2 98.8, 402.2 97.7 Q 402.2 96.7, 401.9 96.2 Q 401.6 95.6, 401.1 95.6 Q 400.5 95.6, 400.2 96.2 Q 399.9 96.7, 399.9 97.7 Q 399.9 98.8, 400.2 99.3 Q 400.5 99.9, 401.1 99.9 " fill="#000000"/>
<path class="note" d="M 365.0 116.5 L 366.1 116.5 L 366.1 112.5 L 364.8 112.9 L 364.7 112.5 L 366.3 111.8 L 366.8 111.8 L 366.8 116.5 L 367.8 116.5 L 367.8 117.1 L 365.0 117.1 L 365.0 116.5 " fill="#000000"/>
<path class="note" d="M 360.6 142.5 Q 360.8 142.0, 361.2 141.7 Q 361.7 141.4, 362.3 141.4 Q 363.1 141.4, 363.6 141.9 Q 364.0 142.3, 364.0 143.1 Q 364.0 143.9, 363.5 144.6 Q 362.9 145.3, 361.7 146.2 L 364.1 146.2 L 364.1 146.8 L 360.6 146.8 L 360.6 146.3 Q 361.6 145.6, 362.1 145.1 Q 362.7 144.5, 363.0 144.1 Q 363.3 143.6, 363.3 143.1 Q 363.3 142.6, 363.0 142.3 Q 362.8 142.0, 362.3 142.0 Q 361.9 142.0, 361.6 142.2 Q 361.4 142.4, 361.2 142.8 L 360.6 142.5 " fill="#000000"/>
<path class="note" d="M 393.6 175.2 Q 394.1 175.4, 394.3 175.7 Q 394.6 176.0, 394.6 176.6 Q 394.6 177.0, 394.4 177.3 Q 394.1 177.7, 393.7 177.9 Q 393.3 178.1, 392.8 178.1 Q 392.2 178.1, 391.8 177.9 Q 391.4 177.7, 391.0 177.3 L 391.5 176.8 Q 391.8 177.2, 392.1 177.3 Q 392.3 177.5, 392.8 177.5 Q 393.3 177.5, 393.5 177.2 Q 393.8 177.0, 393.8 176.5 Q 393.8 176.0, 393.5 175.8 Q 393.2 175.5, 392.6 175.5 L 392.2 175.5 L 392.2 175.0 L 392.5 175.0 Q 393.1 175.0, 393.4 174.7 Q 393.7 174.5, 393.7 174.0 Q 393.7 173.7, 393.5 173.5 Q 393.2 173.3, 392.8 173.3 Q 392.3 173.3, 392.1 173.4 Q 391.8 173.6, 391.6 174.0 L 391.1 173.7 Q 391.3 173.2, 391.7 173.0 Q 392.2 172.7, 392.8 172.7 Q 393.6 172.7, 394.0 173.0 Q 394.5 173.4, 394.5 174.0 Q 394.5 174.4, 394.2 174.7 Q 394.0 175.0, 393.6 175.2 " fill="#000000"/>
<path class="note" d="M 419.7 142.8 L 420.3 142.8 L 420.3 143.4 L 419.7 143.4 L 419.7 144.6 L 419.0 144.6 L 419.0 143.4 L 416.2 143.4 L 416.2 142.9 L 418.5 139.3 L 419.7 139.3 L 419.7 142.8 M 417.1 142.8 L 419.0 142.8 L 419.0 139.8 L 417.1 142.8 " fill="#000000"/>
<path class="note" d="M 448.5 128.8 Q 449.0 128.8, 449.3 129.0 Q 449.7 129.2, 449.9 129.6 Q 450.2 129.9, 450.2 130.4 Q 450.2 131.0, 449.9 131.4 Q 449.6 131.7, 449.2 131.9 Q 448.8 132.1, 448.3 132.1 Q 447.8 132.1, 447.3 132.0 Q 446.9 131.8, 446.6 131.4 L 447.0 131.0 Q 447.3 131.3, 447.6 131.4 Q 448.0 131.5, 448.3 131.5 Q 448.8 131.5, 449.1 131.3 Q 449.4 131.0, 449.4 130.4 Q 449.4 129.9, 449.1 129.6 Q 448.8 129.3, 448.3 129.3 Q 447.8 129.3, 447.3 129.5 L 446.9 129.4 L 447.1 126.8 L 449.8 126.8 L 449.8 127.4 L 447.7 127.4 L 447.6 129.0 Q 448.0 128.8, 448.5 128.8 " fill="#000000"/>
<path class="note" d="M 463.9 179.7 Q 464.3 179.7, 464.7 179.9 Q 465.1 180.1, 465.3 180.4 Q 465.5 180.8, 465.5 181.3 Q 465.5 181.8, 465.2 182.2 Q 465.0 182.6, 464.6 182.8 Q 464.2 183.0, 463.7 183.0 Q 462.7 183.0, 462.3 182.4 Q 461.8 181.7, 461.8 180.5 Q 461.8 179.1, 462.4 178.3 Q 463.0 177.6, 464.1 177.6 Q 464.4 177.6, 464.7 177.7 Q 465.0 177.8, 465.2 177.9 L 465.0 178.4 Q 464.6 178.2, 464.1 178.2 Q 463.4 178.2, 463.0 178.7 Q 462.6 179.2, 462.5 180.2 Q 462.8 179.9, 463.2 179.8 Q 463.5 179.7, 463.9 179.7 M 463.7 182.4 Q 464.0 182.4, 464.2 182.2 Q 464.4 182.1, 464.6 181.8 Q 464.7 181.6, 464.7 181.3 Q 464.7 180.8, 464.4 180.5 Q 464.2 180.3, 463.7 180.3 Q 463.4 180.3, 463.1 180.4 Q 462.8 180.5, 462.5 180.7 Q 462.6 181.6, 462.9 182.0 Q 463.1 182.4, 463.7 182.4 " fill="#000000"/>
<path class="note" d="M 510.1 189.6 L 507.4 189.6 L 507.4 189.0 L 510.9 189.0 L 510.9 189.6 L 508.7 194.3 L 508.0 194.3 L 510.1 189.6 " fill="#000000"/>
<path class="note" d="M 531.6 145.6 Q 532.1 145.8, 532.4 146.1 Q 532.7 146.4, 532.7 146.9 Q 532.7 147.4, 532.4 147.7 Q 532.2 148.1, 531.8 148.3 Q 531.4 148.4, 530.8 148.4 Q 530.0 148.4, 529.5 148.0 Q 528.9 147.6, 528.9 146.9 Q 528.9 146.5, 529.2 146.2 Q 529.4 145.8, 529.9 145.6 Q 529.5 145.4, 529.3 145.1 Q 529.1 144.8, 529.1 144.4 Q 529.1 143.8, 529.6 143.4 Q 530.0 143.0, 530.8 143.0 Q 531.6 143.0, 532.0 143.4 Q 532.5 143.8, 532.5 144.4 Q 532.5 144.8, 532.3 145.1 Q 532.1 145.3, 531.6 145.6 M 530.8 143.6 Q 530.4 143.6, 530.1 143.8 Q 529.9 144.0, 529.9 144.4 Q 529.9 144.7, 530.1 144.8 Q 530.2 145.0, 530.4 145.1 Q 530.7 145.2, 531.1 145.4 Q 531.5 145.2, 531.6 144.9 Q 531.7 144.7, 531.7 144.4 Q 531.7 144.0, 531.5 143.8 Q 531.3 143.6, 530.8 143.6 M 530.8 147.9 Q 531.3 147.9, 531.6 147.6 Q 531.9 147.4, 531.9 146.9 Q 531.9 146.6, 531.8 146.5 Q 531.6 146.3, 531.4 146.2 Q 531.1 146.1, 530.7 145.9 L 530.4 145.8 Q 530.0 146.0, 529.9 146.3 Q 529.7 146.6, 529.7 146.9 Q 529.7 147.4, 530.0 147.6 Q 530.3 147.9, 530.8 147.9 " fill="#000000"/>
<path class="note" d="M 524.2 108.8 Q 525.1 108.8, 525.6 109.4 Q 526.1 110.1, 526.1 111.3 Q 526.1 112.7, 525.5 113.5 Q 524.9 114.2, 523.8 114.2 Q 523.4 114.2, 523.2 114.1 Q 522.9 114.0, 522.6 113.9 L 522.9 113.4 Q 523.3 113.6, 523.8 113.6 Q 524.5 113.6, 524.9 113.1 Q 525.3 112.6, 525.3 111.6 Q 525.0 111.9, 524.7 112.0 Q 524.4 112.1, 524.0 112.1 Q 523.5 112.1, 523.2 111.9 Q 522.8 111.7, 522.6 111.4 Q 522.4 111.0, 522.4 110.5 Q 522.4 110.0, 522.6 109.6 Q 522.9 109.2, 523.3 109.0 Q 523.7 108.8, 524.2 108.8 M 523.2 110.5 Q 523.2 111.0, 523.4 111.3 Q 523.7 111.5, 524.1 111.5 Q 524.5 111.5, 524.8 111.4 Q 525.1 111.3, 525.3 111.1 Q 525.3 110.2, 525.0 109.8 Q 524.7 109.4, 524.2 109.4 Q 523.9 109.4, 523.6 109.5 Q 523.4 109.7, 523.3 109.9 Q 523.2 110.2, 523.2 110.5 " fill="#000000"/>
<path class="note" d="M 479.8 103.6 L 481.0 103.6 L 481.0 99.6 L 479.7 100.0 L 479.5 99.6 L 481.1 98.9 L 481.7 98.9 L 481.7 103.6 L 482.7 103.6 L 482.7 104.2 L 479.8 104.2 L 479.8 103.6 " fill="#000000"/>
<path class="note" d="M 485.3 104.2 Q 484.3 104.2, 483.8 103.5 Q 483.4 102.8, 483.4 101.5 Q 483.4 100.2, 483.8 99.5 Q 484.3 98.8, 485.3 98.8 Q 486.3 98.8, 486.7 99.5 Q 487.2 100.2, 487.2 101.5 Q 487.2 102.8, 486.7 103.5 Q 486.3 104.2, 485.3 104.2 M 485.3 103.6 Q 485.9 103.6, 486.2 103.1 Q 486.5 102.6, 486.5 101.5 Q 486.5 100.5, 486.2 100.0 Q 485.9 99.4, 485.3 99.4 Q 484.7 99.4, 484.4 100.0 Q 484.1 100.5, 484.1 101.5 Q 484.1 102.6, 484.4 103.1 Q 484.7 103.6, 485.3 103.6 " fill="#000000"/>
<path class="note" d="M 453.6 67.5 L 454.7 67.5 L 454.7 63.6 L 453.5 64.0 L 453.3 63.5 L 454.9 62.8 L 455.4 62.9 L 455.4 67.5 L 456.5 67.5 L 456.5 68.1 L 453.6 68.1 L 453.6 67.5 " fill="#000000"/>
<path class="note" d="M 457.4 67.5 L 458.5 67.5 L 458.5 63.6 L 457.3 64.0 L 457.1 63.5 L 458.7 62.8 L 459.2 62.9 L 459.2 67.5 L 460.3 67.5 L 460.3 68.1 L 457.4 68.1 L 457.4 67.5 " fill="#000000"/>
<path class="note" d="M 565.3 169.0 L 566.5 169.0 L 566.5 165.1 L 565.2 165.5 L 565.0 165.0 L 566.7 164.3 L 567.2 164.4 L 567.2 169.0 L 568.2 169.0 L 568.2 169.6 L 565.3 169.6 L 565.3 169.0 " fill="#000000"/>
<path class="note" d="M 568.9 165.3 Q 569.1 164.8, 569.6 164.6 Q 570.0 164.3, 570.7 164.3 Q 571.5 164.3, 571.9 164.7 Q 572.3 165.2, 572.3 165.9 Q 572.3 166.7, 571.8 167.4 Q 571.2 168.2, 570.0 169.0 L 572.4 169.0 L 572.4 169.6 L 568.9 169.6 L 568.9 169.1 Q 569.9 168.4, 570.4 167.9 Q 571.0 167.4, 571.3 166.9 Q 571.6 166.4, 571.6 166.0 Q 571.6 165.5, 571.3 165.2 Q 571.1 164.9, 570.7 164.9 Q 570.2 164.9, 569.9 165.1 Q 569.7 165.2, 569.5 165.6 L 568.9 165.3 " fill="#000000"/>
<path class="note" d="M 315.3 169.9 L 316.4 169.9 L 316.4 166.0 L 315.2 166.4 L 315.0 165.9 L 316.6 165.2 L 317.1 165.3 L 317.1 169.9 L 318.2 169.9 L 318.2 170.5 L 315.3 170.5 L 315.3 169.9 " fill="#000000"/>
<path class="note" d="M 321.4 167.7 Q 321.9 167.9, 322.1 168.2 Q 322.4 168.5, 322.4 169.1 Q 322.4 169.5, 322.2 169.9 Q 321.9 170.2, 321.5 170.4 Q 321.1 170.6, 320.6 170.6 Q 320.0 170.6, 319.6 170.4 Q 319.2 170.2, 318.8 169.8 L 319.3 169.4 Q 319.6 169.7, 319.9 169.9 Q 320.1 170.0, 320.6 170.0 Q 321.1 170.0, 321.3 169.7 Q 321.6 169.5, 321.6 169.1 Q 321.6 168.5, 321.3 168.3 Q 321.0 168.0, 320.4 168.0 L 320.0 168.0 L 320.0 167.5 L 320.3 167.5 Q 320.9 167.5, 321.2 167.2 Q 321.5 167.0, 321.5 166.5 Q 321.5 166.2, 321.3 166.0 Q 321.0 165.8, 320.6 165.8 Q 320.1 165.8, 319.9 165.9 Q 319.6 166.1, 319.4 166.5 L 318.9 166.2 Q 319.1 165.8, 319.5 165.5 Q 320.0 165.2, 320.6 165.2 Q 321.4 165.2, 321.8 165.5 Q 322.3 165.9, 322.3 166.5 Q 322.3 166.9, 322.0 167.3 Q 321.8 167.6, 321.4 167.7 " fill="#000000"/>
<path class="note" d="M 319.2 216.6 L 320.3 216.6 L 320.3 212.7 L 319.1 213.1 L 318.9 212.6 L 320.5 211.9 L 321.0 212.0 L 321.0 216.6 L 322.1 216.6 L 322.1 217.2 L 319.2 217.2 L 319.2 216.6 " fill="#000000"/>
<path class="note" d="M 326.2 215.4 L 326.8 215.4 L 326.8 216.0 L 326.2 216.0 L 326.2 217.2 L 325.5 217.2 L 325.5 216.0 L 322.8 216.0 L 322.8 215.5 L 325.1 211.9 L 326.2 211.9 L 326.2 215.4 M 323.6 215.4 L 325.5 215.4 L 325.5 212.4 L 323.6 215.4 " fill="#000000"/>
<path class="note" d="M 327.8 74.6 L 328.9 74.6 L 328.9 70.7 L 327.6 71.1 L 327.5 70.6 L 329.1 69.9 L 329.6 70.0 L 329.6 74.6 L 330.7 74.6 L 330.7 75.2 L 327.8 75.2 L 327.8 74.6 " fill="#000000"/>
<path class="note" d="M 333.2 71.9 Q 333.7 71.9, 334.1 72.1 Q 334.4 72.3, 334.7 72.7 Q 334.9 73.1, 334.9 73.6 Q 334.9 74.1, 334.6 74.5 Q 334.3 74.9, 333.9 75.1 Q 333.5 75.3, 333.0 75.3 Q 332.5 75.3, 332.1 75.1 Q 331.6 74.9, 331.3 74.6 L 331.8 74.1 Q 332.0 74.4, 332.3 74.5 Q 332.7 74.7, 333.0 74.7 Q 333.5 74.7, 333.8 74.4 Q 334.1 74.1, 334.1 73.6 Q 334.1 73.0, 333.8 72.8 Q 333.5 72.5, 333.0 72.5 Q 332.5 72.5, 332.0 72.7 L 331.6 72.5 L 331.8 70.0 L 334.5 70.0 L 334.5 70.5 L 332.4 70.5 L 332.3 72.1 Q 332.8 71.9, 333.2 71.9 " fill="#000000"/>
</svg>