<svg xmlns="http://www.w3.org/2000/svg" xmlns:rdkit="http://www.rdkit.org/xml" xmlns:xlink="http://www.w3.org/1999/xlink" version="1.1" baseProfile="full" xml:space="preserve" width="600px" height="280px" viewBox="0 0 600 280">
<!-- END OF HEADER -->
<rect style="opacity:1.0;fill:#FFFFFF;stroke:none" width="600.0" height="280.0" x="0.0" y="0.0"> </rect>
<path class="bond-0 atom-1 atom-0" d="M 180.7,143.2 L 180.7,142.6" style="fill:none;fill-rule:evenodd;stroke:#000000;stroke-width:1.0px;stroke-linecap:butt;stroke-linejoin:miter;stroke-opacity:1"/>
<path class="bond-0 atom-1 atom-0" d="M 184.1,143.7 L 184.2,142.6" style="fill:none;fill-rule:evenodd;stroke:#000000;stroke-width:1.0px;stroke-linecap:butt;stroke-linejoin:miter;stroke-opacity:1"/>
<path class="bond-0 atom-1 atom-0" d="M 187.5,144.3 L 187.6,142.6" style="fill:none;fill-rule:evenodd;stroke:#000000;stroke-width:1.0px;stroke-linecap:butt;stroke-linejoin:miter;stroke-opacity:1"/>
<path class="bond-0 atom-1 atom-0" d="M 190.9,144.8 L 191.1,142.5" style="fill:none;fill-rule:evenodd;stroke:#000000;stroke-width:1.0px;stroke-linecap:butt;stroke-linejoin:miter;stroke-opacity:1"/>
<path class="bond-0 atom-1 atom-0" d="M 194.3,145.3 L 194.5,142.5" style="fill:none;fill-rule:evenodd;stroke:#000000;stroke-width:1.0px;stroke-linecap:butt;stroke-linejoin:miter;stroke-opacity:1"/>
<path class="bond-0 atom-1 atom-0" d="M 197.7,145.9 L 197.9,142.5" style="fill:none;fill-rule:evenodd;stroke:#000000;stroke-width:1.0px;stroke-linecap:butt;stroke-linejoin:miter;stroke-opacity:1"/>
<path class="bond-0 atom-1 atom-0" d="M 201.1,146.4 L 201.4,142.4" style="fill:none;fill-rule:evenodd;stroke:#000000;stroke-width:1.0px;stroke-linecap:butt;stroke-linejoin:miter;stroke-opacity:1"/>
<path class="bond-0 atom-1 atom-0" d="M 204.5,146.9 L 204.8,142.4" style="fill:none;fill-rule:evenodd;stroke:#000000;stroke-width:1.0px;stroke-linecap:butt;stroke-linejoin:miter;stroke-opacity:1"/>
<path class="bond-0 atom-1 atom-0" d="M 207.9,147.4 L 208.3,142.4" style="fill:none;fill-rule:evenodd;stroke:#000000;stroke-width:1.0px;stroke-linecap:butt;stroke-linejoin:miter;stroke-opacity:1"/>
<path class="bond-0 atom-1 atom-0" d="M 211.3,148.0 L 211.7,142.3" style="fill:none;fill-rule:evenodd;stroke:#000000;stroke-width:1.0px;stroke-linecap:butt;stroke-linejoin:miter;stroke-opacity:1"/>
<path class="bond-1 atom-1 atom-2" d="M 177.3,142.7 L 156.1,173.9" style="fill:none;fill-rule:evenodd;stroke:#000000;stroke-width:2.0px;stroke-linecap:butt;stroke-linejoin:miter;stroke-opacity:1"/>
<path class="bond-2 atom-2 atom-3" d="M 156.1,173.9 L 118.5,171.1" style="fill:none;fill-rule:evenodd;stroke:#000000;stroke-width:2.0px;stroke-linecap:butt;stroke-linejoin:miter;stroke-opacity:1"/>
<path class="bond-3 atom-3 atom-4" d="M 118.5,171.1 L 102.0,137.2" style="fill:none;fill-rule:evenodd;stroke:#000000;stroke-width:2.0px;stroke-linecap:butt;stroke-linejoin:miter;stroke-opacity:1"/>
<path class="bond-4 atom-4 atom-5" d="M 102.0,137.2 L 123.2,106.0" style="fill:none;fill-rule:evenodd;stroke:#000000;stroke-width:2.0px;stroke-linecap:butt;stroke-linejoin:miter;stroke-opacity:1"/>
<path class="bond-5 atom-5 atom-6" d="M 126.5,106.2 L 119.6,91.9" style="fill:none;fill-rule:evenodd;stroke:#000000;stroke-width:2.0px;stroke-linecap:butt;stroke-linejoin:miter;stroke-opacity:1"/>
<path class="bond-5 atom-5 atom-6" d="M 119.6,91.9 L 112.6,77.6" style="fill:none;fill-rule:evenodd;stroke:#FF0000;stroke-width:2.0px;stroke-linecap:butt;stroke-linejoin:miter;stroke-opacity:1"/>
<path class="bond-5 atom-5 atom-6" d="M 121.4,108.7 L 114.5,94.3" style="fill:none;fill-rule:evenodd;stroke:#000000;stroke-width:2.0px;stroke-linecap:butt;stroke-linejoin:miter;stroke-opacity:1"/>
<path class="bond-5 atom-5 atom-6" d="M 114.5,94.3 L 107.5,80.0" style="fill:none;fill-rule:evenodd;stroke:#FF0000;stroke-width:2.0px;stroke-linecap:butt;stroke-linejoin:miter;stroke-opacity:1"/>
<path class="bond-6 atom-5 atom-7" d="M 123.2,106.0 L 139.0,107.1" style="fill:none;fill-rule:evenodd;stroke:#000000;stroke-width:2.0px;stroke-linecap:butt;stroke-linejoin:miter;stroke-opacity:1"/>
<path class="bond-6 atom-5 atom-7" d="M 139.0,107.1 L 154.7,108.2" style="fill:none;fill-rule:evenodd;stroke:#FF0000;stroke-width:2.0px;stroke-linecap:butt;stroke-linejoin:miter;stroke-opacity:1"/>
<path class="bond-7 atom-4 atom-8" d="M 102.0,137.2 L 86.8,137.5 L 87.0,134.7 Z" style="fill:#000000;fill-rule:evenodd;fill-opacity:1;stroke:#000000;stroke-width:0.5px;stroke-linecap:butt;stroke-linejoin:miter;stroke-opacity:1;"/>
<path class="bond-7 atom-4 atom-8" d="M 86.8,137.5 L 72.0,132.1 L 71.6,137.8 Z" style="fill:#FF0000;fill-rule:evenodd;fill-opacity:1;stroke:#FF0000;stroke-width:0.5px;stroke-linecap:butt;stroke-linejoin:miter;stroke-opacity:1;"/>
<path class="bond-7 atom-4 atom-8" d="M 86.8,137.5 L 87.0,134.7 L 72.0,132.1 Z" style="fill:#FF0000;fill-rule:evenodd;fill-opacity:1;stroke:#FF0000;stroke-width:0.5px;stroke-linecap:butt;stroke-linejoin:miter;stroke-opacity:1;"/>
<path class="bond-8 atom-3 atom-9" d="M 116.8,174.2 L 116.2,173.9" style="fill:none;fill-rule:evenodd;stroke:#000000;stroke-width:1.0px;stroke-linecap:butt;stroke-linejoin:miter;stroke-opacity:1"/>
<path class="bond-8 atom-3 atom-9" d="M 115.1,177.4 L 113.9,176.6" style="fill:none;fill-rule:evenodd;stroke:#000000;stroke-width:1.0px;stroke-linecap:butt;stroke-linejoin:miter;stroke-opacity:1"/>
<path class="bond-8 atom-3 atom-9" d="M 113.4,180.5 L 111.7,179.3" style="fill:none;fill-rule:evenodd;stroke:#000000;stroke-width:1.0px;stroke-linecap:butt;stroke-linejoin:miter;stroke-opacity:1"/>
<path class="bond-8 atom-3 atom-9" d="M 111.7,183.6 L 109.4,182.0" style="fill:none;fill-rule:evenodd;stroke:#000000;stroke-width:1.0px;stroke-linecap:butt;stroke-linejoin:miter;stroke-opacity:1"/>
<path class="bond-8 atom-3 atom-9" d="M 110.0,186.7 L 107.1,184.7" style="fill:none;fill-rule:evenodd;stroke:#FF0000;stroke-width:1.0px;stroke-linecap:butt;stroke-linejoin:miter;stroke-opacity:1"/>
<path class="bond-8 atom-3 atom-9" d="M 108.3,189.8 L 104.8,187.4" style="fill:none;fill-rule:evenodd;stroke:#FF0000;stroke-width:1.0px;stroke-linecap:butt;stroke-linejoin:miter;stroke-opacity:1"/>
<path class="bond-8 atom-3 atom-9" d="M 106.7,192.9 L 102.6,190.2" style="fill:none;fill-rule:evenodd;stroke:#FF0000;stroke-width:1.0px;stroke-linecap:butt;stroke-linejoin:miter;stroke-opacity:1"/>
<path class="bond-8 atom-3 atom-9" d="M 105.0,196.1 L 100.3,192.9" style="fill:none;fill-rule:evenodd;stroke:#FF0000;stroke-width:1.0px;stroke-linecap:butt;stroke-linejoin:miter;stroke-opacity:1"/>
<path class="bond-9 atom-2 atom-10" d="M 156.1,173.9 L 163.7,186.3 L 161.1,187.5 Z" style="fill:#000000;fill-rule:evenodd;fill-opacity:1;stroke:#000000;stroke-width:0.5px;stroke-linecap:butt;stroke-linejoin:miter;stroke-opacity:1;"/>
<path class="bond-9 atom-2 atom-10" d="M 163.7,186.3 L 166.2,201.2 L 171.3,198.7 Z" style="fill:#FF0000;fill-rule:evenodd;fill-opacity:1;stroke:#FF0000;stroke-width:0.5px;stroke-linecap:butt;stroke-linejoin:miter;stroke-opacity:1;"/>
<path class="bond-9 atom-2 atom-10" d="M 163.7,186.3 L 161.1,187.5 L 166.2,201.2 Z" style="fill:#FF0000;fill-rule:evenodd;fill-opacity:1;stroke:#FF0000;stroke-width:0.5px;stroke-linecap:butt;stroke-linejoin:miter;stroke-opacity:1;"/>
<path class="bond-10 atom-0 atom-11" d="M 214.9,145.4 L 223.2,133.2" style="fill:none;fill-rule:evenodd;stroke:#000000;stroke-width:2.0px;stroke-linecap:butt;stroke-linejoin:miter;stroke-opacity:1"/>
<path class="bond-10 atom-0 atom-11" d="M 223.2,133.2 L 231.5,121.0" style="fill:none;fill-rule:evenodd;stroke:#FF0000;stroke-width:2.0px;stroke-linecap:butt;stroke-linejoin:miter;stroke-opacity:1"/>
<path class="bond-11 atom-7 atom-1" d="M 164.2,115.5 L 170.7,129.1" style="fill:none;fill-rule:evenodd;stroke:#FF0000;stroke-width:2.0px;stroke-linecap:butt;stroke-linejoin:miter;stroke-opacity:1"/>
<path class="bond-11 atom-7 atom-1" d="M 170.7,129.1 L 177.3,142.7" style="fill:none;fill-rule:evenodd;stroke:#000000;stroke-width:2.0px;stroke-linecap:butt;stroke-linejoin:miter;stroke-opacity:1"/>
<path d="M 176.2,144.2 L 177.3,142.7 L 177.0,142.0" style="fill:none;stroke:#000000;stroke-width:2.0px;stroke-linecap:butt;stroke-linejoin:miter;stroke-opacity:1;"/>
<path d="M 157.2,172.3 L 156.1,173.9 L 154.2,173.7" style="fill:none;stroke:#000000;stroke-width:2.0px;stroke-linecap:butt;stroke-linejoin:miter;stroke-opacity:1;"/>
<path d="M 120.4,171.3 L 118.5,171.1 L 117.6,169.4" style="fill:none;stroke:#000000;stroke-width:2.0px;stroke-linecap:butt;stroke-linejoin:miter;stroke-opacity:1;"/>
<path d="M 102.9,138.9 L 102.0,137.2 L 103.1,135.6" style="fill:none;stroke:#000000;stroke-width:2.0px;stroke-linecap:butt;stroke-linejoin:miter;stroke-opacity:1;"/>
<path d="M 122.2,107.5 L 123.2,106.0 L 124.0,106.0" style="fill:none;stroke:#000000;stroke-width:2.0px;stroke-linecap:butt;stroke-linejoin:miter;stroke-opacity:1;"/>
<path class="atom-6" d="M 101.9 72.0 Q 101.9 69.4, 103.2 68.0 Q 104.4 66.6, 106.8 66.6 Q 109.2 66.6, 110.4 68.0 Q 111.7 69.4, 111.7 72.0 Q 111.7 74.6, 110.4 76.1 Q 109.1 77.6, 106.8 77.6 Q 104.4 77.6, 103.2 76.1 Q 101.9 74.6, 101.9 72.0 M 106.8 76.3 Q 108.4 76.3, 109.3 75.3 Q 110.2 74.2, 110.2 72.0 Q 110.2 69.9, 109.3 68.9 Q 108.4 67.8, 106.8 67.8 Q 105.2 67.8, 104.3 68.8 Q 103.4 69.9, 103.4 72.0 Q 103.4 74.2, 104.3 75.3 Q 105.2 76.3, 106.8 76.3 " fill="#FF0000"/>
<path class="atom-7" d="M 156.0 108.7 Q 156.0 106.2, 157.2 104.7 Q 158.5 103.3, 160.9 103.3 Q 163.2 103.3, 164.5 104.7 Q 165.8 106.2, 165.8 108.7 Q 165.8 111.3, 164.5 112.8 Q 163.2 114.3, 160.9 114.3 Q 158.5 114.3, 157.2 112.8 Q 156.0 111.3, 156.0 108.7 M 160.9 113.1 Q 162.5 113.1, 163.4 112.0 Q 164.3 110.9, 164.3 108.7 Q 164.3 106.6, 163.4 105.6 Q 162.5 104.5, 160.9 104.5 Q 159.2 104.5, 158.3 105.6 Q 157.5 106.6, 157.5 108.7 Q 157.5 110.9, 158.3 112.0 Q 159.2 113.1, 160.9 113.1 " fill="#FF0000"/>
<path class="atom-8" d="M 48.9 129.1 L 50.4 129.1 L 50.4 133.7 L 55.9 133.7 L 55.9 129.1 L 57.3 129.1 L 57.3 139.8 L 55.9 139.8 L 55.9 134.9 L 50.4 134.9 L 50.4 139.8 L 48.9 139.8 L 48.9 129.1 " fill="#FF0000"/>
<path class="atom-8" d="M 59.5 134.5 Q 59.5 131.9, 60.8 130.5 Q 62.0 129.0, 64.4 129.0 Q 66.8 129.0, 68.0 130.5 Q 69.3 131.9, 69.3 134.5 Q 69.3 137.0, 68.0 138.5 Q 66.7 140.0, 64.4 140.0 Q 62.0 140.0, 60.8 138.5 Q 59.5 137.1, 59.5 134.5 M 64.4 138.8 Q 66.0 138.8, 66.9 137.7 Q 67.8 136.6, 67.8 134.5 Q 67.8 132.4, 66.9 131.3 Q 66.0 130.2, 64.4 130.2 Q 62.8 130.2, 61.9 131.3 Q 61.0 132.3, 61.0 134.5 Q 61.0 136.6, 61.9 137.7 Q 62.8 138.8, 64.4 138.8 " fill="#FF0000"/>
<path class="atom-9" d="M 81.8 197.1 L 83.3 197.1 L 83.3 201.6 L 88.7 201.6 L 88.7 197.1 L 90.2 197.1 L 90.2 207.8 L 88.7 207.8 L 88.7 202.8 L 83.3 202.8 L 83.3 207.8 L 81.8 207.8 L 81.8 197.1 " fill="#FF0000"/>
<path class="atom-9" d="M 92.4 202.4 Q 92.4 199.8, 93.6 198.4 Q 94.9 197.0, 97.3 197.0 Q 99.6 197.0, 100.9 198.4 Q 102.2 199.8, 102.2 202.4 Q 102.2 205.0, 100.9 206.5 Q 99.6 207.9, 97.3 207.9 Q 94.9 207.9, 93.6 206.5 Q 92.4 205.0, 92.4 202.4 M 97.3 206.7 Q 98.9 206.7, 99.8 205.6 Q 100.7 204.5, 100.7 202.4 Q 100.7 200.3, 99.8 199.2 Q 98.9 198.2, 97.3 198.2 Q 95.6 198.2, 94.8 199.2 Q 93.9 200.3, 93.9 202.4 Q 93.9 204.5, 94.8 205.6 Q 95.6 206.7, 97.3 206.7 " fill="#FF0000"/>
<path class="atom-10" d="M 167.6 207.9 Q 167.6 205.3, 168.9 203.9 Q 170.2 202.4, 172.5 202.4 Q 174.9 202.4, 176.2 203.9 Q 177.4 205.3, 177.4 207.9 Q 177.4 210.5, 176.2 212.0 Q 174.9 213.4, 172.5 213.4 Q 170.2 213.4, 168.9 212.0 Q 167.6 210.5, 167.6 207.9 M 172.5 212.2 Q 174.2 212.2, 175.0 211.1 Q 175.9 210.0, 175.9 207.9 Q 175.9 205.8, 175.0 204.7 Q 174.2 203.7, 172.5 203.7 Q 170.9 203.7, 170.0 204.7 Q 169.1 205.8, 169.1 207.9 Q 169.1 210.0, 170.0 211.1 Q 170.9 212.2, 172.5 212.2 " fill="#FF0000"/>
<path class="atom-10" d="M 179.1 202.6 L 180.6 202.6 L 180.6 207.1 L 186.0 207.1 L 186.0 202.6 L 187.5 202.6 L 187.5 213.3 L 186.0 213.3 L 186.0 208.3 L 180.6 208.3 L 180.6 213.3 L 179.1 213.3 L 179.1 202.6 " fill="#FF0000"/>
<path class="atom-11" d="M 231.2 114.2 Q 231.2 111.7, 232.5 110.2 Q 233.8 108.8, 236.1 108.8 Q 238.5 108.8, 239.8 110.2 Q 241.0 111.7, 241.0 114.2 Q 241.0 116.8, 239.8 118.3 Q 238.5 119.8, 236.1 119.8 Q 233.8 119.8, 232.5 118.3 Q 231.2 116.8, 231.2 114.2 M 236.1 118.6 Q 237.8 118.6, 238.6 117.5 Q 239.5 116.4, 239.5 114.2 Q 239.5 112.1, 238.6 111.1 Q 237.8 110.0, 236.1 110.0 Q 234.5 110.0, 233.6 111.1 Q 232.7 112.1, 232.7 114.2 Q 232.7 116.4, 233.6 117.5 Q 234.5 118.6, 236.1 118.6 " fill="#FF0000"/>
<path class="atom-11" d="M 242.7 108.9 L 244.1 108.9 L 244.1 113.5 L 249.6 113.5 L 249.6 108.9 L 251.1 108.9 L 251.1 119.6 L 249.6 119.6 L 249.6 114.7 L 244.1 114.7 L 244.1 119.6 L 242.7 119.6 L 242.7 108.9 " fill="#FF0000"/>
<path class="note" d="M 196.7 139.3 Q 195.7 139.3, 195.2 138.5 Q 194.7 137.8, 194.7 136.5 Q 194.7 135.2, 195.2 134.5 Q 195.7 133.8, 196.7 133.8 Q 197.7 133.8, 198.1 134.5 Q 198.6 135.2, 198.6 136.5 Q 198.6 137.8, 198.1 138.5 Q 197.6 139.3, 196.7 139.3 M 196.7 138.7 Q 197.2 138.7, 197.6 138.1 Q 197.9 137.6, 197.9 136.5 Q 197.9 135.5, 197.6 134.9 Q 197.2 134.4, 196.7 134.4 Q 196.1 134.4, 195.8 134.9 Q 195.5 135.5, 195.5 136.5 Q 195.5 137.6, 195.8 138.1 Q 196.1 138.7, 196.7 138.7 " fill="#000000"/>
<path class="note" d="M 171.6 164.6 L 172.8 164.6 L 172.8 160.6 L 171.5 161.0 L 171.3 160.6 L 173.0 159.8 L 173.5 159.9 L 173.5 164.6 L 174.6 164.6 L 174.6 165.2 L 171.6 165.2 L 171.6 164.6 " fill="#000000"/>
<path class="note" d="M 135.0 178.4 Q 135.1 177.9, 135.6 177.6 Q 136.1 177.3, 136.7 177.3 Q 137.5 177.3, 138.0 177.8 Q 138.4 178.2, 138.4 179.0 Q 138.4 179.8, 137.9 180.5 Q 137.3 181.3, 136.1 182.1 L 138.5 182.1 L 138.5 182.7 L 134.9 182.7 L 134.9 182.2 Q 135.9 181.5, 136.5 181.0 Q 137.1 180.5, 137.4 180.0 Q 137.7 179.5, 137.7 179.0 Q 137.7 178.5, 137.4 178.2 Q 137.2 177.9, 136.7 177.9 Q 136.3 177.9, 136.0 178.1 Q 135.7 178.3, 135.5 178.7 L 135.0 178.4 " fill="#000000"/>
<path class="note" d="M 104.2 157.3 Q 104.7 157.5, 105.0 157.8 Q 105.3 158.1, 105.3 158.7 Q 105.3 159.1, 105.0 159.5 Q 104.8 159.8, 104.4 160.0 Q 104.0 160.2, 103.4 160.2 Q 102.9 160.2, 102.4 160.0 Q 102.0 159.8, 101.7 159.4 L 102.1 159.0 Q 102.4 159.3, 102.7 159.5 Q 103.0 159.6, 103.4 159.6 Q 103.9 159.6, 104.2 159.4 Q 104.5 159.1, 104.5 158.7 Q 104.5 158.1, 104.2 157.9 Q 103.9 157.6, 103.2 157.6 L 102.8 157.6 L 102.8 157.1 L 103.2 157.1 Q 103.8 157.1, 104.1 156.8 Q 104.4 156.6, 104.4 156.1 Q 104.4 155.8, 104.1 155.6 Q 103.9 155.3, 103.4 155.3 Q 103.0 155.3, 102.7 155.5 Q 102.4 155.7, 102.2 156.1 L 101.7 155.8 Q 101.9 155.3, 102.3 155.0 Q 102.8 154.7, 103.4 154.7 Q 104.2 154.7, 104.7 155.1 Q 105.1 155.5, 105.1 156.1 Q 105.1 156.5, 104.9 156.8 Q 104.7 157.2, 104.2 157.3 " fill="#000000"/>
<path class="note" d="M 107.8 118.2 L 108.4 118.2 L 108.4 118.8 L 107.8 118.8 L 107.8 120.0 L 107.1 120.0 L 107.1 118.8 L 104.3 118.8 L 104.3 118.3 L 106.7 114.6 L 107.8 114.6 L 107.8 118.2 M 105.2 118.2 L 107.1 118.2 L 107.1 115.1 L 105.2 118.2 " fill="#000000"/>
<path class="note" d="M 108.3 91.6 Q 108.8 91.6, 109.2 91.8 Q 109.6 92.0, 109.8 92.4 Q 110.0 92.7, 110.0 93.2 Q 110.0 93.8, 109.8 94.2 Q 109.5 94.6, 109.0 94.8 Q 108.6 95.0, 108.1 95.0 Q 107.6 95.0, 107.2 94.8 Q 106.7 94.6, 106.4 94.3 L 106.9 93.8 Q 107.1 94.1, 107.4 94.2 Q 107.8 94.4, 108.1 94.4 Q 108.6 94.4, 108.9 94.1 Q 109.3 93.8, 109.3 93.3 Q 109.3 92.7, 108.9 92.4 Q 108.6 92.1, 108.1 92.1 Q 107.6 92.1, 107.1 92.4 L 106.7 92.2 L 106.9 89.6 L 109.7 89.6 L 109.6 90.2 L 107.6 90.2 L 107.4 91.8 Q 107.9 91.6, 108.3 91.6 " fill="#000000"/>
<path class="note" d="M 142.8 99.2 Q 143.3 99.2, 143.7 99.4 Q 144.0 99.6, 144.2 99.9 Q 144.4 100.3, 144.4 100.8 Q 144.4 101.3, 144.2 101.7 Q 144.0 102.1, 143.6 102.3 Q 143.2 102.6, 142.7 102.6 Q 141.7 102.6, 141.2 101.9 Q 140.7 101.3, 140.7 100.0 Q 140.7 98.6, 141.3 97.8 Q 141.9 97.1, 143.1 97.1 Q 143.4 97.1, 143.7 97.2 Q 144.0 97.2, 144.2 97.4 L 143.9 97.9 Q 143.5 97.7, 143.1 97.7 Q 142.3 97.7, 141.9 98.2 Q 141.5 98.7, 141.5 99.7 Q 141.8 99.4, 142.1 99.3 Q 142.5 99.2, 142.8 99.2 M 142.7 101.9 Q 142.9 101.9, 143.2 101.8 Q 143.4 101.6, 143.6 101.4 Q 143.7 101.1, 143.7 100.8 Q 143.7 100.3, 143.4 100.0 Q 143.2 99.8, 142.7 99.8 Q 142.4 99.8, 142.0 99.9 Q 141.7 100.0, 141.5 100.3 Q 141.5 101.1, 141.8 101.5 Q 142.1 101.9, 142.7 101.9 " fill="#000000"/>
<path class="note" d="M 83.7 141.3 L 80.9 141.3 L 80.9 140.7 L 84.4 140.7 L 84.4 141.2 L 82.3 146.0 L 81.6 146.0 L 83.7 141.3 " fill="#000000"/>
<path class="note" d="M 115.0 190.9 Q 115.4 191.1, 115.7 191.4 Q 116.0 191.7, 116.0 192.2 Q 116.0 192.7, 115.8 193.0 Q 115.5 193.4, 115.1 193.6 Q 114.7 193.8, 114.1 193.8 Q 113.3 193.8, 112.7 193.4 Q 112.2 192.9, 112.2 192.2 Q 112.2 191.8, 112.5 191.5 Q 112.7 191.1, 113.1 190.9 Q 112.8 190.7, 112.6 190.4 Q 112.4 190.1, 112.4 189.6 Q 112.4 189.0, 112.9 188.7 Q 113.3 188.3, 114.1 188.3 Q 114.9 188.3, 115.3 188.7 Q 115.8 189.0, 115.8 189.6 Q 115.8 190.0, 115.6 190.3 Q 115.4 190.6, 115.0 190.9 M 114.1 188.8 Q 113.7 188.8, 113.4 189.1 Q 113.2 189.3, 113.2 189.6 Q 113.2 189.9, 113.3 190.1 Q 113.5 190.3, 113.7 190.4 Q 114.0 190.5, 114.4 190.7 Q 114.8 190.4, 114.9 190.2 Q 115.1 190.0, 115.1 189.6 Q 115.1 189.3, 114.8 189.1 Q 114.6 188.8, 114.1 188.8 M 114.1 193.2 Q 114.6 193.2, 114.9 192.9 Q 115.2 192.7, 115.2 192.2 Q 115.2 191.9, 115.1 191.7 Q 114.9 191.6, 114.7 191.5 Q 114.5 191.4, 114.0 191.2 L 113.7 191.1 Q 113.3 191.3, 113.1 191.6 Q 113.0 191.9, 113.0 192.2 Q 113.0 192.7, 113.3 192.9 Q 113.6 193.2, 114.1 193.2 " fill="#000000"/>
<path class="note" d="M 171.1 184.9 Q 172.0 184.9, 172.5 185.5 Q 173.0 186.2, 173.0 187.5 Q 173.0 188.9, 172.4 189.6 Q 171.8 190.3, 170.6 190.3 Q 170.3 190.3, 170.0 190.3 Q 169.7 190.2, 169.5 190.0 L 169.8 189.5 Q 170.2 189.7, 170.6 189.7 Q 171.4 189.7, 171.8 189.3 Q 172.2 188.8, 172.2 187.8 Q 171.9 188.0, 171.6 188.1 Q 171.2 188.3, 170.9 188.3 Q 170.4 188.3, 170.0 188.1 Q 169.7 187.9, 169.5 187.5 Q 169.3 187.1, 169.3 186.7 Q 169.3 186.1, 169.5 185.7 Q 169.7 185.3, 170.1 185.1 Q 170.5 184.9, 171.1 184.9 M 170.0 186.7 Q 170.0 187.1, 170.3 187.4 Q 170.5 187.7, 171.0 187.7 Q 171.3 187.7, 171.7 187.5 Q 172.0 187.4, 172.2 187.2 Q 172.2 186.3, 171.9 185.9 Q 171.6 185.5, 171.1 185.5 Q 170.8 185.5, 170.5 185.6 Q 170.3 185.8, 170.2 186.1 Q 170.0 186.3, 170.0 186.7 " fill="#000000"/>
<path class="note" d="M 215.7 127.7 L 216.9 127.7 L 216.9 123.7 L 215.6 124.1 L 215.4 123.6 L 217.0 122.9 L 217.6 123.0 L 217.6 127.7 L 218.6 127.7 L 218.6 128.3 L 215.7 128.3 L 215.7 127.7 " fill="#000000"/>
<path class="note" d="M 221.2 128.3 Q 220.3 128.3, 219.8 127.6 Q 219.3 126.9, 219.3 125.6 Q 219.3 124.3, 219.8 123.6 Q 220.2 122.9, 221.2 122.9 Q 222.2 122.9, 222.7 123.6 Q 223.2 124.3, 223.2 125.6 Q 223.2 126.9, 222.7 127.6 Q 222.2 128.3, 221.2 128.3 M 221.2 127.7 Q 221.8 127.7, 222.1 127.2 Q 222.4 126.6, 222.4 125.6 Q 222.4 124.5, 222.1 124.0 Q 221.8 123.5, 221.2 123.5 Q 220.7 123.5, 220.3 124.0 Q 220.0 124.5, 220.0 125.6 Q 220.0 126.6, 220.3 127.2 Q 220.7 127.7, 221.2 127.7 " fill="#000000"/>
<path class="note" d="M 172.6 124.5 L 173.8 124.5 L 173.8 120.5 L 172.5 120.9 L 172.3 120.4 L 174.0 119.7 L 174.5 119.8 L 174.5 124.5 L 175.6 124.5 L 175.6 125.1 L 172.6 125.1 L 172.6 124.5 " fill="#000000"/>
<path class="note" d="M 176.5 124.5 L 177.7 124.5 L 177.7 120.5 L 176.4 120.9 L 176.2 120.4 L 177.8 119.7 L 178.4 119.8 L 178.4 124.5 L 179.4 124.5 L 179.4 125.1 L 176.5 125.1 L 176.5 124.5 " fill="#000000"/>
<path class="bond-0 atom-0 atom-1" d="M 396.1,103.3 L 358.9,110.2" style="fill:none;fill-rule:evenodd;stroke:#000000;stroke-width:2.0px;stroke-linecap:butt;stroke-linejoin:miter;stroke-opacity:1"/>
<path class="bond-1 atom-1 atom-2" d="M 358.9,110.2 L 354.0,147.6" style="fill:none;fill-rule:evenodd;stroke:#000000;stroke-width:2.0px;stroke-linecap:butt;stroke-linejoin:miter;stroke-opacity:1"/>
<path class="bond-2 atom-2 atom-3" d="M 354.0,147.6 L 368.0,154.2" style="fill:none;fill-rule:evenodd;stroke:#000000;stroke-width:2.0px;stroke-linecap:butt;stroke-linejoin:miter;stroke-opacity:1"/>
<path class="bond-2 atom-2 atom-3" d="M 368.0,154.2 L 382.0,160.9" style="fill:none;fill-rule:evenodd;stroke:#FF0000;stroke-width:2.0px;stroke-linecap:butt;stroke-linejoin:miter;stroke-opacity:1"/>
<path class="bond-3 atom-3 atom-4" d="M 394.3,157.3 L 404.2,146.9" style="fill:none;fill-rule:evenodd;stroke:#FF0000;stroke-width:2.0px;stroke-linecap:butt;stroke-linejoin:miter;stroke-opacity:1"/>
<path class="bond-3 atom-3 atom-4" d="M 404.2,146.9 L 414.1,136.4" style="fill:none;fill-rule:evenodd;stroke:#000000;stroke-width:2.0px;stroke-linecap:butt;stroke-linejoin:miter;stroke-opacity:1"/>
<path class="bond-4 atom-4 atom-5" d="M 417.4,137.2 L 417.5,136.5" style="fill:none;fill-rule:evenodd;stroke:#000000;stroke-width:1.0px;stroke-linecap:butt;stroke-linejoin:miter;stroke-opacity:1"/>
<path class="bond-4 atom-4 atom-5" d="M 420.8,138.0 L 421.0,136.6" style="fill:none;fill-rule:evenodd;stroke:#000000;stroke-width:1.0px;stroke-linecap:butt;stroke-linejoin:miter;stroke-opacity:1"/>
<path class="bond-4 atom-4 atom-5" d="M 424.2,138.8 L 424.5,136.7" style="fill:none;fill-rule:evenodd;stroke:#000000;stroke-width:1.0px;stroke-linecap:butt;stroke-linejoin:miter;stroke-opacity:1"/>
<path class="bond-4 atom-4 atom-5" d="M 427.6,139.6 L 428.0,136.8" style="fill:none;fill-rule:evenodd;stroke:#000000;stroke-width:1.0px;stroke-linecap:butt;stroke-linejoin:miter;stroke-opacity:1"/>
<path class="bond-4 atom-4 atom-5" d="M 431.0,140.4 L 431.4,136.9" style="fill:none;fill-rule:evenodd;stroke:#0000FF;stroke-width:1.0px;stroke-linecap:butt;stroke-linejoin:miter;stroke-opacity:1"/>
<path class="bond-4 atom-4 atom-5" d="M 434.3,141.2 L 434.9,137.0" style="fill:none;fill-rule:evenodd;stroke:#0000FF;stroke-width:1.0px;stroke-linecap:butt;stroke-linejoin:miter;stroke-opacity:1"/>
<path class="bond-4 atom-4 atom-5" d="M 437.7,142.0 L 438.4,137.1" style="fill:none;fill-rule:evenodd;stroke:#0000FF;stroke-width:1.0px;stroke-linecap:butt;stroke-linejoin:miter;stroke-opacity:1"/>
<path class="bond-4 atom-4 atom-5" d="M 441.1,142.8 L 441.8,137.2" style="fill:none;fill-rule:evenodd;stroke:#0000FF;stroke-width:1.0px;stroke-linecap:butt;stroke-linejoin:miter;stroke-opacity:1"/>
<path class="bond-5 atom-5 atom-6" d="M 454.2,147.9 L 460.1,162.1" style="fill:none;fill-rule:evenodd;stroke:#0000FF;stroke-width:2.0px;stroke-linecap:butt;stroke-linejoin:miter;stroke-opacity:1"/>
<path class="bond-5 atom-5 atom-6" d="M 460.1,162.1 L 465.9,176.2" style="fill:none;fill-rule:evenodd;stroke:#000000;stroke-width:2.0px;stroke-linecap:butt;stroke-linejoin:miter;stroke-opacity:1"/>
<path class="bond-6 atom-6 atom-7" d="M 465.9,176.2 L 482.0,178.3" style="fill:none;fill-rule:evenodd;stroke:#000000;stroke-width:2.0px;stroke-linecap:butt;stroke-linejoin:miter;stroke-opacity:1"/>
<path class="bond-6 atom-6 atom-7" d="M 482.0,178.3 L 498.0,180.4" style="fill:none;fill-rule:evenodd;stroke:#0000FF;stroke-width:2.0px;stroke-linecap:butt;stroke-linejoin:miter;stroke-opacity:1"/>
<path class="bond-6 atom-6 atom-7" d="M 469.9,171.0 L 484.3,172.9" style="fill:none;fill-rule:evenodd;stroke:#000000;stroke-width:2.0px;stroke-linecap:butt;stroke-linejoin:miter;stroke-opacity:1"/>
<path class="bond-6 atom-6 atom-7" d="M 484.3,172.9 L 498.8,174.8" style="fill:none;fill-rule:evenodd;stroke:#0000FF;stroke-width:2.0px;stroke-linecap:butt;stroke-linejoin:miter;stroke-opacity:1"/>
<path class="bond-7 atom-7 atom-8" d="M 508.4,174.5 L 517.4,162.8" style="fill:none;fill-rule:evenodd;stroke:#0000FF;stroke-width:2.0px;stroke-linecap:butt;stroke-linejoin:miter;stroke-opacity:1"/>
<path class="bond-7 atom-7 atom-8" d="M 517.4,162.8 L 526.3,151.2" style="fill:none;fill-rule:evenodd;stroke:#000000;stroke-width:2.0px;stroke-linecap:butt;stroke-linejoin:miter;stroke-opacity:1"/>
<path class="bond-8 atom-8 atom-9" d="M 526.3,151.2 L 520.4,137.0" style="fill:none;fill-rule:evenodd;stroke:#000000;stroke-width:2.0px;stroke-linecap:butt;stroke-linejoin:miter;stroke-opacity:1"/>
<path class="bond-8 atom-8 atom-9" d="M 520.4,137.0 L 514.6,122.9" style="fill:none;fill-rule:evenodd;stroke:#0000FF;stroke-width:2.0px;stroke-linecap:butt;stroke-linejoin:miter;stroke-opacity:1"/>
<path class="bond-8 atom-8 atom-9" d="M 519.8,150.3 L 514.6,137.7" style="fill:none;fill-rule:evenodd;stroke:#000000;stroke-width:2.0px;stroke-linecap:butt;stroke-linejoin:miter;stroke-opacity:1"/>
<path class="bond-8 atom-8 atom-9" d="M 514.6,137.7 L 509.4,125.1" style="fill:none;fill-rule:evenodd;stroke:#0000FF;stroke-width:2.0px;stroke-linecap:butt;stroke-linejoin:miter;stroke-opacity:1"/>
<path class="bond-9 atom-9 atom-10" d="M 506.6,115.6 L 490.5,113.5" style="fill:none;fill-rule:evenodd;stroke:#0000FF;stroke-width:2.0px;stroke-linecap:butt;stroke-linejoin:miter;stroke-opacity:1"/>
<path class="bond-9 atom-9 atom-10" d="M 490.5,113.5 L 474.4,111.4" style="fill:none;fill-rule:evenodd;stroke:#000000;stroke-width:2.0px;stroke-linecap:butt;stroke-linejoin:miter;stroke-opacity:1"/>
<path class="bond-10 atom-10 atom-11" d="M 477.7,111.8 L 471.6,97.0" style="fill:none;fill-rule:evenodd;stroke:#000000;stroke-width:2.0px;stroke-linecap:butt;stroke-linejoin:miter;stroke-opacity:1"/>
<path class="bond-10 atom-10 atom-11" d="M 471.6,97.0 L 465.4,82.3" style="fill:none;fill-rule:evenodd;stroke:#FF0000;stroke-width:2.0px;stroke-linecap:butt;stroke-linejoin:miter;stroke-opacity:1"/>
<path class="bond-10 atom-10 atom-11" d="M 472.5,114.0 L 466.3,99.2" style="fill:none;fill-rule:evenodd;stroke:#000000;stroke-width:2.0px;stroke-linecap:butt;stroke-linejoin:miter;stroke-opacity:1"/>
<path class="bond-10 atom-10 atom-11" d="M 466.3,99.2 L 460.2,84.4" style="fill:none;fill-rule:evenodd;stroke:#FF0000;stroke-width:2.0px;stroke-linecap:butt;stroke-linejoin:miter;stroke-opacity:1"/>
<path class="bond-11 atom-8 atom-12" d="M 526.3,151.2 L 542.4,153.3" style="fill:none;fill-rule:evenodd;stroke:#000000;stroke-width:2.0px;stroke-linecap:butt;stroke-linejoin:miter;stroke-opacity:1"/>
<path class="bond-11 atom-8 atom-12" d="M 542.4,153.3 L 558.4,155.4" style="fill:none;fill-rule:evenodd;stroke:#0000FF;stroke-width:2.0px;stroke-linecap:butt;stroke-linejoin:miter;stroke-opacity:1"/>
<path class="bond-12 atom-2 atom-13" d="M 350.9,149.0 L 351.2,149.5" style="fill:none;fill-rule:evenodd;stroke:#000000;stroke-width:1.0px;stroke-linecap:butt;stroke-linejoin:miter;stroke-opacity:1"/>
<path class="bond-12 atom-2 atom-13" d="M 347.7,150.3 L 348.3,151.3" style="fill:none;fill-rule:evenodd;stroke:#000000;stroke-width:1.0px;stroke-linecap:butt;stroke-linejoin:miter;stroke-opacity:1"/>
<path class="bond-12 atom-2 atom-13" d="M 344.6,151.7 L 345.4,153.2" style="fill:none;fill-rule:evenodd;stroke:#000000;stroke-width:1.0px;stroke-linecap:butt;stroke-linejoin:miter;stroke-opacity:1"/>
<path class="bond-12 atom-2 atom-13" d="M 341.4,153.1 L 342.5,155.1" style="fill:none;fill-rule:evenodd;stroke:#000000;stroke-width:1.0px;stroke-linecap:butt;stroke-linejoin:miter;stroke-opacity:1"/>
<path class="bond-12 atom-2 atom-13" d="M 338.3,154.5 L 339.6,157.0" style="fill:none;fill-rule:evenodd;stroke:#000000;stroke-width:1.0px;stroke-linecap:butt;stroke-linejoin:miter;stroke-opacity:1"/>
<path class="bond-12 atom-2 atom-13" d="M 335.2,155.9 L 336.8,158.9" style="fill:none;fill-rule:evenodd;stroke:#000000;stroke-width:1.0px;stroke-linecap:butt;stroke-linejoin:miter;stroke-opacity:1"/>
<path class="bond-12 atom-2 atom-13" d="M 332.0,157.3 L 333.9,160.8" style="fill:none;fill-rule:evenodd;stroke:#000000;stroke-width:1.0px;stroke-linecap:butt;stroke-linejoin:miter;stroke-opacity:1"/>
<path class="bond-12 atom-2 atom-13" d="M 328.9,158.7 L 331.0,162.6" style="fill:none;fill-rule:evenodd;stroke:#000000;stroke-width:1.0px;stroke-linecap:butt;stroke-linejoin:miter;stroke-opacity:1"/>
<path class="bond-12 atom-2 atom-13" d="M 325.7,160.1 L 328.1,164.5" style="fill:none;fill-rule:evenodd;stroke:#000000;stroke-width:1.0px;stroke-linecap:butt;stroke-linejoin:miter;stroke-opacity:1"/>
<path class="bond-12 atom-2 atom-13" d="M 322.6,161.4 L 325.3,166.4" style="fill:none;fill-rule:evenodd;stroke:#000000;stroke-width:1.0px;stroke-linecap:butt;stroke-linejoin:miter;stroke-opacity:1"/>
<path class="bond-13 atom-13 atom-14" d="M 320.9,165.6 L 320.5,181.1" style="fill:none;fill-rule:evenodd;stroke:#000000;stroke-width:2.0px;stroke-linecap:butt;stroke-linejoin:miter;stroke-opacity:1"/>
<path class="bond-13 atom-13 atom-14" d="M 320.5,181.1 L 320.1,196.7" style="fill:none;fill-rule:evenodd;stroke:#FF0000;stroke-width:2.0px;stroke-linecap:butt;stroke-linejoin:miter;stroke-opacity:1"/>
<path class="bond-14 atom-1 atom-15" d="M 358.9,110.2 L 348.0,101.7 L 349.9,99.6 Z" style="fill:#000000;fill-rule:evenodd;fill-opacity:1;stroke:#000000;stroke-width:0.5px;stroke-linecap:butt;stroke-linejoin:miter;stroke-opacity:1;"/>
<path class="bond-14 atom-1 atom-15" d="M 348.0,101.7 L 340.9,89.1 L 337.0,93.3 Z" style="fill:#FF0000;fill-rule:evenodd;fill-opacity:1;stroke:#FF0000;stroke-width:0.5px;stroke-linecap:butt;stroke-linejoin:miter;stroke-opacity:1;"/>
<path class="bond-14 atom-1 atom-15" d="M 348.0,101.7 L 349.9,99.6 L 340.9,89.1 Z" style="fill:#FF0000;fill-rule:evenodd;fill-opacity:1;stroke:#FF0000;stroke-width:0.5px;stroke-linecap:butt;stroke-linejoin:miter;stroke-opacity:1;"/>
<path class="bond-15 atom-4 atom-0" d="M 414.1,136.4 L 396.1,103.3" style="fill:none;fill-rule:evenodd;stroke:#000000;stroke-width:2.0px;stroke-linecap:butt;stroke-linejoin:miter;stroke-opacity:1"/>
<path class="bond-16 atom-10 atom-5" d="M 474.4,111.4 L 465.5,123.1" style="fill:none;fill-rule:evenodd;stroke:#000000;stroke-width:2.0px;stroke-linecap:butt;stroke-linejoin:miter;stroke-opacity:1"/>
<path class="bond-16 atom-10 atom-5" d="M 465.5,123.1 L 456.5,134.7" style="fill:none;fill-rule:evenodd;stroke:#0000FF;stroke-width:2.0px;stroke-linecap:butt;stroke-linejoin:miter;stroke-opacity:1"/>
<path d="M 394.2,103.6 L 396.1,103.3 L 397.0,104.9" style="fill:none;stroke:#000000;stroke-width:2.0px;stroke-linecap:butt;stroke-linejoin:miter;stroke-opacity:1;"/>
<path d="M 360.8,109.8 L 358.9,110.2 L 358.7,112.0" style="fill:none;stroke:#000000;stroke-width:2.0px;stroke-linecap:butt;stroke-linejoin:miter;stroke-opacity:1;"/>
<path d="M 354.3,145.7 L 354.0,147.6 L 354.7,147.9" style="fill:none;stroke:#000000;stroke-width:2.0px;stroke-linecap:butt;stroke-linejoin:miter;stroke-opacity:1;"/>
<path d="M 413.6,136.9 L 414.1,136.4 L 413.2,134.8" style="fill:none;stroke:#000000;stroke-width:2.0px;stroke-linecap:butt;stroke-linejoin:miter;stroke-opacity:1;"/>
<path d="M 465.6,175.5 L 465.9,176.2 L 466.7,176.3" style="fill:none;stroke:#000000;stroke-width:2.0px;stroke-linecap:butt;stroke-linejoin:miter;stroke-opacity:1;"/>
<path d="M 475.2,111.5 L 474.4,111.4 L 474.0,112.0" style="fill:none;stroke:#000000;stroke-width:2.0px;stroke-linecap:butt;stroke-linejoin:miter;stroke-opacity:1;"/>
<path class="atom-3" d="M 383.2 163.8 Q 383.2 161.3, 384.5 159.8 Q 385.7 158.4, 388.1 158.4 Q 390.5 158.4, 391.7 159.8 Q 393.0 161.3, 393.0 163.8 Q 393.0 166.4, 391.7 167.9 Q 390.4 169.4, 388.1 169.4 Q 385.7 169.4, 384.5 167.9 Q 383.2 166.4, 383.2 163.8 M 388.1 168.2 Q 389.7 168.2, 390.6 167.1 Q 391.5 166.0, 391.5 163.8 Q 391.5 161.7, 390.6 160.7 Q 389.7 159.6, 388.1 159.6 Q 386.5 159.6, 385.6 160.7 Q 384.7 161.7, 384.7 163.8 Q 384.7 166.0, 385.6 167.1 Q 386.5 168.2, 388.1 168.2 " fill="#FF0000"/>
<path class="atom-5" d="M 449.1 136.0 L 452.6 141.6 Q 453.0 142.2, 453.5 143.2 Q 454.1 144.2, 454.1 144.3 L 454.1 136.0 L 455.5 136.0 L 455.5 146.7 L 454.1 146.7 L 450.3 140.5 Q 449.9 139.8, 449.4 138.9 Q 449.0 138.1, 448.8 137.8 L 448.8 146.7 L 447.4 146.7 L 447.4 136.0 L 449.1 136.0 " fill="#0000FF"/>
<path class="atom-7" d="M 501.0 175.8 L 504.5 181.4 Q 504.8 182.0, 505.4 183.0 Q 505.9 184.0, 506.0 184.1 L 506.0 175.8 L 507.4 175.8 L 507.4 186.4 L 505.9 186.4 L 502.2 180.3 Q 501.7 179.5, 501.3 178.7 Q 500.8 177.9, 500.7 177.6 L 500.7 186.4 L 499.3 186.4 L 499.3 175.8 L 501.0 175.8 " fill="#0000FF"/>
<path class="atom-9" d="M 509.5 111.0 L 513.0 116.6 Q 513.3 117.2, 513.9 118.2 Q 514.5 119.2, 514.5 119.3 L 514.5 111.0 L 515.9 111.0 L 515.9 121.6 L 514.4 121.6 L 510.7 115.5 Q 510.2 114.7, 509.8 113.9 Q 509.3 113.1, 509.2 112.8 L 509.2 121.6 L 507.8 121.6 L 507.8 111.0 L 509.5 111.0 " fill="#0000FF"/>
<path class="atom-11" d="M 455.1 76.6 Q 455.1 74.0, 456.4 72.6 Q 457.6 71.1, 460.0 71.1 Q 462.4 71.1, 463.6 72.6 Q 464.9 74.0, 464.9 76.6 Q 464.9 79.2, 463.6 80.6 Q 462.3 82.1, 460.0 82.1 Q 457.6 82.1, 456.4 80.6 Q 455.1 79.2, 455.1 76.6 M 460.0 80.9 Q 461.6 80.9, 462.5 79.8 Q 463.4 78.7, 463.4 76.6 Q 463.4 74.5, 462.5 73.4 Q 461.6 72.3, 460.0 72.3 Q 458.4 72.3, 457.5 73.4 Q 456.6 74.4, 456.6 76.6 Q 456.6 78.7, 457.5 79.8 Q 458.4 80.9, 460.0 80.9 " fill="#FF0000"/>
<path class="atom-12" d="M 561.4 150.7 L 564.9 156.4 Q 565.2 156.9, 565.8 158.0 Q 566.3 159.0, 566.4 159.0 L 566.4 150.7 L 567.8 150.7 L 567.8 161.4 L 566.3 161.4 L 562.6 155.2 Q 562.1 154.5, 561.6 153.7 Q 561.2 152.8, 561.1 152.6 L 561.1 161.4 L 559.7 161.4 L 559.7 150.7 L 561.4 150.7 " fill="#0000FF"/>
<path class="atom-12" d="M 569.8 150.7 L 571.3 150.7 L 571.3 155.3 L 576.7 155.3 L 576.7 150.7 L 578.2 150.7 L 578.2 161.4 L 576.7 161.4 L 576.7 156.5 L 571.3 156.5 L 571.3 161.4 L 569.8 161.4 L 569.8 150.7 " fill="#0000FF"/>
<path class="atom-12" d="M 580.3 161.0 Q 580.5 160.4, 581.1 160.0 Q 581.8 159.6, 582.6 159.6 Q 583.7 159.6, 584.3 160.2 Q 584.9 160.8, 584.9 161.8 Q 584.9 162.9, 584.1 163.8 Q 583.3 164.8, 581.7 166.0 L 585.0 166.0 L 585.0 166.8 L 580.2 166.8 L 580.2 166.1 Q 581.6 165.2, 582.3 164.5 Q 583.1 163.8, 583.5 163.1 Q 583.9 162.5, 583.9 161.9 Q 583.9 161.2, 583.5 160.8 Q 583.2 160.4, 582.6 160.4 Q 582.1 160.4, 581.7 160.7 Q 581.3 160.9, 581.0 161.4 L 580.3 161.0 " fill="#0000FF"/>
<path class="atom-14" d="M 315.0 203.3 Q 315.0 200.8, 316.3 199.3 Q 317.5 197.9, 319.9 197.9 Q 322.3 197.9, 323.5 199.3 Q 324.8 200.8, 324.8 203.3 Q 324.8 205.9, 323.5 207.4 Q 322.2 208.9, 319.9 208.9 Q 317.6 208.9, 316.3 207.4 Q 315.0 205.9, 315.0 203.3 M 319.9 207.7 Q 321.5 207.7, 322.4 206.6 Q 323.3 205.5, 323.3 203.3 Q 323.3 201.2, 322.4 200.2 Q 321.5 199.1, 319.9 199.1 Q 318.3 199.1, 317.4 200.2 Q 316.5 201.2, 316.5 203.3 Q 316.5 205.5, 317.4 206.6 Q 318.3 207.7, 319.9 207.7 " fill="#FF0000"/>
<path class="atom-14" d="M 326.5 198.0 L 327.9 198.0 L 327.9 202.6 L 333.4 202.6 L 333.4 198.0 L 334.8 198.0 L 334.8 208.7 L 333.4 208.7 L 333.4 203.8 L 327.9 203.8 L 327.9 208.7 L 326.5 208.7 L 326.5 198.0 " fill="#FF0000"/>
<path class="atom-15" d="M 316.1 78.9 L 317.6 78.9 L 317.6 83.4 L 323.0 83.4 L 323.0 78.9 L 324.5 78.9 L 324.5 89.6 L 323.0 89.6 L 323.0 84.7 L 317.6 84.7 L 317.6 89.6 L 316.1 89.6 L 316.1 78.9 " fill="#FF0000"/>
<path class="atom-15" d="M 326.7 84.2 Q 326.7 81.7, 327.9 80.2 Q 329.2 78.8, 331.6 78.8 Q 333.9 78.8, 335.2 80.2 Q 336.5 81.7, 336.5 84.2 Q 336.5 86.8, 335.2 88.3 Q 333.9 89.8, 331.6 89.8 Q 329.2 89.8, 327.9 88.3 Q 326.7 86.8, 326.7 84.2 M 331.6 88.5 Q 333.2 88.5, 334.1 87.5 Q 335.0 86.4, 335.0 84.2 Q 335.0 82.1, 334.1 81.1 Q 333.2 80.0, 331.6 80.0 Q 329.9 80.0, 329.0 81.0 Q 328.2 82.1, 328.2 84.2 Q 328.2 86.4, 329.0 87.5 Q 329.9 88.5, 331.6 88.5 " fill="#FF0000"/>
<path class="note" d="M 378.9 116.9 Q 377.9 116.9, 377.4 116.2 Q 376.9 115.4, 376.9 114.2 Q 376.9 112.9, 377.4 112.1 Q 377.9 111.4, 378.9 111.4 Q 379.9 111.4, 380.3 112.1 Q 380.8 112.9, 380.8 114.2 Q 380.8 115.4, 380.3 116.2 Q 379.9 116.9, 378.9 116.9 M 378.9 116.3 Q 379.5 116.3, 379.8 115.8 Q 380.1 115.2, 380.1 114.2 Q 380.1 113.1, 379.8 112.6 Q 379.5 112.0, 378.9 112.0 Q 378.3 112.0, 378.0 112.6 Q 377.7 113.1, 377.7 114.2 Q 377.7 115.2, 378.0 115.8 Q 378.3 116.3, 378.9 116.3 " fill="#000000"/>
<path class="note" d="M 358.9 131.4 L 360.1 131.4 L 360.1 127.4 L 358.8 127.8 L 358.6 127.4 L 360.3 126.7 L 360.8 126.8 L 360.8 131.4 L 361.8 131.4 L 361.8 132.0 L 358.9 132.0 L 358.9 131.4 " fill="#000000"/>
<path class="note" d="M 372.5 147.2 Q 372.7 146.7, 373.2 146.5 Q 373.7 146.2, 374.3 146.2 Q 375.1 146.2, 375.6 146.6 Q 376.0 147.0, 376.0 147.8 Q 376.0 148.6, 375.4 149.4 Q 374.9 150.1, 373.6 151.0 L 376.1 151.0 L 376.1 151.6 L 372.5 151.6 L 372.5 151.1 Q 373.5 150.4, 374.1 149.8 Q 374.7 149.3, 375.0 148.8 Q 375.3 148.3, 375.3 147.9 Q 375.3 147.3, 375.0 147.1 Q 374.8 146.8, 374.3 146.8 Q 373.9 146.8, 373.6 146.9 Q 373.3 147.1, 373.1 147.5 L 372.5 147.2 " fill="#000000"/>
<path class="note" d="M 396.4 144.8 Q 396.9 145.0, 397.1 145.3 Q 397.4 145.6, 397.4 146.2 Q 397.4 146.6, 397.2 147.0 Q 397.0 147.3, 396.5 147.5 Q 396.1 147.7, 395.6 147.7 Q 395.0 147.7, 394.6 147.5 Q 394.2 147.3, 393.8 146.9 L 394.2 146.4 Q 394.6 146.8, 394.9 147.0 Q 395.1 147.1, 395.6 147.1 Q 396.1 147.1, 396.4 146.8 Q 396.6 146.6, 396.6 146.1 Q 396.6 145.6, 396.3 145.4 Q 396.0 145.1, 395.4 145.1 L 395.0 145.1 L 395.0 144.6 L 395.3 144.6 Q 395.9 144.6, 396.2 144.3 Q 396.5 144.1, 396.5 143.6 Q 396.5 143.2, 396.3 143.0 Q 396.0 142.8, 395.6 142.8 Q 395.1 142.8, 394.9 143.0 Q 394.6 143.1, 394.4 143.5 L 393.9 143.3 Q 394.0 142.8, 394.5 142.5 Q 395.0 142.2, 395.6 142.2 Q 396.4 142.2, 396.8 142.6 Q 397.3 143.0, 397.3 143.6 Q 397.3 144.0, 397.1 144.3 Q 396.8 144.6, 396.4 144.8 " fill="#000000"/>
<path class="note" d="M 435.2 132.2 L 435.8 132.2 L 435.8 132.8 L 435.2 132.8 L 435.2 134.1 L 434.5 134.1 L 434.5 132.8 L 431.7 132.8 L 431.7 132.4 L 434.0 128.7 L 435.2 128.7 L 435.2 132.2 M 432.6 132.2 L 434.5 132.2 L 434.5 129.2 L 432.6 132.2 " fill="#000000"/>
<path class="note" d="M 465.8 155.2 Q 466.3 155.2, 466.7 155.4 Q 467.0 155.6, 467.3 156.0 Q 467.5 156.3, 467.5 156.9 Q 467.5 157.4, 467.2 157.8 Q 466.9 158.2, 466.5 158.4 Q 466.1 158.6, 465.6 158.6 Q 465.1 158.6, 464.6 158.4 Q 464.2 158.2, 463.9 157.9 L 464.3 157.4 Q 464.6 157.7, 464.9 157.8 Q 465.3 158.0, 465.6 158.0 Q 466.1 158.0, 466.4 157.7 Q 466.7 157.4, 466.7 156.9 Q 466.7 156.3, 466.4 156.0 Q 466.1 155.8, 465.6 155.8 Q 465.1 155.8, 464.6 156.0 L 464.1 155.8 L 464.4 153.2 L 467.2 153.2 L 467.1 153.8 L 465.0 153.8 L 464.9 155.4 Q 465.3 155.2, 465.8 155.2 " fill="#000000"/>
<path class="note" d="M 483.9 185.5 Q 484.4 185.5, 484.7 185.7 Q 485.1 185.9, 485.3 186.3 Q 485.5 186.6, 485.5 187.1 Q 485.5 187.6, 485.3 188.0 Q 485.0 188.4, 484.6 188.7 Q 484.2 188.9, 483.7 188.9 Q 482.8 188.9, 482.3 188.2 Q 481.8 187.6, 481.8 186.3 Q 481.8 184.9, 482.4 184.2 Q 483.0 183.4, 484.1 183.4 Q 484.5 183.4, 484.7 183.5 Q 485.0 183.6, 485.3 183.7 L 485.0 184.2 Q 484.6 184.0, 484.1 184.0 Q 483.4 184.0, 483.0 184.5 Q 482.6 185.0, 482.6 186.0 Q 482.8 185.8, 483.2 185.6 Q 483.5 185.5, 483.9 185.5 M 483.7 188.3 Q 484.0 188.3, 484.2 188.1 Q 484.5 188.0, 484.6 187.7 Q 484.8 187.4, 484.8 187.1 Q 484.8 186.6, 484.5 186.4 Q 484.2 186.1, 483.8 186.1 Q 483.4 186.1, 483.1 186.2 Q 482.8 186.4, 482.6 186.6 Q 482.6 187.5, 482.9 187.9 Q 483.2 188.3, 483.7 188.3 " fill="#000000"/>
<path class="note" d="M 509.9 159.5 L 507.1 159.5 L 507.1 158.9 L 510.6 158.9 L 510.6 159.4 L 508.5 164.2 L 507.7 164.2 L 509.9 159.5 " fill="#000000"/>
<path class="note" d="M 526.9 130.7 Q 527.4 130.9, 527.7 131.2 Q 527.9 131.5, 527.9 132.1 Q 527.9 132.5, 527.7 132.9 Q 527.5 133.2, 527.0 133.4 Q 526.6 133.6, 526.1 133.6 Q 525.2 133.6, 524.7 133.2 Q 524.2 132.8, 524.2 132.1 Q 524.2 131.6, 524.4 131.3 Q 524.6 131.0, 525.1 130.7 Q 524.7 130.5, 524.6 130.3 Q 524.4 130.0, 524.4 129.5 Q 524.4 128.9, 524.8 128.5 Q 525.3 128.1, 526.1 128.1 Q 526.8 128.1, 527.3 128.5 Q 527.7 128.9, 527.7 129.5 Q 527.7 129.9, 527.5 130.2 Q 527.3 130.5, 526.9 130.7 M 526.1 128.7 Q 525.6 128.7, 525.4 128.9 Q 525.1 129.1, 525.1 129.5 Q 525.1 129.8, 525.3 130.0 Q 525.4 130.2, 525.7 130.3 Q 525.9 130.4, 526.4 130.5 Q 526.7 130.3, 526.8 130.1 Q 527.0 129.8, 527.0 129.5 Q 527.0 129.1, 526.7 128.9 Q 526.5 128.7, 526.1 128.7 M 526.1 133.1 Q 526.6 133.1, 526.9 132.8 Q 527.2 132.5, 527.2 132.1 Q 527.2 131.8, 527.0 131.6 Q 526.9 131.4, 526.6 131.3 Q 526.4 131.2, 526.0 131.1 L 525.6 131.0 Q 525.3 131.2, 525.1 131.5 Q 524.9 131.7, 524.9 132.1 Q 524.9 132.5, 525.2 132.8 Q 525.6 133.1, 526.1 133.1 " fill="#000000"/>
<path class="note" d="M 492.1 118.6 Q 493.1 118.6, 493.5 119.3 Q 494.0 119.9, 494.0 121.2 Q 494.0 122.6, 493.4 123.4 Q 492.8 124.1, 491.7 124.1 Q 491.4 124.1, 491.1 124.0 Q 490.8 123.9, 490.5 123.8 L 490.8 123.3 Q 491.2 123.5, 491.7 123.5 Q 492.4 123.5, 492.8 123.0 Q 493.2 122.5, 493.3 121.5 Q 493.0 121.8, 492.6 121.9 Q 492.3 122.0, 491.9 122.0 Q 491.5 122.0, 491.1 121.8 Q 490.7 121.6, 490.5 121.2 Q 490.3 120.9, 490.3 120.4 Q 490.3 119.9, 490.5 119.5 Q 490.8 119.1, 491.2 118.9 Q 491.6 118.6, 492.1 118.6 M 491.1 120.4 Q 491.1 120.9, 491.3 121.1 Q 491.6 121.4, 492.1 121.4 Q 492.4 121.4, 492.7 121.3 Q 493.0 121.2, 493.3 120.9 Q 493.2 120.0, 492.9 119.6 Q 492.7 119.2, 492.1 119.2 Q 491.8 119.2, 491.6 119.4 Q 491.3 119.5, 491.2 119.8 Q 491.1 120.1, 491.1 120.4 " fill="#000000"/>
<path class="note" d="M 453.1 100.4 L 454.3 100.4 L 454.3 96.4 L 453.0 96.8 L 452.9 96.4 L 454.5 95.6 L 455.0 95.7 L 455.0 100.4 L 456.1 100.4 L 456.1 101.0 L 453.1 101.0 L 453.1 100.4 " fill="#000000"/>
<path class="note" d="M 458.7 101.1 Q 457.7 101.1, 457.2 100.3 Q 456.8 99.6, 456.8 98.3 Q 456.8 97.0, 457.2 96.3 Q 457.7 95.6, 458.7 95.6 Q 459.7 95.6, 460.2 96.3 Q 460.7 97.0, 460.7 98.3 Q 460.7 99.6, 460.2 100.3 Q 459.7 101.1, 458.7 101.1 M 458.7 100.5 Q 459.3 100.5, 459.6 99.9 Q 459.9 99.4, 459.9 98.3 Q 459.9 97.3, 459.6 96.7 Q 459.3 96.2, 458.7 96.2 Q 458.1 96.2, 457.8 96.7 Q 457.5 97.3, 457.5 98.3 Q 457.5 99.4, 457.8 99.9 Q 458.1 100.5, 458.7 100.5 " fill="#000000"/>
<path class="note" d="M 542.7 148.2 L 543.9 148.2 L 543.9 144.2 L 542.6 144.6 L 542.5 144.2 L 544.1 143.4 L 544.6 143.5 L 544.6 148.2 L 545.7 148.2 L 545.7 148.8 L 542.7 148.8 L 542.7 148.2 " fill="#000000"/>
<path class="note" d="M 546.6 148.2 L 547.8 148.2 L 547.8 144.2 L 546.5 144.6 L 546.3 144.2 L 548.0 143.4 L 548.5 143.5 L 548.5 148.2 L 549.5 148.2 L 549.5 148.8 L 546.6 148.8 L 546.6 148.2 " fill="#000000"/>
<path class="note" d="M 337.6 165.3 L 338.8 165.3 L 338.8 161.3 L 337.5 161.7 L 337.3 161.3 L 339.0 160.5 L 339.5 160.6 L 339.5 165.3 L 340.5 165.3 L 340.5 165.9 L 337.6 165.9 L 337.6 165.3 " fill="#000000"/>
<path class="note" d="M 341.2 161.6 Q 341.4 161.1, 341.9 160.8 Q 342.3 160.5, 343.0 160.5 Q 343.8 160.5, 344.3 160.9 Q 344.7 161.4, 344.7 162.2 Q 344.7 162.9, 344.1 163.7 Q 343.5 164.4, 342.3 165.3 L 344.8 165.3 L 344.8 165.9 L 341.2 165.9 L 341.2 165.4 Q 342.2 164.7, 342.8 164.2 Q 343.4 163.6, 343.7 163.2 Q 344.0 162.7, 344.0 162.2 Q 344.0 161.7, 343.7 161.4 Q 343.4 161.1, 343.0 161.1 Q 342.6 161.1, 342.3 161.3 Q 342.0 161.5, 341.8 161.8 L 341.2 161.6 " fill="#000000"/>
<path class="note" d="M 324.5 186.7 L 325.7 186.7 L 325.7 182.7 L 324.4 183.1 L 324.2 182.7 L 325.8 182.0 L 326.4 182.1 L 326.4 186.7 L 327.4 186.7 L 327.4 187.3 L 324.5 187.3 L 324.5 186.7 " fill="#000000"/>
<path class="note" d="M 330.6 184.5 Q 331.2 184.7, 331.4 185.0 Q 331.7 185.3, 331.7 185.9 Q 331.7 186.3, 331.4 186.7 Q 331.2 187.0, 330.8 187.2 Q 330.4 187.4, 329.8 187.4 Q 329.3 187.4, 328.8 187.2 Q 328.4 187.0, 328.1 186.6 L 328.5 186.2 Q 328.8 186.5, 329.1 186.7 Q 329.4 186.8, 329.8 186.8 Q 330.3 186.8, 330.6 186.6 Q 330.9 186.3, 330.9 185.9 Q 330.9 185.3, 330.6 185.1 Q 330.3 184.8, 329.7 184.8 L 329.3 184.8 L 329.3 184.3 L 329.6 184.3 Q 330.2 184.3, 330.5 184.0 Q 330.8 183.8, 330.8 183.3 Q 330.8 183.0, 330.5 182.8 Q 330.3 182.5, 329.9 182.5 Q 329.4 182.5, 329.1 182.7 Q 328.9 182.9, 328.6 183.3 L 328.1 183.0 Q 328.3 182.5, 328.8 182.2 Q 329.2 181.9, 329.9 181.9 Q 330.6 181.9, 331.1 182.3 Q 331.6 182.7, 331.6 183.3 Q 331.6 183.7, 331.3 184.0 Q 331.1 184.4, 330.6 184.5 " fill="#000000"/>
<path class="note" d="M 333.8 107.5 L 334.9 107.5 L 334.9 103.5 L 333.6 103.9 L 333.5 103.4 L 335.1 102.7 L 335.6 102.8 L 335.6 107.5 L 336.7 107.5 L 336.7 108.1 L 333.8 108.1 L 333.8 107.5 " fill="#000000"/>
<path class="note" d="M 340.8 106.2 L 341.5 106.2 L 341.5 106.8 L 340.8 106.8 L 340.8 108.1 L 340.1 108.1 L 340.1 106.8 L 337.4 106.8 L 337.4 106.4 L 339.7 102.7 L 340.8 102.7 L 340.8 106.2 M 338.2 106.2 L 340.1 106.2 L 340.1 103.2 L 338.2 106.2 " fill="#000000"/>
<path class="note" d="M 395.0 125.5 L 396.1 125.5 L 396.1 121.5 L 394.9 121.9 L 394.7 121.5 L 396.3 120.8 L 396.9 120.8 L 396.9 125.5 L 397.9 125.5 L 397.9 126.1 L 395.0 126.1 L 395.0 125.5 " fill="#000000"/>
<path class="note" d="M 400.5 122.8 Q 401.0 122.8, 401.4 123.0 Q 401.7 123.2, 402.0 123.6 Q 402.2 123.9, 402.2 124.4 Q 402.2 125.0, 401.9 125.4 Q 401.6 125.8, 401.2 126.0 Q 400.8 126.2, 400.3 126.2 Q 399.8 126.2, 399.3 126.0 Q 398.9 125.8, 398.6 125.5 L 399.0 125.0 Q 399.3 125.3, 399.6 125.4 Q 399.9 125.6, 400.3 125.6 Q 400.8 125.6, 401.1 125.3 Q 401.4 125.0, 401.4 124.5 Q 401.4 123.9, 401.1 123.6 Q 400.8 123.4, 400.2 123.4 Q 399.8 123.4, 399.3 123.6 L 398.8 123.4 L 399.1 120.8 L 401.8 120.8 L 401.8 121.4 L 399.7 121.4 L 399.6 123.0 Q 400.0 122.8, 400.5 122.8 " fill="#000000"/>
<path class="note" d="M 465.4 133.1 L 466.6 133.1 L 466.6 129.1 L 465.3 129.5 L 465.2 129.0 L 466.8 128.3 L 467.3 128.4 L 467.3 133.1 L 468.4 133.1 L 468.4 133.7 L 465.4 133.7 L 465.4 133.1 " fill="#000000"/>
<path class="note" d="M 471.1 130.3 Q 471.6 130.3, 472.0 130.5 Q 472.3 130.7, 472.5 131.1 Q 472.7 131.5, 472.7 131.9 Q 472.7 132.5, 472.5 132.9 Q 472.3 133.3, 471.9 133.5 Q 471.5 133.7, 470.9 133.7 Q 470.0 133.7, 469.5 133.1 Q 469.0 132.4, 469.0 131.1 Q 469.0 129.7, 469.6 129.0 Q 470.2 128.3, 471.4 128.3 Q 471.7 128.3, 472.0 128.3 Q 472.3 128.4, 472.5 128.6 L 472.2 129.1 Q 471.8 128.9, 471.4 128.9 Q 470.6 128.9, 470.2 129.3 Q 469.8 129.8, 469.8 130.8 Q 470.1 130.6, 470.4 130.5 Q 470.8 130.3, 471.1 130.3 M 471.0 133.1 Q 471.2 133.1, 471.5 132.9 Q 471.7 132.8, 471.9 132.5 Q 472.0 132.3, 472.0 131.9 Q 472.0 131.5, 471.7 131.2 Q 471.5 130.9, 471.0 130.9 Q 470.7 130.9, 470.3 131.1 Q 470.0 131.2, 469.8 131.4 Q 469.8 132.3, 470.1 132.7 Q 470.4 133.1, 471.0 133.1 " fill="#000000"/>
</svg>