<svg xmlns="http://www.w3.org/2000/svg" xmlns:rdkit="http://www.rdkit.org/xml" xmlns:xlink="http://www.w3.org/1999/xlink" version="1.1" baseProfile="full" xml:space="preserve" width="600px" height="280px" viewBox="0 0 600 280">
<!-- END OF HEADER -->
<rect style="opacity:1.0;fill:#FFFFFF;stroke:none" width="600.0" height="280.0" x="0.0" y="0.0"> </rect>
<path class="bond-0 atom-1 atom-0" d="M 85.4,163.7 L 85.9,163.8" style="fill:none;fill-rule:evenodd;stroke:#000000;stroke-width:1.0px;stroke-linecap:butt;stroke-linejoin:miter;stroke-opacity:1"/>
<path class="bond-0 atom-1 atom-0" d="M 84.1,166.9 L 85.2,167.2" style="fill:none;fill-rule:evenodd;stroke:#000000;stroke-width:1.0px;stroke-linecap:butt;stroke-linejoin:miter;stroke-opacity:1"/>
<path class="bond-0 atom-1 atom-0" d="M 82.8,170.1 L 84.5,170.6" style="fill:none;fill-rule:evenodd;stroke:#000000;stroke-width:1.0px;stroke-linecap:butt;stroke-linejoin:miter;stroke-opacity:1"/>
<path class="bond-0 atom-1 atom-0" d="M 81.5,173.4 L 83.7,174.0" style="fill:none;fill-rule:evenodd;stroke:#000000;stroke-width:1.0px;stroke-linecap:butt;stroke-linejoin:miter;stroke-opacity:1"/>
<path class="bond-0 atom-1 atom-0" d="M 80.3,176.6 L 83.0,177.4" style="fill:none;fill-rule:evenodd;stroke:#000000;stroke-width:1.0px;stroke-linecap:butt;stroke-linejoin:miter;stroke-opacity:1"/>
<path class="bond-0 atom-1 atom-0" d="M 79.0,179.8 L 82.3,180.8" style="fill:none;fill-rule:evenodd;stroke:#000000;stroke-width:1.0px;stroke-linecap:butt;stroke-linejoin:miter;stroke-opacity:1"/>
<path class="bond-0 atom-1 atom-0" d="M 77.7,183.1 L 81.6,184.2" style="fill:none;fill-rule:evenodd;stroke:#000000;stroke-width:1.0px;stroke-linecap:butt;stroke-linejoin:miter;stroke-opacity:1"/>
<path class="bond-0 atom-1 atom-0" d="M 76.4,186.3 L 80.9,187.6" style="fill:none;fill-rule:evenodd;stroke:#000000;stroke-width:1.0px;stroke-linecap:butt;stroke-linejoin:miter;stroke-opacity:1"/>
<path class="bond-0 atom-1 atom-0" d="M 75.2,189.5 L 80.1,191.0" style="fill:none;fill-rule:evenodd;stroke:#000000;stroke-width:1.0px;stroke-linecap:butt;stroke-linejoin:miter;stroke-opacity:1"/>
<path class="bond-1 atom-1 atom-2" d="M 86.6,160.5 L 62.9,135.2" style="fill:none;fill-rule:evenodd;stroke:#000000;stroke-width:2.0px;stroke-linecap:butt;stroke-linejoin:miter;stroke-opacity:1"/>
<path class="bond-2 atom-2 atom-3" d="M 62.9,135.2 L 72.9,102.0" style="fill:none;fill-rule:evenodd;stroke:#000000;stroke-width:2.0px;stroke-linecap:butt;stroke-linejoin:miter;stroke-opacity:1"/>
<path class="bond-3 atom-3 atom-4" d="M 72.9,102.0 L 106.7,94.1" style="fill:none;fill-rule:evenodd;stroke:#000000;stroke-width:2.0px;stroke-linecap:butt;stroke-linejoin:miter;stroke-opacity:1"/>
<path class="bond-4 atom-4 atom-5" d="M 106.7,94.1 L 130.4,119.4" style="fill:none;fill-rule:evenodd;stroke:#000000;stroke-width:2.0px;stroke-linecap:butt;stroke-linejoin:miter;stroke-opacity:1"/>
<path class="bond-5 atom-5 atom-6" d="M 130.4,119.4 L 126.3,132.9" style="fill:none;fill-rule:evenodd;stroke:#000000;stroke-width:2.0px;stroke-linecap:butt;stroke-linejoin:miter;stroke-opacity:1"/>
<path class="bond-5 atom-5 atom-6" d="M 126.3,132.9 L 122.2,146.4" style="fill:none;fill-rule:evenodd;stroke:#FF0000;stroke-width:2.0px;stroke-linecap:butt;stroke-linejoin:miter;stroke-opacity:1"/>
<path class="bond-6 atom-5 atom-7" d="M 130.4,119.4 L 143.5,114.9 L 144.1,117.5 Z" style="fill:#000000;fill-rule:evenodd;fill-opacity:1;stroke:#000000;stroke-width:0.5px;stroke-linecap:butt;stroke-linejoin:miter;stroke-opacity:1;"/>
<path class="bond-6 atom-5 atom-7" d="M 143.5,114.9 L 157.9,115.6 L 156.7,110.5 Z" style="fill:#FF0000;fill-rule:evenodd;fill-opacity:1;stroke:#FF0000;stroke-width:0.5px;stroke-linecap:butt;stroke-linejoin:miter;stroke-opacity:1;"/>
<path class="bond-6 atom-5 atom-7" d="M 143.5,114.9 L 144.1,117.5 L 157.9,115.6 Z" style="fill:#FF0000;fill-rule:evenodd;fill-opacity:1;stroke:#FF0000;stroke-width:0.5px;stroke-linecap:butt;stroke-linejoin:miter;stroke-opacity:1;"/>
<path class="bond-7 atom-7 atom-8" d="M 169.7,117.5 L 178.8,127.1" style="fill:none;fill-rule:evenodd;stroke:#FF0000;stroke-width:2.0px;stroke-linecap:butt;stroke-linejoin:miter;stroke-opacity:1"/>
<path class="bond-7 atom-7 atom-8" d="M 178.8,127.1 L 187.8,136.7" style="fill:none;fill-rule:evenodd;stroke:#000000;stroke-width:2.0px;stroke-linecap:butt;stroke-linejoin:miter;stroke-opacity:1"/>
<path class="bond-8 atom-8 atom-9" d="M 187.8,136.7 L 205.8,166.3" style="fill:none;fill-rule:evenodd;stroke:#000000;stroke-width:2.0px;stroke-linecap:butt;stroke-linejoin:miter;stroke-opacity:1"/>
<path class="bond-9 atom-9 atom-10" d="M 205.8,166.3 L 239.5,158.4" style="fill:none;fill-rule:evenodd;stroke:#000000;stroke-width:2.0px;stroke-linecap:butt;stroke-linejoin:miter;stroke-opacity:1"/>
<path class="bond-10 atom-10 atom-11" d="M 239.5,158.4 L 242.4,123.9" style="fill:none;fill-rule:evenodd;stroke:#000000;stroke-width:2.0px;stroke-linecap:butt;stroke-linejoin:miter;stroke-opacity:1"/>
<path class="bond-11 atom-11 atom-12" d="M 242.4,123.9 L 229.2,118.4" style="fill:none;fill-rule:evenodd;stroke:#000000;stroke-width:2.0px;stroke-linecap:butt;stroke-linejoin:miter;stroke-opacity:1"/>
<path class="bond-11 atom-11 atom-12" d="M 229.2,118.4 L 216.1,112.8" style="fill:none;fill-rule:evenodd;stroke:#FF0000;stroke-width:2.0px;stroke-linecap:butt;stroke-linejoin:miter;stroke-opacity:1"/>
<path class="bond-12 atom-11 atom-13" d="M 245.5,122.3 L 245.2,121.8" style="fill:none;fill-rule:evenodd;stroke:#000000;stroke-width:1.0px;stroke-linecap:butt;stroke-linejoin:miter;stroke-opacity:1"/>
<path class="bond-12 atom-11 atom-13" d="M 248.6,120.8 L 248.0,119.8" style="fill:none;fill-rule:evenodd;stroke:#000000;stroke-width:1.0px;stroke-linecap:butt;stroke-linejoin:miter;stroke-opacity:1"/>
<path class="bond-12 atom-11 atom-13" d="M 251.7,119.2 L 250.8,117.8" style="fill:none;fill-rule:evenodd;stroke:#000000;stroke-width:1.0px;stroke-linecap:butt;stroke-linejoin:miter;stroke-opacity:1"/>
<path class="bond-12 atom-11 atom-13" d="M 254.8,117.7 L 253.6,115.7" style="fill:none;fill-rule:evenodd;stroke:#000000;stroke-width:1.0px;stroke-linecap:butt;stroke-linejoin:miter;stroke-opacity:1"/>
<path class="bond-12 atom-11 atom-13" d="M 257.9,116.1 L 256.5,113.7" style="fill:none;fill-rule:evenodd;stroke:#000000;stroke-width:1.0px;stroke-linecap:butt;stroke-linejoin:miter;stroke-opacity:1"/>
<path class="bond-12 atom-11 atom-13" d="M 261.1,114.6 L 259.3,111.6" style="fill:none;fill-rule:evenodd;stroke:#000000;stroke-width:1.0px;stroke-linecap:butt;stroke-linejoin:miter;stroke-opacity:1"/>
<path class="bond-12 atom-11 atom-13" d="M 264.2,113.1 L 262.1,109.6" style="fill:none;fill-rule:evenodd;stroke:#000000;stroke-width:1.0px;stroke-linecap:butt;stroke-linejoin:miter;stroke-opacity:1"/>
<path class="bond-12 atom-11 atom-13" d="M 267.3,111.5 L 264.9,107.6" style="fill:none;fill-rule:evenodd;stroke:#000000;stroke-width:1.0px;stroke-linecap:butt;stroke-linejoin:miter;stroke-opacity:1"/>
<path class="bond-12 atom-11 atom-13" d="M 270.4,110.0 L 267.7,105.5" style="fill:none;fill-rule:evenodd;stroke:#000000;stroke-width:1.0px;stroke-linecap:butt;stroke-linejoin:miter;stroke-opacity:1"/>
<path class="bond-13 atom-13 atom-14" d="M 272.0,105.9 L 271.7,91.7" style="fill:none;fill-rule:evenodd;stroke:#000000;stroke-width:2.0px;stroke-linecap:butt;stroke-linejoin:miter;stroke-opacity:1"/>
<path class="bond-13 atom-13 atom-14" d="M 271.7,91.7 L 271.4,77.5" style="fill:none;fill-rule:evenodd;stroke:#FF0000;stroke-width:2.0px;stroke-linecap:butt;stroke-linejoin:miter;stroke-opacity:1"/>
<path class="bond-14 atom-10 atom-15" d="M 239.5,158.4 L 250.1,165.8 L 248.4,167.8 Z" style="fill:#000000;fill-rule:evenodd;fill-opacity:1;stroke:#000000;stroke-width:0.5px;stroke-linecap:butt;stroke-linejoin:miter;stroke-opacity:1;"/>
<path class="bond-14 atom-10 atom-15" d="M 250.1,165.8 L 257.2,177.1 L 260.6,173.2 Z" style="fill:#FF0000;fill-rule:evenodd;fill-opacity:1;stroke:#FF0000;stroke-width:0.5px;stroke-linecap:butt;stroke-linejoin:miter;stroke-opacity:1;"/>
<path class="bond-14 atom-10 atom-15" d="M 250.1,165.8 L 248.4,167.8 L 257.2,177.1 Z" style="fill:#FF0000;fill-rule:evenodd;fill-opacity:1;stroke:#FF0000;stroke-width:0.5px;stroke-linecap:butt;stroke-linejoin:miter;stroke-opacity:1;"/>
<path class="bond-15 atom-9 atom-16" d="M 204.8,169.5 L 204.2,169.3" style="fill:none;fill-rule:evenodd;stroke:#000000;stroke-width:1.0px;stroke-linecap:butt;stroke-linejoin:miter;stroke-opacity:1"/>
<path class="bond-15 atom-9 atom-16" d="M 203.8,172.7 L 202.6,172.2" style="fill:none;fill-rule:evenodd;stroke:#000000;stroke-width:1.0px;stroke-linecap:butt;stroke-linejoin:miter;stroke-opacity:1"/>
<path class="bond-15 atom-9 atom-16" d="M 202.8,176.0 L 201.0,175.2" style="fill:none;fill-rule:evenodd;stroke:#000000;stroke-width:1.0px;stroke-linecap:butt;stroke-linejoin:miter;stroke-opacity:1"/>
<path class="bond-15 atom-9 atom-16" d="M 201.8,179.2 L 199.4,178.2" style="fill:none;fill-rule:evenodd;stroke:#000000;stroke-width:1.0px;stroke-linecap:butt;stroke-linejoin:miter;stroke-opacity:1"/>
<path class="bond-15 atom-9 atom-16" d="M 200.8,182.4 L 197.8,181.1" style="fill:none;fill-rule:evenodd;stroke:#FF0000;stroke-width:1.0px;stroke-linecap:butt;stroke-linejoin:miter;stroke-opacity:1"/>
<path class="bond-15 atom-9 atom-16" d="M 199.8,185.6 L 196.2,184.1" style="fill:none;fill-rule:evenodd;stroke:#FF0000;stroke-width:1.0px;stroke-linecap:butt;stroke-linejoin:miter;stroke-opacity:1"/>
<path class="bond-15 atom-9 atom-16" d="M 198.8,188.8 L 194.6,187.0" style="fill:none;fill-rule:evenodd;stroke:#FF0000;stroke-width:1.0px;stroke-linecap:butt;stroke-linejoin:miter;stroke-opacity:1"/>
<path class="bond-15 atom-9 atom-16" d="M 197.8,192.0 L 193.0,190.0" style="fill:none;fill-rule:evenodd;stroke:#FF0000;stroke-width:1.0px;stroke-linecap:butt;stroke-linejoin:miter;stroke-opacity:1"/>
<path class="bond-16 atom-8 atom-17" d="M 187.8,136.7 L 160.6,160.8 L 159.9,154.8 Z" style="fill:#000000;fill-rule:evenodd;fill-opacity:1;stroke:#000000;stroke-width:0.5px;stroke-linecap:butt;stroke-linejoin:miter;stroke-opacity:1;"/>
<path class="bond-17 atom-17 atom-18" d="M 159.9,154.8 L 162.0,171.8" style="fill:none;fill-rule:evenodd;stroke:#000000;stroke-width:2.0px;stroke-linecap:butt;stroke-linejoin:miter;stroke-opacity:1"/>
<path class="bond-17 atom-17 atom-18" d="M 162.0,171.8 L 163.8,185.9" style="fill:none;fill-rule:evenodd;stroke:#FF0000;stroke-width:2.0px;stroke-linecap:butt;stroke-linejoin:miter;stroke-opacity:1"/>
<path class="bond-18 atom-4 atom-19" d="M 106.7,94.1 L 109.3,80.9 L 111.8,81.6 Z" style="fill:#000000;fill-rule:evenodd;fill-opacity:1;stroke:#000000;stroke-width:0.5px;stroke-linecap:butt;stroke-linejoin:miter;stroke-opacity:1;"/>
<path class="bond-18 atom-4 atom-19" d="M 109.3,80.9 L 116.9,69.1 L 111.9,67.6 Z" style="fill:#FF0000;fill-rule:evenodd;fill-opacity:1;stroke:#FF0000;stroke-width:0.5px;stroke-linecap:butt;stroke-linejoin:miter;stroke-opacity:1;"/>
<path class="bond-18 atom-4 atom-19" d="M 109.3,80.9 L 111.8,81.6 L 116.9,69.1 Z" style="fill:#FF0000;fill-rule:evenodd;fill-opacity:1;stroke:#FF0000;stroke-width:0.5px;stroke-linecap:butt;stroke-linejoin:miter;stroke-opacity:1;"/>
<path class="bond-19 atom-3 atom-20" d="M 70.2,99.7 L 70.8,99.2" style="fill:none;fill-rule:evenodd;stroke:#000000;stroke-width:1.0px;stroke-linecap:butt;stroke-linejoin:miter;stroke-opacity:1"/>
<path class="bond-19 atom-3 atom-20" d="M 67.5,97.4 L 68.6,96.4" style="fill:none;fill-rule:evenodd;stroke:#000000;stroke-width:1.0px;stroke-linecap:butt;stroke-linejoin:miter;stroke-opacity:1"/>
<path class="bond-19 atom-3 atom-20" d="M 64.9,95.1 L 66.5,93.5" style="fill:none;fill-rule:evenodd;stroke:#000000;stroke-width:1.0px;stroke-linecap:butt;stroke-linejoin:miter;stroke-opacity:1"/>
<path class="bond-19 atom-3 atom-20" d="M 62.2,92.8 L 64.3,90.7" style="fill:none;fill-rule:evenodd;stroke:#FF0000;stroke-width:1.0px;stroke-linecap:butt;stroke-linejoin:miter;stroke-opacity:1"/>
<path class="bond-19 atom-3 atom-20" d="M 59.5,90.4 L 62.2,87.9" style="fill:none;fill-rule:evenodd;stroke:#FF0000;stroke-width:1.0px;stroke-linecap:butt;stroke-linejoin:miter;stroke-opacity:1"/>
<path class="bond-19 atom-3 atom-20" d="M 56.8,88.1 L 60.0,85.1" style="fill:none;fill-rule:evenodd;stroke:#FF0000;stroke-width:1.0px;stroke-linecap:butt;stroke-linejoin:miter;stroke-opacity:1"/>
<path class="bond-19 atom-3 atom-20" d="M 54.1,85.8 L 57.9,82.2" style="fill:none;fill-rule:evenodd;stroke:#FF0000;stroke-width:1.0px;stroke-linecap:butt;stroke-linejoin:miter;stroke-opacity:1"/>
<path class="bond-20 atom-2 atom-21" d="M 62.9,135.2 L 49.7,139.6 L 49.2,137.1 Z" style="fill:#000000;fill-rule:evenodd;fill-opacity:1;stroke:#000000;stroke-width:0.5px;stroke-linecap:butt;stroke-linejoin:miter;stroke-opacity:1;"/>
<path class="bond-20 atom-2 atom-21" d="M 49.7,139.6 L 35.4,139.0 L 36.6,144.1 Z" style="fill:#FF0000;fill-rule:evenodd;fill-opacity:1;stroke:#FF0000;stroke-width:0.5px;stroke-linecap:butt;stroke-linejoin:miter;stroke-opacity:1;"/>
<path class="bond-20 atom-2 atom-21" d="M 49.7,139.6 L 49.2,137.1 L 35.4,139.0 Z" style="fill:#FF0000;fill-rule:evenodd;fill-opacity:1;stroke:#FF0000;stroke-width:0.5px;stroke-linecap:butt;stroke-linejoin:miter;stroke-opacity:1;"/>
<path class="bond-21 atom-0 atom-22" d="M 76.6,193.6 L 85.7,203.2" style="fill:none;fill-rule:evenodd;stroke:#000000;stroke-width:2.0px;stroke-linecap:butt;stroke-linejoin:miter;stroke-opacity:1"/>
<path class="bond-21 atom-0 atom-22" d="M 85.7,203.2 L 94.7,212.9" style="fill:none;fill-rule:evenodd;stroke:#FF0000;stroke-width:2.0px;stroke-linecap:butt;stroke-linejoin:miter;stroke-opacity:1"/>
<path class="bond-22 atom-6 atom-1" d="M 114.7,153.9 L 100.7,157.2" style="fill:none;fill-rule:evenodd;stroke:#FF0000;stroke-width:2.0px;stroke-linecap:butt;stroke-linejoin:miter;stroke-opacity:1"/>
<path class="bond-22 atom-6 atom-1" d="M 100.7,157.2 L 86.6,160.5" style="fill:none;fill-rule:evenodd;stroke:#000000;stroke-width:2.0px;stroke-linecap:butt;stroke-linejoin:miter;stroke-opacity:1"/>
<path class="bond-23 atom-12 atom-8" d="M 205.1,116.7 L 196.4,126.7" style="fill:none;fill-rule:evenodd;stroke:#FF0000;stroke-width:2.0px;stroke-linecap:butt;stroke-linejoin:miter;stroke-opacity:1"/>
<path class="bond-23 atom-12 atom-8" d="M 196.4,126.7 L 187.8,136.7" style="fill:none;fill-rule:evenodd;stroke:#000000;stroke-width:2.0px;stroke-linecap:butt;stroke-linejoin:miter;stroke-opacity:1"/>
<path d="M 85.5,159.2 L 86.6,160.5 L 87.3,160.3" style="fill:none;stroke:#000000;stroke-width:2.0px;stroke-linecap:butt;stroke-linejoin:miter;stroke-opacity:1;"/>
<path d="M 64.1,136.5 L 62.9,135.2 L 63.4,133.5" style="fill:none;stroke:#000000;stroke-width:2.0px;stroke-linecap:butt;stroke-linejoin:miter;stroke-opacity:1;"/>
<path d="M 72.4,103.7 L 72.9,102.0 L 74.6,101.6" style="fill:none;stroke:#000000;stroke-width:2.0px;stroke-linecap:butt;stroke-linejoin:miter;stroke-opacity:1;"/>
<path d="M 105.0,94.5 L 106.7,94.1 L 107.8,95.4" style="fill:none;stroke:#000000;stroke-width:2.0px;stroke-linecap:butt;stroke-linejoin:miter;stroke-opacity:1;"/>
<path d="M 129.2,118.1 L 130.4,119.4 L 130.2,120.0" style="fill:none;stroke:#000000;stroke-width:2.0px;stroke-linecap:butt;stroke-linejoin:miter;stroke-opacity:1;"/>
<path d="M 204.9,164.8 L 205.8,166.3 L 207.5,165.9" style="fill:none;stroke:#000000;stroke-width:2.0px;stroke-linecap:butt;stroke-linejoin:miter;stroke-opacity:1;"/>
<path d="M 237.8,158.8 L 239.5,158.4 L 239.6,156.7" style="fill:none;stroke:#000000;stroke-width:2.0px;stroke-linecap:butt;stroke-linejoin:miter;stroke-opacity:1;"/>
<path d="M 242.3,125.6 L 242.4,123.9 L 241.7,123.6" style="fill:none;stroke:#000000;stroke-width:2.0px;stroke-linecap:butt;stroke-linejoin:miter;stroke-opacity:1;"/>
<path class="atom-6" d="M 115.9 152.6 Q 115.9 150.2, 117.0 148.9 Q 118.2 147.6, 120.4 147.6 Q 122.5 147.6, 123.7 148.9 Q 124.9 150.2, 124.9 152.6 Q 124.9 154.9, 123.7 156.3 Q 122.5 157.6, 120.4 157.6 Q 118.2 157.6, 117.0 156.3 Q 115.9 155.0, 115.9 152.6 M 120.4 156.5 Q 121.9 156.5, 122.7 155.5 Q 123.5 154.5, 123.5 152.6 Q 123.5 150.6, 122.7 149.7 Q 121.9 148.7, 120.4 148.7 Q 118.9 148.7, 118.1 149.6 Q 117.3 150.6, 117.3 152.6 Q 117.3 154.5, 118.1 155.5 Q 118.9 156.5, 120.4 156.5 " fill="#FF0000"/>
<path class="atom-7" d="M 159.6 111.5 Q 159.6 109.1, 160.8 107.8 Q 161.9 106.5, 164.1 106.5 Q 166.3 106.5, 167.4 107.8 Q 168.6 109.1, 168.6 111.5 Q 168.6 113.9, 167.4 115.2 Q 166.3 116.6, 164.1 116.6 Q 161.9 116.6, 160.8 115.2 Q 159.6 113.9, 159.6 111.5 M 164.1 115.4 Q 165.6 115.4, 166.4 114.5 Q 167.2 113.4, 167.2 111.5 Q 167.2 109.5, 166.4 108.6 Q 165.6 107.6, 164.1 107.6 Q 162.6 107.6, 161.8 108.6 Q 161.0 109.5, 161.0 111.5 Q 161.0 113.5, 161.8 114.5 Q 162.6 115.4, 164.1 115.4 " fill="#FF0000"/>
<path class="atom-12" d="M 206.0 110.5 Q 206.0 108.1, 207.1 106.8 Q 208.3 105.5, 210.5 105.5 Q 212.6 105.5, 213.8 106.8 Q 215.0 108.1, 215.0 110.5 Q 215.0 112.9, 213.8 114.2 Q 212.6 115.6, 210.5 115.6 Q 208.3 115.6, 207.1 114.2 Q 206.0 112.9, 206.0 110.5 M 210.5 114.5 Q 212.0 114.5, 212.8 113.5 Q 213.6 112.5, 213.6 110.5 Q 213.6 108.6, 212.8 107.6 Q 212.0 106.6, 210.5 106.6 Q 209.0 106.6, 208.1 107.6 Q 207.3 108.6, 207.3 110.5 Q 207.3 112.5, 208.1 113.5 Q 209.0 114.5, 210.5 114.5 " fill="#FF0000"/>
<path class="atom-14" d="M 266.8 71.3 Q 266.8 69.0, 268.0 67.6 Q 269.1 66.3, 271.3 66.3 Q 273.5 66.3, 274.6 67.6 Q 275.8 69.0, 275.8 71.3 Q 275.8 73.7, 274.6 75.1 Q 273.4 76.4, 271.3 76.4 Q 269.1 76.4, 268.0 75.1 Q 266.8 73.7, 266.8 71.3 M 271.3 75.3 Q 272.8 75.3, 273.6 74.3 Q 274.4 73.3, 274.4 71.3 Q 274.4 69.4, 273.6 68.4 Q 272.8 67.4, 271.3 67.4 Q 269.8 67.4, 269.0 68.4 Q 268.2 69.4, 268.2 71.3 Q 268.2 73.3, 269.0 74.3 Q 269.8 75.3, 271.3 75.3 " fill="#FF0000"/>
<path class="atom-14" d="M 277.3 66.4 L 278.7 66.4 L 278.7 70.6 L 283.7 70.6 L 283.7 66.4 L 285.0 66.4 L 285.0 76.3 L 283.7 76.3 L 283.7 71.7 L 278.7 71.7 L 278.7 76.3 L 277.3 76.3 L 277.3 66.4 " fill="#FF0000"/>
<path class="atom-15" d="M 261.2 181.1 Q 261.2 178.7, 262.4 177.4 Q 263.6 176.1, 265.7 176.1 Q 267.9 176.1, 269.1 177.4 Q 270.2 178.7, 270.2 181.1 Q 270.2 183.4, 269.1 184.8 Q 267.9 186.2, 265.7 186.2 Q 263.6 186.2, 262.4 184.8 Q 261.2 183.5, 261.2 181.1 M 265.7 185.0 Q 267.2 185.0, 268.0 184.0 Q 268.9 183.0, 268.9 181.1 Q 268.9 179.1, 268.0 178.2 Q 267.2 177.2, 265.7 177.2 Q 264.2 177.2, 263.4 178.2 Q 262.6 179.1, 262.6 181.1 Q 262.6 183.0, 263.4 184.0 Q 264.2 185.0, 265.7 185.0 " fill="#FF0000"/>
<path class="atom-15" d="M 271.8 176.2 L 273.1 176.2 L 273.1 180.4 L 278.1 180.4 L 278.1 176.2 L 279.4 176.2 L 279.4 186.0 L 278.1 186.0 L 278.1 181.5 L 273.1 181.5 L 273.1 186.0 L 271.8 186.0 L 271.8 176.2 " fill="#FF0000"/>
<path class="atom-16" d="M 178.2 193.4 L 179.5 193.4 L 179.5 197.6 L 184.5 197.6 L 184.5 193.4 L 185.8 193.4 L 185.8 203.2 L 184.5 203.2 L 184.5 198.7 L 179.5 198.7 L 179.5 203.2 L 178.2 203.2 L 178.2 193.4 " fill="#FF0000"/>
<path class="atom-16" d="M 187.9 198.3 Q 187.9 195.9, 189.0 194.6 Q 190.2 193.3, 192.4 193.3 Q 194.5 193.3, 195.7 194.6 Q 196.9 195.9, 196.9 198.3 Q 196.9 200.7, 195.7 202.0 Q 194.5 203.4, 192.4 203.4 Q 190.2 203.4, 189.0 202.0 Q 187.9 200.7, 187.9 198.3 M 192.4 202.3 Q 193.9 202.3, 194.7 201.3 Q 195.5 200.3, 195.5 198.3 Q 195.5 196.4, 194.7 195.4 Q 193.9 194.4, 192.4 194.4 Q 190.9 194.4, 190.0 195.4 Q 189.2 196.4, 189.2 198.3 Q 189.2 200.3, 190.0 201.3 Q 190.9 202.3, 192.4 202.3 " fill="#FF0000"/>
<path class="atom-18" d="M 160.1 192.0 Q 160.1 189.7, 161.2 188.4 Q 162.4 187.1, 164.6 187.1 Q 166.8 187.1, 167.9 188.4 Q 169.1 189.7, 169.1 192.0 Q 169.1 194.4, 167.9 195.8 Q 166.7 197.1, 164.6 197.1 Q 162.4 197.1, 161.2 195.8 Q 160.1 194.4, 160.1 192.0 M 164.6 196.0 Q 166.1 196.0, 166.9 195.0 Q 167.7 194.0, 167.7 192.0 Q 167.7 190.1, 166.9 189.1 Q 166.1 188.2, 164.6 188.2 Q 163.1 188.2, 162.3 189.1 Q 161.5 190.1, 161.5 192.0 Q 161.5 194.0, 162.3 195.0 Q 163.1 196.0, 164.6 196.0 " fill="#FF0000"/>
<path class="atom-18" d="M 170.6 187.2 L 171.9 187.2 L 171.9 191.3 L 177.0 191.3 L 177.0 187.2 L 178.3 187.2 L 178.3 197.0 L 177.0 197.0 L 177.0 192.4 L 171.9 192.4 L 171.9 197.0 L 170.6 197.0 L 170.6 187.2 " fill="#FF0000"/>
<path class="atom-19" d="M 112.2 61.0 Q 112.2 58.6, 113.3 57.3 Q 114.5 56.0, 116.7 56.0 Q 118.8 56.0, 120.0 57.3 Q 121.2 58.6, 121.2 61.0 Q 121.2 63.4, 120.0 64.7 Q 118.8 66.1, 116.7 66.1 Q 114.5 66.1, 113.3 64.7 Q 112.2 63.4, 112.2 61.0 M 116.7 65.0 Q 118.2 65.0, 119.0 64.0 Q 119.8 62.9, 119.8 61.0 Q 119.8 59.0, 119.0 58.1 Q 118.2 57.1, 116.7 57.1 Q 115.2 57.1, 114.3 58.1 Q 113.5 59.0, 113.5 61.0 Q 113.5 63.0, 114.3 64.0 Q 115.2 65.0, 116.7 65.0 " fill="#FF0000"/>
<path class="atom-19" d="M 122.7 56.1 L 124.0 56.1 L 124.0 60.3 L 129.0 60.3 L 129.0 56.1 L 130.4 56.1 L 130.4 65.9 L 129.0 65.9 L 129.0 61.4 L 124.0 61.4 L 124.0 65.9 L 122.7 65.9 L 122.7 56.1 " fill="#FF0000"/>
<path class="atom-20" d="M 35.0 71.9 L 36.3 71.9 L 36.3 76.1 L 41.4 76.1 L 41.4 71.9 L 42.7 71.9 L 42.7 81.7 L 41.4 81.7 L 41.4 77.2 L 36.3 77.2 L 36.3 81.7 L 35.0 81.7 L 35.0 71.9 " fill="#FF0000"/>
<path class="atom-20" d="M 44.7 76.8 Q 44.7 74.5, 45.9 73.1 Q 47.0 71.8, 49.2 71.8 Q 51.4 71.8, 52.5 73.1 Q 53.7 74.5, 53.7 76.8 Q 53.7 79.2, 52.5 80.6 Q 51.4 81.9, 49.2 81.9 Q 47.0 81.9, 45.9 80.6 Q 44.7 79.2, 44.7 76.8 M 49.2 80.8 Q 50.7 80.8, 51.5 79.8 Q 52.3 78.8, 52.3 76.8 Q 52.3 74.9, 51.5 73.9 Q 50.7 72.9, 49.2 72.9 Q 47.7 72.9, 46.9 73.9 Q 46.1 74.9, 46.1 76.8 Q 46.1 78.8, 46.9 79.8 Q 47.7 80.8, 49.2 80.8 " fill="#FF0000"/>
<path class="atom-21" d="M 15.0 138.3 L 16.3 138.3 L 16.3 142.4 L 21.3 142.4 L 21.3 138.3 L 22.7 138.3 L 22.7 148.1 L 21.3 148.1 L 21.3 143.5 L 16.3 143.5 L 16.3 148.1 L 15.0 148.1 L 15.0 138.3 " fill="#FF0000"/>
<path class="atom-21" d="M 24.7 143.1 Q 24.7 140.8, 25.9 139.5 Q 27.0 138.2, 29.2 138.2 Q 31.4 138.2, 32.5 139.5 Q 33.7 140.8, 33.7 143.1 Q 33.7 145.5, 32.5 146.9 Q 31.3 148.2, 29.2 148.2 Q 27.0 148.2, 25.9 146.9 Q 24.7 145.5, 24.7 143.1 M 29.2 147.1 Q 30.7 147.1, 31.5 146.1 Q 32.3 145.1, 32.3 143.1 Q 32.3 141.2, 31.5 140.3 Q 30.7 139.3, 29.2 139.3 Q 27.7 139.3, 26.9 140.2 Q 26.1 141.2, 26.1 143.1 Q 26.1 145.1, 26.9 146.1 Q 27.7 147.1, 29.2 147.1 " fill="#FF0000"/>
<path class="atom-22" d="M 95.9 218.9 Q 95.9 216.5, 97.0 215.2 Q 98.2 213.9, 100.4 213.9 Q 102.5 213.9, 103.7 215.2 Q 104.9 216.5, 104.9 218.9 Q 104.9 221.3, 103.7 222.6 Q 102.5 224.0, 100.4 224.0 Q 98.2 224.0, 97.0 222.6 Q 95.9 221.3, 95.9 218.9 M 100.4 222.9 Q 101.9 222.9, 102.7 221.9 Q 103.5 220.9, 103.5 218.9 Q 103.5 217.0, 102.7 216.0 Q 101.9 215.0, 100.4 215.0 Q 98.9 215.0, 98.0 216.0 Q 97.2 217.0, 97.2 218.9 Q 97.2 220.9, 98.0 221.9 Q 98.9 222.9, 100.4 222.9 " fill="#FF0000"/>
<path class="atom-22" d="M 106.4 214.0 L 107.7 214.0 L 107.7 218.2 L 112.7 218.2 L 112.7 214.0 L 114.1 214.0 L 114.1 223.8 L 112.7 223.8 L 112.7 219.3 L 107.7 219.3 L 107.7 223.8 L 106.4 223.8 L 106.4 214.0 " fill="#FF0000"/>
<path class="note" d="M 71.0 197.5 Q 70.1 197.5, 69.7 196.8 Q 69.2 196.1, 69.2 195.0 Q 69.2 193.8, 69.7 193.1 Q 70.1 192.5, 71.0 192.5 Q 71.9 192.5, 72.4 193.1 Q 72.8 193.8, 72.8 195.0 Q 72.8 196.1, 72.4 196.8 Q 71.9 197.5, 71.0 197.5 M 71.0 196.9 Q 71.5 196.9, 71.8 196.4 Q 72.1 195.9, 72.1 195.0 Q 72.1 194.0, 71.8 193.5 Q 71.5 193.0, 71.0 193.0 Q 70.5 193.0, 70.2 193.5 Q 69.9 194.0, 69.9 195.0 Q 69.9 195.9, 70.2 196.4 Q 70.5 196.9, 71.0 196.9 " fill="#000000"/>
<path class="note" d="M 79.8 163.7 L 80.9 163.7 L 80.9 160.0 L 79.7 160.4 L 79.5 160.0 L 81.0 159.3 L 81.5 159.4 L 81.5 163.7 L 82.5 163.7 L 82.5 164.2 L 79.8 164.2 L 79.8 163.7 " fill="#000000"/>
<path class="note" d="M 66.9 132.4 Q 67.1 131.9, 67.5 131.7 Q 67.9 131.4, 68.5 131.4 Q 69.3 131.4, 69.7 131.8 Q 70.1 132.2, 70.1 132.9 Q 70.1 133.6, 69.6 134.3 Q 69.0 135.0, 67.9 135.8 L 70.2 135.8 L 70.2 136.4 L 66.9 136.4 L 66.9 135.9 Q 67.8 135.2, 68.3 134.8 Q 68.9 134.3, 69.2 133.8 Q 69.4 133.4, 69.4 133.0 Q 69.4 132.5, 69.2 132.2 Q 68.9 132.0, 68.5 132.0 Q 68.1 132.0, 67.9 132.1 Q 67.6 132.3, 67.4 132.6 L 66.9 132.4 " fill="#000000"/>
<path class="note" d="M 77.6 106.1 Q 78.1 106.3, 78.3 106.6 Q 78.5 106.9, 78.5 107.4 Q 78.5 107.8, 78.3 108.1 Q 78.1 108.4, 77.7 108.6 Q 77.4 108.8, 76.9 108.8 Q 76.3 108.8, 75.9 108.6 Q 75.5 108.4, 75.2 108.0 L 75.6 107.6 Q 75.9 108.0, 76.2 108.1 Q 76.4 108.2, 76.9 108.2 Q 77.3 108.2, 77.6 108.0 Q 77.8 107.8, 77.8 107.4 Q 77.8 106.9, 77.6 106.6 Q 77.3 106.4, 76.7 106.4 L 76.3 106.4 L 76.3 105.9 L 76.6 105.9 Q 77.2 105.9, 77.4 105.7 Q 77.7 105.5, 77.7 105.0 Q 77.7 104.7, 77.5 104.5 Q 77.3 104.3, 76.9 104.3 Q 76.5 104.3, 76.2 104.5 Q 75.9 104.6, 75.8 105.0 L 75.3 104.7 Q 75.4 104.3, 75.9 104.0 Q 76.3 103.8, 76.9 103.8 Q 77.6 103.8, 78.0 104.1 Q 78.4 104.4, 78.4 105.0 Q 78.4 105.4, 78.2 105.7 Q 78.0 106.0, 77.6 106.1 " fill="#000000"/>
<path class="note" d="M 106.3 100.4 L 106.9 100.4 L 106.9 101.0 L 106.3 101.0 L 106.3 102.1 L 105.6 102.1 L 105.6 101.0 L 103.1 101.0 L 103.1 100.5 L 105.2 97.2 L 106.3 97.2 L 106.3 100.4 M 103.9 100.4 L 105.6 100.4 L 105.6 97.6 L 103.9 100.4 " fill="#000000"/>
<path class="note" d="M 124.9 120.1 Q 125.3 120.1, 125.7 120.3 Q 126.0 120.4, 126.2 120.8 Q 126.4 121.1, 126.4 121.6 Q 126.4 122.1, 126.2 122.5 Q 125.9 122.8, 125.5 123.0 Q 125.1 123.2, 124.7 123.2 Q 124.2 123.2, 123.8 123.0 Q 123.4 122.9, 123.1 122.5 L 123.5 122.1 Q 123.7 122.4, 124.1 122.5 Q 124.4 122.6, 124.7 122.6 Q 125.1 122.6, 125.4 122.4 Q 125.7 122.1, 125.7 121.6 Q 125.7 121.1, 125.4 120.8 Q 125.1 120.6, 124.6 120.6 Q 124.2 120.6, 123.7 120.8 L 123.4 120.6 L 123.6 118.2 L 126.1 118.2 L 126.0 118.8 L 124.2 118.8 L 124.0 120.2 Q 124.4 120.1, 124.9 120.1 " fill="#000000"/>
<path class="note" d="M 123.2 163.2 Q 123.7 163.2, 124.0 163.4 Q 124.3 163.6, 124.5 163.9 Q 124.7 164.2, 124.7 164.7 Q 124.7 165.2, 124.5 165.5 Q 124.3 165.9, 123.9 166.1 Q 123.5 166.3, 123.1 166.3 Q 122.2 166.3, 121.7 165.7 Q 121.3 165.1, 121.3 163.9 Q 121.3 162.6, 121.8 162.0 Q 122.4 161.3, 123.4 161.3 Q 123.7 161.3, 124.0 161.4 Q 124.3 161.4, 124.5 161.6 L 124.2 162.0 Q 123.9 161.8, 123.4 161.8 Q 122.8 161.8, 122.4 162.3 Q 122.0 162.7, 122.0 163.7 Q 122.3 163.4, 122.6 163.3 Q 122.9 163.2, 123.2 163.2 M 123.1 165.7 Q 123.3 165.7, 123.5 165.6 Q 123.8 165.5, 123.9 165.2 Q 124.0 165.0, 124.0 164.7 Q 124.0 164.2, 123.8 164.0 Q 123.5 163.7, 123.1 163.7 Q 122.8 163.7, 122.5 163.9 Q 122.2 164.0, 122.0 164.2 Q 122.0 165.0, 122.3 165.4 Q 122.5 165.7, 123.1 165.7 " fill="#000000"/>
<path class="note" d="M 168.4 98.5 L 165.8 98.5 L 165.8 97.9 L 169.1 97.9 L 169.1 98.4 L 167.1 102.8 L 166.4 102.8 L 168.4 98.5 " fill="#000000"/>
<path class="note" d="M 177.1 138.0 Q 177.6 138.2, 177.8 138.5 Q 178.1 138.8, 178.1 139.3 Q 178.1 139.7, 177.9 140.0 Q 177.7 140.3, 177.3 140.5 Q 176.9 140.7, 176.4 140.7 Q 175.6 140.7, 175.1 140.3 Q 174.6 139.9, 174.6 139.3 Q 174.6 138.9, 174.8 138.6 Q 175.1 138.3, 175.5 138.0 Q 175.2 137.9, 175.0 137.6 Q 174.8 137.3, 174.8 136.9 Q 174.8 136.3, 175.2 136.0 Q 175.7 135.7, 176.4 135.7 Q 177.1 135.7, 177.5 136.0 Q 177.9 136.3, 177.9 136.9 Q 177.9 137.3, 177.7 137.5 Q 177.5 137.8, 177.1 138.0 M 176.4 136.2 Q 176.0 136.2, 175.7 136.4 Q 175.5 136.6, 175.5 136.9 Q 175.5 137.2, 175.7 137.3 Q 175.8 137.5, 176.0 137.6 Q 176.2 137.7, 176.7 137.9 Q 177.0 137.6, 177.1 137.4 Q 177.2 137.2, 177.2 136.9 Q 177.2 136.6, 177.0 136.4 Q 176.8 136.2, 176.4 136.2 M 176.4 140.2 Q 176.9 140.2, 177.1 139.9 Q 177.4 139.7, 177.4 139.3 Q 177.4 139.0, 177.3 138.8 Q 177.1 138.7, 176.9 138.6 Q 176.7 138.5, 176.3 138.4 L 176.0 138.3 Q 175.6 138.5, 175.5 138.7 Q 175.3 139.0, 175.3 139.3 Q 175.3 139.7, 175.6 139.9 Q 175.9 140.2, 176.4 140.2 " fill="#000000"/>
<path class="note" d="M 208.0 158.5 Q 208.8 158.5, 209.3 159.1 Q 209.7 159.7, 209.7 160.9 Q 209.7 162.2, 209.2 162.9 Q 208.6 163.5, 207.6 163.5 Q 207.3 163.5, 207.0 163.5 Q 206.8 163.4, 206.5 163.3 L 206.8 162.8 Q 207.1 163.0, 207.6 163.0 Q 208.3 163.0, 208.6 162.5 Q 209.0 162.1, 209.0 161.2 Q 208.8 161.4, 208.4 161.5 Q 208.1 161.6, 207.8 161.6 Q 207.4 161.6, 207.0 161.5 Q 206.7 161.3, 206.5 160.9 Q 206.3 160.6, 206.3 160.2 Q 206.3 159.7, 206.5 159.3 Q 206.7 158.9, 207.1 158.7 Q 207.5 158.5, 208.0 158.5 M 207.0 160.1 Q 207.0 160.6, 207.2 160.8 Q 207.5 161.1, 207.9 161.1 Q 208.2 161.1, 208.5 161.0 Q 208.8 160.8, 209.0 160.6 Q 209.0 159.8, 208.7 159.5 Q 208.5 159.1, 208.0 159.1 Q 207.7 159.1, 207.5 159.2 Q 207.3 159.4, 207.1 159.6 Q 207.0 159.9, 207.0 160.1 " fill="#000000"/>
<path class="note" d="M 227.4 152.8 L 228.5 152.8 L 228.5 149.1 L 227.3 149.5 L 227.2 149.1 L 228.7 148.4 L 229.2 148.5 L 229.2 152.8 L 230.1 152.8 L 230.1 153.3 L 227.4 153.3 L 227.4 152.8 " fill="#000000"/>
<path class="note" d="M 232.5 153.4 Q 231.6 153.4, 231.2 152.7 Q 230.8 152.1, 230.8 150.9 Q 230.8 149.7, 231.2 149.0 Q 231.6 148.4, 232.5 148.4 Q 233.5 148.4, 233.9 149.0 Q 234.3 149.7, 234.3 150.9 Q 234.3 152.1, 233.9 152.7 Q 233.4 153.4, 232.5 153.4 M 232.5 152.8 Q 233.1 152.8, 233.4 152.4 Q 233.7 151.9, 233.7 150.9 Q 233.7 149.9, 233.4 149.4 Q 233.1 148.9, 232.5 148.9 Q 232.0 148.9, 231.7 149.4 Q 231.4 149.9, 231.4 150.9 Q 231.4 151.9, 231.7 152.4 Q 232.0 152.8, 232.5 152.8 " fill="#000000"/>
<path class="note" d="M 229.5 131.8 L 230.6 131.8 L 230.6 128.1 L 229.4 128.5 L 229.3 128.1 L 230.8 127.4 L 231.3 127.5 L 231.3 131.8 L 232.2 131.8 L 232.2 132.3 L 229.5 132.3 L 229.5 131.8 " fill="#000000"/>
<path class="note" d="M 233.1 131.8 L 234.2 131.8 L 234.2 128.1 L 233.0 128.5 L 232.8 128.1 L 234.3 127.4 L 234.8 127.5 L 234.8 131.8 L 235.8 131.8 L 235.8 132.3 L 233.1 132.3 L 233.1 131.8 " fill="#000000"/>
<path class="note" d="M 204.7 101.1 L 205.7 101.1 L 205.7 97.5 L 204.5 97.8 L 204.4 97.4 L 205.9 96.8 L 206.4 96.9 L 206.4 101.1 L 207.3 101.1 L 207.3 101.7 L 204.7 101.7 L 204.7 101.1 " fill="#000000"/>
<path class="note" d="M 208.0 97.7 Q 208.1 97.3, 208.6 97.0 Q 209.0 96.7, 209.6 96.7 Q 210.3 96.7, 210.8 97.1 Q 211.2 97.5, 211.2 98.3 Q 211.2 99.0, 210.6 99.7 Q 210.1 100.3, 209.0 101.1 L 211.2 101.1 L 211.2 101.7 L 207.9 101.7 L 207.9 101.2 Q 208.9 100.6, 209.4 100.1 Q 209.9 99.6, 210.2 99.2 Q 210.5 98.7, 210.5 98.3 Q 210.5 97.8, 210.2 97.6 Q 210.0 97.3, 209.6 97.3 Q 209.2 97.3, 208.9 97.5 Q 208.7 97.6, 208.5 98.0 L 208.0 97.7 " fill="#000000"/>
<path class="note" d="M 273.8 104.9 L 274.9 104.9 L 274.9 101.2 L 273.7 101.6 L 273.5 101.2 L 275.0 100.5 L 275.5 100.6 L 275.5 104.9 L 276.5 104.9 L 276.5 105.4 L 273.8 105.4 L 273.8 104.9 " fill="#000000"/>
<path class="note" d="M 279.5 102.8 Q 279.9 103.0, 280.2 103.3 Q 280.4 103.6, 280.4 104.1 Q 280.4 104.5, 280.2 104.8 Q 280.0 105.1, 279.6 105.3 Q 279.2 105.5, 278.7 105.5 Q 278.2 105.5, 277.8 105.3 Q 277.4 105.1, 277.1 104.7 L 277.5 104.3 Q 277.8 104.7, 278.1 104.8 Q 278.3 104.9, 278.7 104.9 Q 279.2 104.9, 279.4 104.7 Q 279.7 104.5, 279.7 104.1 Q 279.7 103.6, 279.4 103.3 Q 279.1 103.1, 278.5 103.1 L 278.2 103.1 L 278.2 102.6 L 278.5 102.6 Q 279.0 102.6, 279.3 102.4 Q 279.6 102.1, 279.6 101.7 Q 279.6 101.4, 279.4 101.2 Q 279.1 101.0, 278.7 101.0 Q 278.3 101.0, 278.1 101.2 Q 277.8 101.3, 277.6 101.7 L 277.1 101.4 Q 277.3 101.0, 277.7 100.7 Q 278.1 100.5, 278.7 100.5 Q 279.4 100.5, 279.9 100.8 Q 280.3 101.1, 280.3 101.7 Q 280.3 102.1, 280.1 102.4 Q 279.9 102.7, 279.5 102.8 " fill="#000000"/>
<path class="note" d="M 267.6 61.7 L 268.7 61.7 L 268.7 58.0 L 267.5 58.4 L 267.4 58.0 L 268.9 57.3 L 269.4 57.4 L 269.4 61.7 L 270.3 61.7 L 270.3 62.2 L 267.6 62.2 L 267.6 61.7 " fill="#000000"/>
<path class="note" d="M 274.1 60.5 L 274.7 60.5 L 274.7 61.1 L 274.1 61.1 L 274.1 62.2 L 273.5 62.2 L 273.5 61.1 L 271.0 61.1 L 271.0 60.6 L 273.1 57.3 L 274.1 57.3 L 274.1 60.5 M 271.8 60.5 L 273.5 60.5 L 273.5 57.8 L 271.8 60.5 " fill="#000000"/>
<path class="note" d="M 266.4 193.9 L 267.4 193.9 L 267.4 190.2 L 266.3 190.6 L 266.1 190.1 L 267.6 189.5 L 268.1 189.6 L 268.1 193.9 L 269.1 193.9 L 269.1 194.4 L 266.4 194.4 L 266.4 193.9 " fill="#000000"/>
<path class="note" d="M 271.4 191.3 Q 271.9 191.3, 272.2 191.5 Q 272.6 191.7, 272.8 192.1 Q 273.0 192.4, 273.0 192.9 Q 273.0 193.4, 272.7 193.7 Q 272.5 194.1, 272.1 194.3 Q 271.7 194.5, 271.2 194.5 Q 270.8 194.5, 270.4 194.3 Q 269.9 194.1, 269.7 193.8 L 270.1 193.4 Q 270.3 193.6, 270.6 193.8 Q 270.9 193.9, 271.2 193.9 Q 271.7 193.9, 272.0 193.6 Q 272.3 193.4, 272.3 192.9 Q 272.3 192.4, 272.0 192.1 Q 271.7 191.9, 271.2 191.9 Q 270.8 191.9, 270.3 192.0 L 269.9 191.9 L 270.1 189.5 L 272.7 189.5 L 272.6 190.1 L 270.7 190.1 L 270.6 191.5 Q 271.0 191.3, 271.4 191.3 " fill="#000000"/>
<path class="note" d="M 184.7 210.8 L 185.7 210.8 L 185.7 207.2 L 184.6 207.5 L 184.4 207.1 L 185.9 206.5 L 186.4 206.5 L 186.4 210.8 L 187.4 210.8 L 187.4 211.4 L 184.7 211.4 L 184.7 210.8 " fill="#000000"/>
<path class="note" d="M 189.9 208.3 Q 190.3 208.3, 190.7 208.5 Q 191.0 208.7, 191.2 209.0 Q 191.4 209.4, 191.4 209.8 Q 191.4 210.3, 191.2 210.7 Q 190.9 211.0, 190.6 211.2 Q 190.2 211.4, 189.7 211.4 Q 188.8 211.4, 188.4 210.9 Q 188.0 210.3, 188.0 209.1 Q 188.0 207.8, 188.5 207.1 Q 189.1 206.4, 190.1 206.4 Q 190.4 206.4, 190.7 206.5 Q 190.9 206.6, 191.2 206.7 L 190.9 207.2 Q 190.5 207.0, 190.1 207.0 Q 189.4 207.0, 189.1 207.4 Q 188.7 207.9, 188.7 208.8 Q 188.9 208.6, 189.2 208.5 Q 189.5 208.3, 189.9 208.3 M 189.7 210.9 Q 190.0 210.9, 190.2 210.7 Q 190.4 210.6, 190.6 210.4 Q 190.7 210.1, 190.7 209.8 Q 190.7 209.4, 190.4 209.1 Q 190.2 208.9, 189.8 208.9 Q 189.5 208.9, 189.2 209.0 Q 188.9 209.1, 188.7 209.3 Q 188.7 210.1, 189.0 210.5 Q 189.2 210.9, 189.7 210.9 " fill="#000000"/>
<path class="note" d="M 151.8 157.3 L 152.8 157.3 L 152.8 153.7 L 151.7 154.0 L 151.5 153.6 L 153.0 152.9 L 153.5 153.0 L 153.5 157.3 L 154.5 157.3 L 154.5 157.9 L 151.8 157.9 L 151.8 157.3 " fill="#000000"/>
<path class="note" d="M 157.6 153.5 L 155.1 153.5 L 155.1 153.0 L 158.3 153.0 L 158.3 153.5 L 156.3 157.9 L 155.7 157.9 L 157.6 153.5 " fill="#000000"/>
<path class="note" d="M 162.8 205.4 L 163.9 205.4 L 163.9 201.7 L 162.7 202.1 L 162.5 201.7 L 164.0 201.0 L 164.5 201.1 L 164.5 205.4 L 165.5 205.4 L 165.5 206.0 L 162.8 206.0 L 162.8 205.4 " fill="#000000"/>
<path class="note" d="M 168.6 203.4 Q 169.0 203.5, 169.3 203.8 Q 169.6 204.1, 169.6 204.6 Q 169.6 205.0, 169.3 205.4 Q 169.1 205.7, 168.7 205.9 Q 168.4 206.0, 167.8 206.0 Q 167.0 206.0, 166.6 205.6 Q 166.1 205.3, 166.1 204.6 Q 166.1 204.2, 166.3 203.9 Q 166.5 203.6, 166.9 203.4 Q 166.6 203.2, 166.4 202.9 Q 166.3 202.7, 166.3 202.2 Q 166.3 201.7, 166.7 201.3 Q 167.1 201.0, 167.8 201.0 Q 168.5 201.0, 168.9 201.3 Q 169.4 201.7, 169.4 202.2 Q 169.4 202.6, 169.2 202.9 Q 169.0 203.1, 168.6 203.4 M 167.8 201.5 Q 167.4 201.5, 167.2 201.7 Q 167.0 201.9, 167.0 202.2 Q 167.0 202.5, 167.1 202.7 Q 167.3 202.8, 167.5 202.9 Q 167.7 203.0, 168.1 203.2 Q 168.4 203.0, 168.5 202.8 Q 168.7 202.5, 168.7 202.2 Q 168.7 201.9, 168.4 201.7 Q 168.2 201.5, 167.8 201.5 M 167.8 205.5 Q 168.3 205.5, 168.6 205.3 Q 168.9 205.0, 168.9 204.6 Q 168.9 204.3, 168.7 204.2 Q 168.6 204.0, 168.3 203.9 Q 168.1 203.8, 167.7 203.7 L 167.4 203.6 Q 167.1 203.8, 166.9 204.0 Q 166.8 204.3, 166.8 204.6 Q 166.8 205.0, 167.1 205.3 Q 167.4 205.5, 167.8 205.5 " fill="#000000"/>
<path class="note" d="M 116.8 51.8 L 117.9 51.8 L 117.9 48.2 L 116.7 48.5 L 116.5 48.1 L 118.0 47.4 L 118.5 47.5 L 118.5 51.8 L 119.5 51.8 L 119.5 52.4 L 116.8 52.4 L 116.8 51.8 " fill="#000000"/>
<path class="note" d="M 121.7 47.4 Q 122.6 47.4, 123.0 48.0 Q 123.5 48.6, 123.5 49.8 Q 123.5 51.1, 122.9 51.8 Q 122.4 52.4, 121.3 52.4 Q 121.0 52.4, 120.8 52.4 Q 120.5 52.3, 120.3 52.1 L 120.5 51.7 Q 120.9 51.9, 121.3 51.9 Q 122.0 51.9, 122.4 51.4 Q 122.7 51.0, 122.8 50.1 Q 122.5 50.3, 122.2 50.4 Q 121.9 50.5, 121.6 50.5 Q 121.1 50.5, 120.8 50.3 Q 120.5 50.2, 120.3 49.8 Q 120.1 49.5, 120.1 49.0 Q 120.1 48.6, 120.3 48.2 Q 120.5 47.8, 120.9 47.6 Q 121.2 47.4, 121.7 47.4 M 120.8 49.0 Q 120.8 49.5, 121.0 49.7 Q 121.3 50.0, 121.7 50.0 Q 122.0 50.0, 122.3 49.9 Q 122.6 49.7, 122.8 49.5 Q 122.8 48.7, 122.5 48.3 Q 122.2 48.0, 121.7 48.0 Q 121.5 48.0, 121.2 48.1 Q 121.0 48.3, 120.9 48.5 Q 120.8 48.7, 120.8 49.0 " fill="#000000"/>
<path class="note" d="M 42.8 64.0 Q 42.9 63.6, 43.4 63.3 Q 43.8 63.1, 44.4 63.1 Q 45.1 63.1, 45.5 63.5 Q 46.0 63.9, 46.0 64.6 Q 46.0 65.3, 45.4 66.0 Q 44.9 66.7, 43.8 67.5 L 46.0 67.5 L 46.0 68.0 L 42.7 68.0 L 42.7 67.6 Q 43.7 66.9, 44.2 66.4 Q 44.7 65.9, 45.0 65.5 Q 45.3 65.1, 45.3 64.6 Q 45.3 64.1, 45.0 63.9 Q 44.8 63.6, 44.4 63.6 Q 44.0 63.6, 43.7 63.8 Q 43.5 63.9, 43.3 64.3 L 42.8 64.0 " fill="#000000"/>
<path class="note" d="M 48.6 68.1 Q 47.7 68.1, 47.2 67.4 Q 46.8 66.7, 46.8 65.6 Q 46.8 64.4, 47.2 63.7 Q 47.7 63.1, 48.6 63.1 Q 49.5 63.1, 49.9 63.7 Q 50.4 64.4, 50.4 65.6 Q 50.4 66.7, 49.9 67.4 Q 49.5 68.1, 48.6 68.1 M 48.6 67.5 Q 49.1 67.5, 49.4 67.0 Q 49.7 66.5, 49.7 65.6 Q 49.7 64.6, 49.4 64.1 Q 49.1 63.6, 48.6 63.6 Q 48.1 63.6, 47.8 64.1 Q 47.5 64.6, 47.5 65.6 Q 47.5 66.5, 47.8 67.0 Q 48.1 67.5, 48.6 67.5 " fill="#000000"/>
<path class="note" d="M 23.1 130.4 Q 23.3 129.9, 23.7 129.7 Q 24.1 129.4, 24.7 129.4 Q 25.4 129.4, 25.9 129.8 Q 26.3 130.2, 26.3 130.9 Q 26.3 131.6, 25.7 132.3 Q 25.2 133.0, 24.1 133.8 L 26.4 133.8 L 26.4 134.4 L 23.1 134.4 L 23.1 133.9 Q 24.0 133.2, 24.5 132.8 Q 25.1 132.3, 25.3 131.8 Q 25.6 131.4, 25.6 130.9 Q 25.6 130.5, 25.4 130.2 Q 25.1 130.0, 24.7 130.0 Q 24.3 130.0, 24.0 130.1 Q 23.8 130.3, 23.6 130.6 L 23.1 130.4 " fill="#000000"/>
<path class="note" d="M 27.4 133.8 L 28.4 133.8 L 28.4 130.1 L 27.3 130.5 L 27.1 130.1 L 28.6 129.4 L 29.1 129.5 L 29.1 133.8 L 30.0 133.8 L 30.0 134.4 L 27.4 134.4 L 27.4 133.8 " fill="#000000"/>
<path class="note" d="M 99.3 228.6 Q 99.5 228.1, 99.9 227.9 Q 100.4 227.6, 101.0 227.6 Q 101.7 227.6, 102.1 228.0 Q 102.5 228.4, 102.5 229.1 Q 102.5 229.9, 102.0 230.6 Q 101.5 231.2, 100.4 232.0 L 102.6 232.0 L 102.6 232.6 L 99.3 232.6 L 99.3 232.1 Q 100.2 231.5, 100.8 231.0 Q 101.3 230.5, 101.6 230.1 Q 101.8 229.6, 101.8 229.2 Q 101.8 228.7, 101.6 228.4 Q 101.4 228.2, 101.0 228.2 Q 100.6 228.2, 100.3 228.3 Q 100.0 228.5, 99.9 228.9 L 99.3 228.6 " fill="#000000"/>
<path class="note" d="M 103.4 228.6 Q 103.6 228.1, 104.0 227.9 Q 104.4 227.6, 105.0 227.6 Q 105.8 227.6, 106.2 228.0 Q 106.6 228.4, 106.6 229.1 Q 106.6 229.9, 106.1 230.6 Q 105.5 231.2, 104.4 232.0 L 106.7 232.0 L 106.7 232.6 L 103.4 232.6 L 103.4 232.1 Q 104.3 231.5, 104.8 231.0 Q 105.4 230.5, 105.6 230.1 Q 105.9 229.6, 105.9 229.2 Q 105.9 228.7, 105.7 228.4 Q 105.4 228.2, 105.0 228.2 Q 104.6 228.2, 104.4 228.3 Q 104.1 228.5, 103.9 228.9 L 103.4 228.6 " fill="#000000"/>
<path class="bond-0 atom-0 atom-1" d="M 442.4,166.9 L 407.8,168.7" style="fill:none;fill-rule:evenodd;stroke:#000000;stroke-width:2.0px;stroke-linecap:butt;stroke-linejoin:miter;stroke-opacity:1"/>
<path class="bond-1 atom-1 atom-2" d="M 407.8,168.7 L 388.9,139.7" style="fill:none;fill-rule:evenodd;stroke:#000000;stroke-width:2.0px;stroke-linecap:butt;stroke-linejoin:miter;stroke-opacity:1"/>
<path class="bond-2 atom-2 atom-3" d="M 388.9,139.7 L 404.7,108.8" style="fill:none;fill-rule:evenodd;stroke:#000000;stroke-width:2.0px;stroke-linecap:butt;stroke-linejoin:miter;stroke-opacity:1"/>
<path class="bond-3 atom-3 atom-4" d="M 404.7,108.8 L 439.3,107.0" style="fill:none;fill-rule:evenodd;stroke:#000000;stroke-width:2.0px;stroke-linecap:butt;stroke-linejoin:miter;stroke-opacity:1"/>
<path class="bond-4 atom-4 atom-5" d="M 439.3,107.0 L 446.7,118.5" style="fill:none;fill-rule:evenodd;stroke:#000000;stroke-width:2.0px;stroke-linecap:butt;stroke-linejoin:miter;stroke-opacity:1"/>
<path class="bond-4 atom-4 atom-5" d="M 446.7,118.5 L 454.2,130.0" style="fill:none;fill-rule:evenodd;stroke:#0000FF;stroke-width:2.0px;stroke-linecap:butt;stroke-linejoin:miter;stroke-opacity:1"/>
<path class="bond-5 atom-5 atom-6" d="M 469.1,135.5 L 480.9,134.9" style="fill:none;fill-rule:evenodd;stroke:#0000FF;stroke-width:2.0px;stroke-linecap:butt;stroke-linejoin:miter;stroke-opacity:1"/>
<path class="bond-5 atom-5 atom-6" d="M 480.9,134.9 L 492.7,134.3" style="fill:none;fill-rule:evenodd;stroke:#000000;stroke-width:2.0px;stroke-linecap:butt;stroke-linejoin:miter;stroke-opacity:1"/>
<path class="bond-6 atom-6 atom-7" d="M 492.7,134.3 L 511.6,163.4" style="fill:none;fill-rule:evenodd;stroke:#000000;stroke-width:2.0px;stroke-linecap:butt;stroke-linejoin:miter;stroke-opacity:1"/>
<path class="bond-7 atom-7 atom-8" d="M 511.6,163.4 L 526.0,162.6" style="fill:none;fill-rule:evenodd;stroke:#000000;stroke-width:2.0px;stroke-linecap:butt;stroke-linejoin:miter;stroke-opacity:1"/>
<path class="bond-7 atom-7 atom-8" d="M 526.0,162.6 L 540.5,161.9" style="fill:none;fill-rule:evenodd;stroke:#FF0000;stroke-width:2.0px;stroke-linecap:butt;stroke-linejoin:miter;stroke-opacity:1"/>
<path class="bond-8 atom-4 atom-9" d="M 439.3,107.0 L 452.1,76.3 L 458.2,76.0 Z" style="fill:#000000;fill-rule:evenodd;fill-opacity:1;stroke:#000000;stroke-width:0.5px;stroke-linecap:butt;stroke-linejoin:miter;stroke-opacity:1;"/>
<path class="bond-9 atom-9 atom-10" d="M 452.1,76.3 L 469.5,75.4" style="fill:none;fill-rule:evenodd;stroke:#000000;stroke-width:2.0px;stroke-linecap:butt;stroke-linejoin:miter;stroke-opacity:1"/>
<path class="bond-9 atom-9 atom-10" d="M 469.5,75.4 L 484.0,74.7" style="fill:none;fill-rule:evenodd;stroke:#FF0000;stroke-width:2.0px;stroke-linecap:butt;stroke-linejoin:miter;stroke-opacity:1"/>
<path class="bond-10 atom-3 atom-11" d="M 402.4,105.9 L 403.0,105.5" style="fill:none;fill-rule:evenodd;stroke:#000000;stroke-width:1.0px;stroke-linecap:butt;stroke-linejoin:miter;stroke-opacity:1"/>
<path class="bond-10 atom-3 atom-11" d="M 400.0,103.0 L 401.3,102.2" style="fill:none;fill-rule:evenodd;stroke:#000000;stroke-width:1.0px;stroke-linecap:butt;stroke-linejoin:miter;stroke-opacity:1"/>
<path class="bond-10 atom-3 atom-11" d="M 397.7,100.1 L 399.6,98.9" style="fill:none;fill-rule:evenodd;stroke:#000000;stroke-width:1.0px;stroke-linecap:butt;stroke-linejoin:miter;stroke-opacity:1"/>
<path class="bond-10 atom-3 atom-11" d="M 395.4,97.2 L 397.9,95.6" style="fill:none;fill-rule:evenodd;stroke:#FF0000;stroke-width:1.0px;stroke-linecap:butt;stroke-linejoin:miter;stroke-opacity:1"/>
<path class="bond-10 atom-3 atom-11" d="M 393.1,94.3 L 396.2,92.3" style="fill:none;fill-rule:evenodd;stroke:#FF0000;stroke-width:1.0px;stroke-linecap:butt;stroke-linejoin:miter;stroke-opacity:1"/>
<path class="bond-10 atom-3 atom-11" d="M 390.8,91.4 L 394.5,89.0" style="fill:none;fill-rule:evenodd;stroke:#FF0000;stroke-width:1.0px;stroke-linecap:butt;stroke-linejoin:miter;stroke-opacity:1"/>
<path class="bond-10 atom-3 atom-11" d="M 388.4,88.5 L 392.8,85.7" style="fill:none;fill-rule:evenodd;stroke:#FF0000;stroke-width:1.0px;stroke-linecap:butt;stroke-linejoin:miter;stroke-opacity:1"/>
<path class="bond-11 atom-2 atom-12" d="M 388.9,139.7 L 375.1,141.7 L 375.0,139.1 Z" style="fill:#000000;fill-rule:evenodd;fill-opacity:1;stroke:#000000;stroke-width:0.5px;stroke-linecap:butt;stroke-linejoin:miter;stroke-opacity:1;"/>
<path class="bond-11 atom-2 atom-12" d="M 375.1,141.7 L 361.0,138.5 L 361.2,143.7 Z" style="fill:#FF0000;fill-rule:evenodd;fill-opacity:1;stroke:#FF0000;stroke-width:0.5px;stroke-linecap:butt;stroke-linejoin:miter;stroke-opacity:1;"/>
<path class="bond-11 atom-2 atom-12" d="M 375.1,141.7 L 375.0,139.1 L 361.0,138.5 Z" style="fill:#FF0000;fill-rule:evenodd;fill-opacity:1;stroke:#FF0000;stroke-width:0.5px;stroke-linecap:butt;stroke-linejoin:miter;stroke-opacity:1;"/>
<path class="bond-12 atom-1 atom-13" d="M 406.6,171.8 L 406.0,171.5" style="fill:none;fill-rule:evenodd;stroke:#000000;stroke-width:1.0px;stroke-linecap:butt;stroke-linejoin:miter;stroke-opacity:1"/>
<path class="bond-12 atom-1 atom-13" d="M 405.3,174.9 L 404.2,174.3" style="fill:none;fill-rule:evenodd;stroke:#000000;stroke-width:1.0px;stroke-linecap:butt;stroke-linejoin:miter;stroke-opacity:1"/>
<path class="bond-12 atom-1 atom-13" d="M 404.1,178.0 L 402.4,177.1" style="fill:none;fill-rule:evenodd;stroke:#000000;stroke-width:1.0px;stroke-linecap:butt;stroke-linejoin:miter;stroke-opacity:1"/>
<path class="bond-12 atom-1 atom-13" d="M 402.9,181.1 L 400.6,179.9" style="fill:none;fill-rule:evenodd;stroke:#000000;stroke-width:1.0px;stroke-linecap:butt;stroke-linejoin:miter;stroke-opacity:1"/>
<path class="bond-12 atom-1 atom-13" d="M 401.7,184.2 L 398.8,182.7" style="fill:none;fill-rule:evenodd;stroke:#FF0000;stroke-width:1.0px;stroke-linecap:butt;stroke-linejoin:miter;stroke-opacity:1"/>
<path class="bond-12 atom-1 atom-13" d="M 400.5,187.3 L 397.0,185.6" style="fill:none;fill-rule:evenodd;stroke:#FF0000;stroke-width:1.0px;stroke-linecap:butt;stroke-linejoin:miter;stroke-opacity:1"/>
<path class="bond-12 atom-1 atom-13" d="M 399.2,190.4 L 395.2,188.4" style="fill:none;fill-rule:evenodd;stroke:#FF0000;stroke-width:1.0px;stroke-linecap:butt;stroke-linejoin:miter;stroke-opacity:1"/>
<path class="bond-12 atom-1 atom-13" d="M 398.0,193.5 L 393.4,191.2" style="fill:none;fill-rule:evenodd;stroke:#FF0000;stroke-width:1.0px;stroke-linecap:butt;stroke-linejoin:miter;stroke-opacity:1"/>
<path class="bond-13 atom-5 atom-0" d="M 453.1,145.8 L 447.8,156.4" style="fill:none;fill-rule:evenodd;stroke:#0000FF;stroke-width:2.0px;stroke-linecap:butt;stroke-linejoin:miter;stroke-opacity:1"/>
<path class="bond-13 atom-5 atom-0" d="M 447.8,156.4 L 442.4,166.9" style="fill:none;fill-rule:evenodd;stroke:#000000;stroke-width:2.0px;stroke-linecap:butt;stroke-linejoin:miter;stroke-opacity:1"/>
<path d="M 440.6,167.0 L 442.4,166.9 L 442.6,166.4" style="fill:none;stroke:#000000;stroke-width:2.0px;stroke-linecap:butt;stroke-linejoin:miter;stroke-opacity:1;"/>
<path d="M 409.5,168.6 L 407.8,168.7 L 406.8,167.3" style="fill:none;stroke:#000000;stroke-width:2.0px;stroke-linecap:butt;stroke-linejoin:miter;stroke-opacity:1;"/>
<path d="M 389.9,141.1 L 388.9,139.7 L 389.7,138.1" style="fill:none;stroke:#000000;stroke-width:2.0px;stroke-linecap:butt;stroke-linejoin:miter;stroke-opacity:1;"/>
<path d="M 403.9,110.3 L 404.7,108.8 L 406.4,108.7" style="fill:none;stroke:#000000;stroke-width:2.0px;stroke-linecap:butt;stroke-linejoin:miter;stroke-opacity:1;"/>
<path d="M 437.5,107.1 L 439.3,107.0 L 439.6,107.6" style="fill:none;stroke:#000000;stroke-width:2.0px;stroke-linecap:butt;stroke-linejoin:miter;stroke-opacity:1;"/>
<path d="M 492.1,134.3 L 492.7,134.3 L 493.7,135.8" style="fill:none;stroke:#000000;stroke-width:2.0px;stroke-linecap:butt;stroke-linejoin:miter;stroke-opacity:1;"/>
<path d="M 510.6,161.9 L 511.6,163.4 L 512.3,163.3" style="fill:none;stroke:#000000;stroke-width:2.0px;stroke-linecap:butt;stroke-linejoin:miter;stroke-opacity:1;"/>
<path class="atom-5" d="M 455.9 131.2 L 459.2 136.4 Q 459.5 136.9, 460.0 137.8 Q 460.5 138.7, 460.5 138.8 L 460.5 131.2 L 461.8 131.2 L 461.8 141.0 L 460.5 141.0 L 457.0 135.3 Q 456.6 134.6, 456.2 133.9 Q 455.8 133.1, 455.7 132.9 L 455.7 141.0 L 454.4 141.0 L 454.4 131.2 L 455.9 131.2 " fill="#0000FF"/>
<path class="atom-5" d="M 463.7 132.9 L 465.4 132.9 L 465.4 131.1 L 466.2 131.1 L 466.2 132.9 L 468.0 132.9 L 468.0 133.6 L 466.2 133.6 L 466.2 135.4 L 465.4 135.4 L 465.4 133.6 L 463.7 133.6 L 463.7 132.9 " fill="#0000FF"/>
<path class="atom-5" d="M 454.3 142.0 L 455.6 142.0 L 455.6 146.1 L 460.6 146.1 L 460.6 142.0 L 462.0 142.0 L 462.0 151.8 L 460.6 151.8 L 460.6 147.3 L 455.6 147.3 L 455.6 151.8 L 454.3 151.8 L 454.3 142.0 " fill="#0000FF"/>
<path class="atom-8" d="M 541.7 161.6 Q 541.7 159.2, 542.8 157.9 Q 544.0 156.6, 546.2 156.6 Q 548.3 156.6, 549.5 157.9 Q 550.7 159.2, 550.7 161.6 Q 550.7 164.0, 549.5 165.3 Q 548.3 166.7, 546.2 166.7 Q 544.0 166.7, 542.8 165.3 Q 541.7 164.0, 541.7 161.6 M 546.2 165.6 Q 547.7 165.6, 548.5 164.6 Q 549.3 163.6, 549.3 161.6 Q 549.3 159.7, 548.5 158.7 Q 547.7 157.7, 546.2 157.7 Q 544.7 157.7, 543.8 158.7 Q 543.0 159.7, 543.0 161.6 Q 543.0 163.6, 543.8 164.6 Q 544.7 165.6, 546.2 165.6 " fill="#FF0000"/>
<path class="atom-8" d="M 552.2 156.7 L 553.5 156.7 L 553.5 160.9 L 558.5 160.9 L 558.5 156.7 L 559.9 156.7 L 559.9 166.5 L 558.5 166.5 L 558.5 162.0 L 553.5 162.0 L 553.5 166.5 L 552.2 166.5 L 552.2 156.7 " fill="#FF0000"/>
<path class="atom-10" d="M 485.1 74.4 Q 485.1 72.0, 486.3 70.7 Q 487.4 69.4, 489.6 69.4 Q 491.8 69.4, 493.0 70.7 Q 494.1 72.0, 494.1 74.4 Q 494.1 76.8, 492.9 78.1 Q 491.8 79.5, 489.6 79.5 Q 487.5 79.5, 486.3 78.1 Q 485.1 76.8, 485.1 74.4 M 489.6 78.4 Q 491.1 78.4, 491.9 77.4 Q 492.7 76.4, 492.7 74.4 Q 492.7 72.5, 491.9 71.5 Q 491.1 70.5, 489.6 70.5 Q 488.1 70.5, 487.3 71.5 Q 486.5 72.5, 486.5 74.4 Q 486.5 76.4, 487.3 77.4 Q 488.1 78.4, 489.6 78.4 " fill="#FF0000"/>
<path class="atom-10" d="M 495.7 69.5 L 497.0 69.5 L 497.0 73.7 L 502.0 73.7 L 502.0 69.5 L 503.3 69.5 L 503.3 79.3 L 502.0 79.3 L 502.0 74.8 L 497.0 74.8 L 497.0 79.3 L 495.7 79.3 L 495.7 69.5 " fill="#FF0000"/>
<path class="atom-11" d="M 371.6 74.9 L 373.0 74.9 L 373.0 79.1 L 378.0 79.1 L 378.0 74.9 L 379.3 74.9 L 379.3 84.7 L 378.0 84.7 L 378.0 80.2 L 373.0 80.2 L 373.0 84.7 L 371.6 84.7 L 371.6 74.9 " fill="#FF0000"/>
<path class="atom-11" d="M 381.3 79.8 Q 381.3 77.4, 382.5 76.1 Q 383.6 74.8, 385.8 74.8 Q 388.0 74.8, 389.2 76.1 Q 390.3 77.4, 390.3 79.8 Q 390.3 82.1, 389.2 83.5 Q 388.0 84.8, 385.8 84.8 Q 383.7 84.8, 382.5 83.5 Q 381.3 82.2, 381.3 79.8 M 385.8 83.7 Q 387.3 83.7, 388.1 82.7 Q 388.9 81.7, 388.9 79.8 Q 388.9 77.8, 388.1 76.9 Q 387.3 75.9, 385.8 75.9 Q 384.3 75.9, 383.5 76.9 Q 382.7 77.8, 382.7 79.8 Q 382.7 81.7, 383.5 82.7 Q 384.3 83.7, 385.8 83.7 " fill="#FF0000"/>
<path class="atom-12" d="M 340.1 136.6 L 341.5 136.6 L 341.5 140.8 L 346.5 140.8 L 346.5 136.6 L 347.8 136.6 L 347.8 146.4 L 346.5 146.4 L 346.5 141.9 L 341.5 141.9 L 341.5 146.4 L 340.1 146.4 L 340.1 136.6 " fill="#FF0000"/>
<path class="atom-12" d="M 349.8 141.5 Q 349.8 139.1, 351.0 137.8 Q 352.1 136.5, 354.3 136.5 Q 356.5 136.5, 357.7 137.8 Q 358.8 139.1, 358.8 141.5 Q 358.8 143.9, 357.6 145.2 Q 356.5 146.6, 354.3 146.6 Q 352.2 146.6, 351.0 145.2 Q 349.8 143.9, 349.8 141.5 M 354.3 145.5 Q 355.8 145.5, 356.6 144.5 Q 357.4 143.4, 357.4 141.5 Q 357.4 139.5, 356.6 138.6 Q 355.8 137.6, 354.3 137.6 Q 352.8 137.6, 352.0 138.6 Q 351.2 139.5, 351.2 141.5 Q 351.2 143.5, 352.0 144.5 Q 352.8 145.5, 354.3 145.5 " fill="#FF0000"/>
<path class="atom-13" d="M 377.8 194.7 L 379.2 194.7 L 379.2 198.9 L 384.2 198.9 L 384.2 194.7 L 385.5 194.7 L 385.5 204.5 L 384.2 204.5 L 384.2 200.0 L 379.2 200.0 L 379.2 204.5 L 377.8 204.5 L 377.8 194.7 " fill="#FF0000"/>
<path class="atom-13" d="M 387.5 199.6 Q 387.5 197.3, 388.7 195.9 Q 389.8 194.6, 392.0 194.6 Q 394.2 194.6, 395.4 195.9 Q 396.5 197.3, 396.5 199.6 Q 396.5 202.0, 395.3 203.4 Q 394.2 204.7, 392.0 204.7 Q 389.9 204.7, 388.7 203.4 Q 387.5 202.0, 387.5 199.6 M 392.0 203.6 Q 393.5 203.6, 394.3 202.6 Q 395.1 201.6, 395.1 199.6 Q 395.1 197.7, 394.3 196.7 Q 393.5 195.7, 392.0 195.7 Q 390.5 195.7, 389.7 196.7 Q 388.9 197.7, 388.9 199.6 Q 388.9 201.6, 389.7 202.6 Q 390.5 203.6, 392.0 203.6 " fill="#FF0000"/>
<path class="note" d="M 445.5 174.3 Q 444.6 174.3, 444.2 173.7 Q 443.7 173.0, 443.7 171.8 Q 443.7 170.6, 444.2 170.0 Q 444.6 169.3, 445.5 169.3 Q 446.4 169.3, 446.9 170.0 Q 447.3 170.6, 447.3 171.8 Q 447.3 173.0, 446.9 173.7 Q 446.4 174.3, 445.5 174.3 M 445.5 173.8 Q 446.0 173.8, 446.3 173.3 Q 446.6 172.8, 446.6 171.8 Q 446.6 170.8, 446.3 170.4 Q 446.0 169.9, 445.5 169.9 Q 445.0 169.9, 444.7 170.4 Q 444.4 170.8, 444.4 171.8 Q 444.4 172.8, 444.7 173.3 Q 445.0 173.8, 445.5 173.8 " fill="#000000"/>
<path class="note" d="M 409.2 165.5 L 410.3 165.5 L 410.3 161.8 L 409.1 162.2 L 408.9 161.8 L 410.4 161.1 L 410.9 161.2 L 410.9 165.5 L 411.9 165.5 L 411.9 166.1 L 409.2 166.1 L 409.2 165.5 " fill="#000000"/>
<path class="note" d="M 393.0 137.9 Q 393.2 137.4, 393.7 137.1 Q 394.1 136.9, 394.7 136.9 Q 395.4 136.9, 395.8 137.3 Q 396.3 137.7, 396.3 138.4 Q 396.3 139.1, 395.7 139.8 Q 395.2 140.5, 394.1 141.3 L 396.3 141.3 L 396.3 141.8 L 393.0 141.8 L 393.0 141.4 Q 393.9 140.7, 394.5 140.2 Q 395.0 139.8, 395.3 139.3 Q 395.6 138.9, 395.6 138.4 Q 395.6 138.0, 395.3 137.7 Q 395.1 137.4, 394.7 137.4 Q 394.3 137.4, 394.0 137.6 Q 393.8 137.8, 393.6 138.1 L 393.0 137.9 " fill="#000000"/>
<path class="note" d="M 408.5 113.5 Q 409.0 113.7, 409.2 114.0 Q 409.5 114.3, 409.5 114.8 Q 409.5 115.2, 409.3 115.5 Q 409.0 115.8, 408.7 116.0 Q 408.3 116.2, 407.8 116.2 Q 407.3 116.2, 406.9 116.0 Q 406.5 115.8, 406.2 115.5 L 406.6 115.1 Q 406.9 115.4, 407.1 115.5 Q 407.4 115.6, 407.8 115.6 Q 408.2 115.6, 408.5 115.4 Q 408.8 115.2, 408.8 114.8 Q 408.8 114.3, 408.5 114.1 Q 408.2 113.8, 407.6 113.8 L 407.3 113.8 L 407.3 113.3 L 407.6 113.3 Q 408.1 113.3, 408.4 113.1 Q 408.7 112.9, 408.7 112.4 Q 408.7 112.1, 408.4 111.9 Q 408.2 111.7, 407.8 111.7 Q 407.4 111.7, 407.1 111.9 Q 406.9 112.0, 406.7 112.4 L 406.2 112.1 Q 406.4 111.7, 406.8 111.4 Q 407.2 111.2, 407.8 111.2 Q 408.5 111.2, 408.9 111.5 Q 409.4 111.8, 409.4 112.4 Q 409.4 112.8, 409.1 113.1 Q 408.9 113.4, 408.5 113.5 " fill="#000000"/>
<path class="note" d="M 437.9 112.9 L 438.5 112.9 L 438.5 113.5 L 437.9 113.5 L 437.9 114.6 L 437.3 114.6 L 437.3 113.5 L 434.8 113.5 L 434.8 113.0 L 436.9 109.7 L 437.9 109.7 L 437.9 112.9 M 435.6 112.9 L 437.3 112.9 L 437.3 110.1 L 435.6 112.9 " fill="#000000"/>
<path class="note" d="M 463.5 125.2 Q 463.9 125.2, 464.3 125.4 Q 464.6 125.5, 464.8 125.9 Q 465.0 126.2, 465.0 126.7 Q 465.0 127.2, 464.8 127.6 Q 464.5 127.9, 464.1 128.1 Q 463.7 128.3, 463.3 128.3 Q 462.8 128.3, 462.4 128.1 Q 462.0 128.0, 461.7 127.7 L 462.1 127.2 Q 462.4 127.5, 462.7 127.6 Q 463.0 127.7, 463.3 127.7 Q 463.7 127.7, 464.0 127.5 Q 464.3 127.2, 464.3 126.7 Q 464.3 126.2, 464.0 126.0 Q 463.7 125.7, 463.3 125.7 Q 462.8 125.7, 462.3 125.9 L 462.0 125.7 L 462.2 123.3 L 464.7 123.3 L 464.7 123.9 L 462.8 123.9 L 462.6 125.4 Q 463.1 125.2, 463.5 125.2 " fill="#000000"/>
<path class="note" d="M 495.6 128.6 Q 496.0 128.6, 496.3 128.8 Q 496.7 128.9, 496.9 129.3 Q 497.0 129.6, 497.0 130.1 Q 497.0 130.5, 496.8 130.9 Q 496.6 131.3, 496.2 131.5 Q 495.9 131.7, 495.4 131.7 Q 494.5 131.7, 494.1 131.1 Q 493.6 130.5, 493.6 129.3 Q 493.6 128.0, 494.2 127.4 Q 494.7 126.7, 495.8 126.7 Q 496.1 126.7, 496.3 126.7 Q 496.6 126.8, 496.8 127.0 L 496.6 127.4 Q 496.2 127.2, 495.8 127.2 Q 495.1 127.2, 494.7 127.7 Q 494.4 128.1, 494.3 129.0 Q 494.6 128.8, 494.9 128.7 Q 495.2 128.6, 495.6 128.6 M 495.4 131.1 Q 495.7 131.1, 495.9 131.0 Q 496.1 130.8, 496.2 130.6 Q 496.3 130.4, 496.3 130.1 Q 496.3 129.6, 496.1 129.4 Q 495.9 129.1, 495.4 129.1 Q 495.1 129.1, 494.8 129.3 Q 494.5 129.4, 494.3 129.6 Q 494.4 130.4, 494.6 130.8 Q 494.9 131.1, 495.4 131.1 " fill="#000000"/>
<path class="note" d="M 509.9 166.6 L 507.3 166.6 L 507.3 166.1 L 510.6 166.1 L 510.6 166.5 L 508.6 171.0 L 507.9 171.0 L 509.9 166.6 " fill="#000000"/>
<path class="note" d="M 553.2 171.1 Q 553.7 171.3, 553.9 171.6 Q 554.2 171.9, 554.2 172.4 Q 554.2 172.8, 554.0 173.1 Q 553.7 173.5, 553.4 173.6 Q 553.0 173.8, 552.5 173.8 Q 551.7 173.8, 551.2 173.4 Q 550.7 173.1, 550.7 172.4 Q 550.7 172.0, 550.9 171.7 Q 551.1 171.4, 551.6 171.2 Q 551.2 171.0, 551.1 170.7 Q 550.9 170.5, 550.9 170.0 Q 550.9 169.5, 551.3 169.1 Q 551.7 168.8, 552.4 168.8 Q 553.2 168.8, 553.6 169.1 Q 554.0 169.5, 554.0 170.0 Q 554.0 170.4, 553.8 170.7 Q 553.6 170.9, 553.2 171.1 M 552.4 169.3 Q 552.0 169.3, 551.8 169.5 Q 551.6 169.7, 551.6 170.0 Q 551.6 170.3, 551.7 170.5 Q 551.9 170.6, 552.1 170.7 Q 552.3 170.8, 552.7 171.0 Q 553.0 170.8, 553.2 170.5 Q 553.3 170.3, 553.3 170.0 Q 553.3 169.7, 553.1 169.5 Q 552.9 169.3, 552.4 169.3 M 552.5 173.3 Q 552.9 173.3, 553.2 173.1 Q 553.5 172.8, 553.5 172.4 Q 553.5 172.1, 553.3 172.0 Q 553.2 171.8, 553.0 171.7 Q 552.8 171.6, 552.4 171.5 L 552.1 171.4 Q 551.7 171.6, 551.6 171.8 Q 551.4 172.1, 551.4 172.4 Q 551.4 172.8, 551.7 173.1 Q 552.0 173.3, 552.5 173.3 " fill="#000000"/>
<path class="note" d="M 451.8 68.8 Q 452.7 68.8, 453.1 69.4 Q 453.6 70.0, 453.6 71.2 Q 453.6 72.5, 453.0 73.2 Q 452.5 73.8, 451.4 73.8 Q 451.1 73.8, 450.9 73.8 Q 450.6 73.7, 450.4 73.6 L 450.6 73.1 Q 451.0 73.3, 451.4 73.3 Q 452.1 73.3, 452.5 72.9 Q 452.8 72.4, 452.9 71.5 Q 452.6 71.7, 452.3 71.8 Q 452.0 72.0, 451.7 72.0 Q 451.2 72.0, 450.9 71.8 Q 450.6 71.6, 450.4 71.2 Q 450.2 70.9, 450.2 70.5 Q 450.2 70.0, 450.4 69.6 Q 450.6 69.2, 451.0 69.0 Q 451.3 68.8, 451.8 68.8 M 450.9 70.5 Q 450.9 70.9, 451.1 71.1 Q 451.4 71.4, 451.8 71.4 Q 452.1 71.4, 452.4 71.3 Q 452.7 71.2, 452.9 70.9 Q 452.9 70.1, 452.6 69.8 Q 452.3 69.4, 451.8 69.4 Q 451.6 69.4, 451.3 69.5 Q 451.1 69.7, 451.0 69.9 Q 450.9 70.2, 450.9 70.5 " fill="#000000"/>
<path class="note" d="M 492.6 86.0 L 493.7 86.0 L 493.7 82.3 L 492.5 82.7 L 492.3 82.3 L 493.8 81.6 L 494.3 81.7 L 494.3 86.0 L 495.3 86.0 L 495.3 86.5 L 492.6 86.5 L 492.6 86.0 " fill="#000000"/>
<path class="note" d="M 497.7 86.6 Q 496.8 86.6, 496.3 85.9 Q 495.9 85.3, 495.9 84.1 Q 495.9 82.9, 496.3 82.2 Q 496.8 81.6, 497.7 81.6 Q 498.6 81.6, 499.0 82.2 Q 499.5 82.9, 499.5 84.1 Q 499.5 85.3, 499.0 85.9 Q 498.6 86.6, 497.7 86.6 M 497.7 86.0 Q 498.2 86.0, 498.5 85.6 Q 498.8 85.1, 498.8 84.1 Q 498.8 83.1, 498.5 82.6 Q 498.2 82.1, 497.7 82.1 Q 497.2 82.1, 496.9 82.6 Q 496.6 83.1, 496.6 84.1 Q 496.6 85.1, 496.9 85.6 Q 497.2 86.0, 497.7 86.0 " fill="#000000"/>
<path class="note" d="M 376.6 72.0 L 377.6 72.0 L 377.6 68.3 L 376.4 68.7 L 376.3 68.3 L 377.8 67.6 L 378.3 67.7 L 378.3 72.0 L 379.2 72.0 L 379.2 72.5 L 376.6 72.5 L 376.6 72.0 " fill="#000000"/>
<path class="note" d="M 380.1 72.0 L 381.2 72.0 L 381.2 68.3 L 380.0 68.7 L 379.8 68.3 L 381.3 67.6 L 381.8 67.7 L 381.8 72.0 L 382.8 72.0 L 382.8 72.5 L 380.1 72.5 L 380.1 72.0 " fill="#000000"/>
<path class="note" d="M 344.9 133.7 L 346.0 133.7 L 346.0 130.0 L 344.8 130.4 L 344.6 130.0 L 346.1 129.3 L 346.6 129.4 L 346.6 133.7 L 347.6 133.7 L 347.6 134.2 L 344.9 134.2 L 344.9 133.7 " fill="#000000"/>
<path class="note" d="M 348.2 130.3 Q 348.4 129.8, 348.8 129.5 Q 349.2 129.3, 349.8 129.3 Q 350.6 129.3, 351.0 129.7 Q 351.4 130.1, 351.4 130.8 Q 351.4 131.5, 350.9 132.2 Q 350.3 132.9, 349.2 133.7 L 351.5 133.7 L 351.5 134.2 L 348.2 134.2 L 348.2 133.8 Q 349.1 133.1, 349.6 132.6 Q 350.2 132.2, 350.4 131.7 Q 350.7 131.3, 350.7 130.8 Q 350.7 130.4, 350.5 130.1 Q 350.2 129.8, 349.8 129.8 Q 349.4 129.8, 349.2 130.0 Q 348.9 130.2, 348.7 130.5 L 348.2 130.3 " fill="#000000"/>
<path class="note" d="M 383.6 211.8 L 384.7 211.8 L 384.7 208.1 L 383.5 208.5 L 383.3 208.1 L 384.8 207.4 L 385.3 207.5 L 385.3 211.8 L 386.3 211.8 L 386.3 212.4 L 383.6 212.4 L 383.6 211.8 " fill="#000000"/>
<path class="note" d="M 389.3 209.8 Q 389.7 209.9, 390.0 210.2 Q 390.2 210.5, 390.2 211.0 Q 390.2 211.4, 390.0 211.7 Q 389.8 212.1, 389.4 212.2 Q 389.0 212.4, 388.5 212.4 Q 388.0 212.4, 387.6 212.2 Q 387.2 212.1, 386.9 211.7 L 387.3 211.3 Q 387.6 211.6, 387.9 211.7 Q 388.1 211.9, 388.5 211.9 Q 389.0 211.9, 389.2 211.6 Q 389.5 211.4, 389.5 211.0 Q 389.5 210.5, 389.2 210.3 Q 388.9 210.1, 388.3 210.1 L 388.0 210.1 L 388.0 209.6 L 388.3 209.6 Q 388.8 209.5, 389.1 209.3 Q 389.4 209.1, 389.4 208.6 Q 389.4 208.3, 389.2 208.1 Q 388.9 207.9, 388.5 207.9 Q 388.1 207.9, 387.9 208.1 Q 387.6 208.2, 387.4 208.6 L 386.9 208.3 Q 387.1 207.9, 387.5 207.7 Q 387.9 207.4, 388.5 207.4 Q 389.2 207.4, 389.7 207.7 Q 390.1 208.1, 390.1 208.6 Q 390.1 209.0, 389.9 209.3 Q 389.7 209.6, 389.3 209.8 " fill="#000000"/>
</svg>