<svg xmlns="http://www.w3.org/2000/svg" xmlns:rdkit="http://www.rdkit.org/xml" xmlns:xlink="http://www.w3.org/1999/xlink" version="1.1" baseProfile="full" xml:space="preserve" width="600px" height="280px" viewBox="0 0 600 280">
<!-- END OF HEADER -->
<rect style="opacity:1.0;fill:#FFFFFF;stroke:none" width="600.0" height="280.0" x="0.0" y="0.0"> </rect>
<path class="bond-0 atom-1 atom-0" d="M 85.4,163.7 L 85.9,163.9" style="fill:none;fill-rule:evenodd;stroke:#000000;stroke-width:1.0px;stroke-linecap:butt;stroke-linejoin:miter;stroke-opacity:1"/>
<path class="bond-0 atom-1 atom-0" d="M 84.1,166.9 L 85.2,167.3" style="fill:none;fill-rule:evenodd;stroke:#000000;stroke-width:1.0px;stroke-linecap:butt;stroke-linejoin:miter;stroke-opacity:1"/>
<path class="bond-0 atom-1 atom-0" d="M 82.8,170.2 L 84.5,170.7" style="fill:none;fill-rule:evenodd;stroke:#000000;stroke-width:1.0px;stroke-linecap:butt;stroke-linejoin:miter;stroke-opacity:1"/>
<path class="bond-0 atom-1 atom-0" d="M 81.5,173.4 L 83.7,174.1" style="fill:none;fill-rule:evenodd;stroke:#000000;stroke-width:1.0px;stroke-linecap:butt;stroke-linejoin:miter;stroke-opacity:1"/>
<path class="bond-0 atom-1 atom-0" d="M 80.3,176.6 L 83.0,177.5" style="fill:none;fill-rule:evenodd;stroke:#000000;stroke-width:1.0px;stroke-linecap:butt;stroke-linejoin:miter;stroke-opacity:1"/>
<path class="bond-0 atom-1 atom-0" d="M 79.0,179.9 L 82.3,180.9" style="fill:none;fill-rule:evenodd;stroke:#000000;stroke-width:1.0px;stroke-linecap:butt;stroke-linejoin:miter;stroke-opacity:1"/>
<path class="bond-0 atom-1 atom-0" d="M 77.7,183.1 L 81.6,184.3" style="fill:none;fill-rule:evenodd;stroke:#000000;stroke-width:1.0px;stroke-linecap:butt;stroke-linejoin:miter;stroke-opacity:1"/>
<path class="bond-0 atom-1 atom-0" d="M 76.4,186.3 L 80.9,187.7" style="fill:none;fill-rule:evenodd;stroke:#000000;stroke-width:1.0px;stroke-linecap:butt;stroke-linejoin:miter;stroke-opacity:1"/>
<path class="bond-0 atom-1 atom-0" d="M 75.2,189.5 L 80.1,191.0" style="fill:none;fill-rule:evenodd;stroke:#000000;stroke-width:1.0px;stroke-linecap:butt;stroke-linejoin:miter;stroke-opacity:1"/>
<path class="bond-1 atom-1 atom-2" d="M 86.6,160.5 L 62.9,135.2" style="fill:none;fill-rule:evenodd;stroke:#000000;stroke-width:2.0px;stroke-linecap:butt;stroke-linejoin:miter;stroke-opacity:1"/>
<path class="bond-2 atom-2 atom-3" d="M 62.9,135.2 L 72.9,102.0" style="fill:none;fill-rule:evenodd;stroke:#000000;stroke-width:2.0px;stroke-linecap:butt;stroke-linejoin:miter;stroke-opacity:1"/>
<path class="bond-3 atom-3 atom-4" d="M 72.9,102.0 L 106.7,94.1" style="fill:none;fill-rule:evenodd;stroke:#000000;stroke-width:2.0px;stroke-linecap:butt;stroke-linejoin:miter;stroke-opacity:1"/>
<path class="bond-4 atom-4 atom-5" d="M 106.7,94.1 L 130.4,119.4" style="fill:none;fill-rule:evenodd;stroke:#000000;stroke-width:2.0px;stroke-linecap:butt;stroke-linejoin:miter;stroke-opacity:1"/>
<path class="bond-5 atom-5 atom-6" d="M 130.4,119.4 L 126.3,132.9" style="fill:none;fill-rule:evenodd;stroke:#000000;stroke-width:2.0px;stroke-linecap:butt;stroke-linejoin:miter;stroke-opacity:1"/>
<path class="bond-5 atom-5 atom-6" d="M 126.3,132.9 L 122.2,146.4" style="fill:none;fill-rule:evenodd;stroke:#FF0000;stroke-width:2.0px;stroke-linecap:butt;stroke-linejoin:miter;stroke-opacity:1"/>
<path class="bond-6 atom-5 atom-7" d="M 130.4,119.4 L 143.5,115.0 L 144.1,117.5 Z" style="fill:#000000;fill-rule:evenodd;fill-opacity:1;stroke:#000000;stroke-width:0.5px;stroke-linecap:butt;stroke-linejoin:miter;stroke-opacity:1;"/>
<path class="bond-6 atom-5 atom-7" d="M 143.5,115.0 L 157.9,115.6 L 156.7,110.5 Z" style="fill:#FF0000;fill-rule:evenodd;fill-opacity:1;stroke:#FF0000;stroke-width:0.5px;stroke-linecap:butt;stroke-linejoin:miter;stroke-opacity:1;"/>
<path class="bond-6 atom-5 atom-7" d="M 143.5,115.0 L 144.1,117.5 L 157.9,115.6 Z" style="fill:#FF0000;fill-rule:evenodd;fill-opacity:1;stroke:#FF0000;stroke-width:0.5px;stroke-linecap:butt;stroke-linejoin:miter;stroke-opacity:1;"/>
<path class="bond-7 atom-7 atom-8" d="M 169.7,117.5 L 178.8,127.1" style="fill:none;fill-rule:evenodd;stroke:#FF0000;stroke-width:2.0px;stroke-linecap:butt;stroke-linejoin:miter;stroke-opacity:1"/>
<path class="bond-7 atom-7 atom-8" d="M 178.8,127.1 L 187.8,136.7" style="fill:none;fill-rule:evenodd;stroke:#000000;stroke-width:2.0px;stroke-linecap:butt;stroke-linejoin:miter;stroke-opacity:1"/>
<path class="bond-8 atom-8 atom-9" d="M 187.8,136.7 L 205.8,166.3" style="fill:none;fill-rule:evenodd;stroke:#000000;stroke-width:2.0px;stroke-linecap:butt;stroke-linejoin:miter;stroke-opacity:1"/>
<path class="bond-9 atom-9 atom-10" d="M 205.8,166.3 L 239.5,158.4" style="fill:none;fill-rule:evenodd;stroke:#000000;stroke-width:2.0px;stroke-linecap:butt;stroke-linejoin:miter;stroke-opacity:1"/>
<path class="bond-10 atom-10 atom-11" d="M 239.5,158.4 L 242.4,123.9" style="fill:none;fill-rule:evenodd;stroke:#000000;stroke-width:2.0px;stroke-linecap:butt;stroke-linejoin:miter;stroke-opacity:1"/>
<path class="bond-11 atom-11 atom-12" d="M 242.4,123.9 L 229.2,118.4" style="fill:none;fill-rule:evenodd;stroke:#000000;stroke-width:2.0px;stroke-linecap:butt;stroke-linejoin:miter;stroke-opacity:1"/>
<path class="bond-11 atom-11 atom-12" d="M 229.2,118.4 L 216.1,112.9" style="fill:none;fill-rule:evenodd;stroke:#FF0000;stroke-width:2.0px;stroke-linecap:butt;stroke-linejoin:miter;stroke-opacity:1"/>
<path class="bond-12 atom-11 atom-13" d="M 245.5,122.4 L 245.2,121.9" style="fill:none;fill-rule:evenodd;stroke:#000000;stroke-width:1.0px;stroke-linecap:butt;stroke-linejoin:miter;stroke-opacity:1"/>
<path class="bond-12 atom-11 atom-13" d="M 248.6,120.8 L 248.0,119.8" style="fill:none;fill-rule:evenodd;stroke:#000000;stroke-width:1.0px;stroke-linecap:butt;stroke-linejoin:miter;stroke-opacity:1"/>
<path class="bond-12 atom-11 atom-13" d="M 251.7,119.3 L 250.8,117.8" style="fill:none;fill-rule:evenodd;stroke:#000000;stroke-width:1.0px;stroke-linecap:butt;stroke-linejoin:miter;stroke-opacity:1"/>
<path class="bond-12 atom-11 atom-13" d="M 254.8,117.7 L 253.6,115.7" style="fill:none;fill-rule:evenodd;stroke:#000000;stroke-width:1.0px;stroke-linecap:butt;stroke-linejoin:miter;stroke-opacity:1"/>
<path class="bond-12 atom-11 atom-13" d="M 257.9,116.2 L 256.5,113.7" style="fill:none;fill-rule:evenodd;stroke:#000000;stroke-width:1.0px;stroke-linecap:butt;stroke-linejoin:miter;stroke-opacity:1"/>
<path class="bond-12 atom-11 atom-13" d="M 261.1,114.6 L 259.3,111.7" style="fill:none;fill-rule:evenodd;stroke:#000000;stroke-width:1.0px;stroke-linecap:butt;stroke-linejoin:miter;stroke-opacity:1"/>
<path class="bond-12 atom-11 atom-13" d="M 264.2,113.1 L 262.1,109.6" style="fill:none;fill-rule:evenodd;stroke:#000000;stroke-width:1.0px;stroke-linecap:butt;stroke-linejoin:miter;stroke-opacity:1"/>
<path class="bond-12 atom-11 atom-13" d="M 267.3,111.5 L 264.9,107.6" style="fill:none;fill-rule:evenodd;stroke:#000000;stroke-width:1.0px;stroke-linecap:butt;stroke-linejoin:miter;stroke-opacity:1"/>
<path class="bond-12 atom-11 atom-13" d="M 270.4,110.0 L 267.7,105.5" style="fill:none;fill-rule:evenodd;stroke:#000000;stroke-width:1.0px;stroke-linecap:butt;stroke-linejoin:miter;stroke-opacity:1"/>
<path class="bond-13 atom-13 atom-14" d="M 272.0,105.9 L 271.7,91.8" style="fill:none;fill-rule:evenodd;stroke:#000000;stroke-width:2.0px;stroke-linecap:butt;stroke-linejoin:miter;stroke-opacity:1"/>
<path class="bond-13 atom-13 atom-14" d="M 271.7,91.8 L 271.4,77.6" style="fill:none;fill-rule:evenodd;stroke:#FF0000;stroke-width:2.0px;stroke-linecap:butt;stroke-linejoin:miter;stroke-opacity:1"/>
<path class="bond-14 atom-10 atom-15" d="M 239.5,158.4 L 250.1,165.8 L 248.4,167.8 Z" style="fill:#000000;fill-rule:evenodd;fill-opacity:1;stroke:#000000;stroke-width:0.5px;stroke-linecap:butt;stroke-linejoin:miter;stroke-opacity:1;"/>
<path class="bond-14 atom-10 atom-15" d="M 250.1,165.8 L 257.2,177.2 L 260.6,173.2 Z" style="fill:#FF0000;fill-rule:evenodd;fill-opacity:1;stroke:#FF0000;stroke-width:0.5px;stroke-linecap:butt;stroke-linejoin:miter;stroke-opacity:1;"/>
<path class="bond-14 atom-10 atom-15" d="M 250.1,165.8 L 248.4,167.8 L 257.2,177.2 Z" style="fill:#FF0000;fill-rule:evenodd;fill-opacity:1;stroke:#FF0000;stroke-width:0.5px;stroke-linecap:butt;stroke-linejoin:miter;stroke-opacity:1;"/>
<path class="bond-15 atom-9 atom-16" d="M 204.8,169.6 L 204.2,169.3" style="fill:none;fill-rule:evenodd;stroke:#000000;stroke-width:1.0px;stroke-linecap:butt;stroke-linejoin:miter;stroke-opacity:1"/>
<path class="bond-15 atom-9 atom-16" d="M 203.8,172.8 L 202.6,172.3" style="fill:none;fill-rule:evenodd;stroke:#000000;stroke-width:1.0px;stroke-linecap:butt;stroke-linejoin:miter;stroke-opacity:1"/>
<path class="bond-15 atom-9 atom-16" d="M 202.8,176.0 L 201.0,175.2" style="fill:none;fill-rule:evenodd;stroke:#000000;stroke-width:1.0px;stroke-linecap:butt;stroke-linejoin:miter;stroke-opacity:1"/>
<path class="bond-15 atom-9 atom-16" d="M 201.8,179.2 L 199.4,178.2" style="fill:none;fill-rule:evenodd;stroke:#000000;stroke-width:1.0px;stroke-linecap:butt;stroke-linejoin:miter;stroke-opacity:1"/>
<path class="bond-15 atom-9 atom-16" d="M 200.8,182.4 L 197.8,181.1" style="fill:none;fill-rule:evenodd;stroke:#FF0000;stroke-width:1.0px;stroke-linecap:butt;stroke-linejoin:miter;stroke-opacity:1"/>
<path class="bond-15 atom-9 atom-16" d="M 199.8,185.6 L 196.2,184.1" style="fill:none;fill-rule:evenodd;stroke:#FF0000;stroke-width:1.0px;stroke-linecap:butt;stroke-linejoin:miter;stroke-opacity:1"/>
<path class="bond-15 atom-9 atom-16" d="M 198.8,188.8 L 194.6,187.1" style="fill:none;fill-rule:evenodd;stroke:#FF0000;stroke-width:1.0px;stroke-linecap:butt;stroke-linejoin:miter;stroke-opacity:1"/>
<path class="bond-15 atom-9 atom-16" d="M 197.8,192.0 L 193.0,190.0" style="fill:none;fill-rule:evenodd;stroke:#FF0000;stroke-width:1.0px;stroke-linecap:butt;stroke-linejoin:miter;stroke-opacity:1"/>
<path class="bond-16 atom-8 atom-17" d="M 187.8,136.7 L 160.6,160.8 L 159.9,154.8 Z" style="fill:#000000;fill-rule:evenodd;fill-opacity:1;stroke:#000000;stroke-width:0.5px;stroke-linecap:butt;stroke-linejoin:miter;stroke-opacity:1;"/>
<path class="bond-17 atom-17 atom-18" d="M 159.9,154.8 L 162.0,171.8" style="fill:none;fill-rule:evenodd;stroke:#000000;stroke-width:2.0px;stroke-linecap:butt;stroke-linejoin:miter;stroke-opacity:1"/>
<path class="bond-17 atom-17 atom-18" d="M 162.0,171.8 L 163.8,185.9" style="fill:none;fill-rule:evenodd;stroke:#FF0000;stroke-width:2.0px;stroke-linecap:butt;stroke-linejoin:miter;stroke-opacity:1"/>
<path class="bond-18 atom-4 atom-19" d="M 106.7,94.1 L 109.3,80.9 L 111.8,81.6 Z" style="fill:#000000;fill-rule:evenodd;fill-opacity:1;stroke:#000000;stroke-width:0.5px;stroke-linecap:butt;stroke-linejoin:miter;stroke-opacity:1;"/>
<path class="bond-18 atom-4 atom-19" d="M 109.3,80.9 L 116.9,69.1 L 111.9,67.6 Z" style="fill:#FF0000;fill-rule:evenodd;fill-opacity:1;stroke:#FF0000;stroke-width:0.5px;stroke-linecap:butt;stroke-linejoin:miter;stroke-opacity:1;"/>
<path class="bond-18 atom-4 atom-19" d="M 109.3,80.9 L 111.8,81.6 L 116.9,69.1 Z" style="fill:#FF0000;fill-rule:evenodd;fill-opacity:1;stroke:#FF0000;stroke-width:0.5px;stroke-linecap:butt;stroke-linejoin:miter;stroke-opacity:1;"/>
<path class="bond-19 atom-3 atom-20" d="M 70.2,99.7 L 70.8,99.2" style="fill:none;fill-rule:evenodd;stroke:#000000;stroke-width:1.0px;stroke-linecap:butt;stroke-linejoin:miter;stroke-opacity:1"/>
<path class="bond-19 atom-3 atom-20" d="M 67.5,97.4 L 68.6,96.4" style="fill:none;fill-rule:evenodd;stroke:#000000;stroke-width:1.0px;stroke-linecap:butt;stroke-linejoin:miter;stroke-opacity:1"/>
<path class="bond-19 atom-3 atom-20" d="M 64.9,95.1 L 66.5,93.6" style="fill:none;fill-rule:evenodd;stroke:#000000;stroke-width:1.0px;stroke-linecap:butt;stroke-linejoin:miter;stroke-opacity:1"/>
<path class="bond-19 atom-3 atom-20" d="M 62.2,92.8 L 64.3,90.7" style="fill:none;fill-rule:evenodd;stroke:#FF0000;stroke-width:1.0px;stroke-linecap:butt;stroke-linejoin:miter;stroke-opacity:1"/>
<path class="bond-19 atom-3 atom-20" d="M 59.5,90.4 L 62.2,87.9" style="fill:none;fill-rule:evenodd;stroke:#FF0000;stroke-width:1.0px;stroke-linecap:butt;stroke-linejoin:miter;stroke-opacity:1"/>
<path class="bond-19 atom-3 atom-20" d="M 56.8,88.1 L 60.0,85.1" style="fill:none;fill-rule:evenodd;stroke:#FF0000;stroke-width:1.0px;stroke-linecap:butt;stroke-linejoin:miter;stroke-opacity:1"/>
<path class="bond-19 atom-3 atom-20" d="M 54.1,85.8 L 57.9,82.2" style="fill:none;fill-rule:evenodd;stroke:#FF0000;stroke-width:1.0px;stroke-linecap:butt;stroke-linejoin:miter;stroke-opacity:1"/>
<path class="bond-20 atom-2 atom-21" d="M 62.9,135.2 L 49.7,139.6 L 49.2,137.1 Z" style="fill:#000000;fill-rule:evenodd;fill-opacity:1;stroke:#000000;stroke-width:0.5px;stroke-linecap:butt;stroke-linejoin:miter;stroke-opacity:1;"/>
<path class="bond-20 atom-2 atom-21" d="M 49.7,139.6 L 35.4,139.0 L 36.6,144.1 Z" style="fill:#FF0000;fill-rule:evenodd;fill-opacity:1;stroke:#FF0000;stroke-width:0.5px;stroke-linecap:butt;stroke-linejoin:miter;stroke-opacity:1;"/>
<path class="bond-20 atom-2 atom-21" d="M 49.7,139.6 L 49.2,137.1 L 35.4,139.0 Z" style="fill:#FF0000;fill-rule:evenodd;fill-opacity:1;stroke:#FF0000;stroke-width:0.5px;stroke-linecap:butt;stroke-linejoin:miter;stroke-opacity:1;"/>
<path class="bond-21 atom-0 atom-22" d="M 76.6,193.6 L 85.7,203.3" style="fill:none;fill-rule:evenodd;stroke:#000000;stroke-width:2.0px;stroke-linecap:butt;stroke-linejoin:miter;stroke-opacity:1"/>
<path class="bond-21 atom-0 atom-22" d="M 85.7,203.3 L 94.7,212.9" style="fill:none;fill-rule:evenodd;stroke:#FF0000;stroke-width:2.0px;stroke-linecap:butt;stroke-linejoin:miter;stroke-opacity:1"/>
<path class="bond-22 atom-6 atom-1" d="M 114.7,153.9 L 100.7,157.2" style="fill:none;fill-rule:evenodd;stroke:#FF0000;stroke-width:2.0px;stroke-linecap:butt;stroke-linejoin:miter;stroke-opacity:1"/>
<path class="bond-22 atom-6 atom-1" d="M 100.7,157.2 L 86.6,160.5" style="fill:none;fill-rule:evenodd;stroke:#000000;stroke-width:2.0px;stroke-linecap:butt;stroke-linejoin:miter;stroke-opacity:1"/>
<path class="bond-23 atom-12 atom-8" d="M 205.1,116.7 L 196.4,126.7" style="fill:none;fill-rule:evenodd;stroke:#FF0000;stroke-width:2.0px;stroke-linecap:butt;stroke-linejoin:miter;stroke-opacity:1"/>
<path class="bond-23 atom-12 atom-8" d="M 196.4,126.7 L 187.8,136.7" style="fill:none;fill-rule:evenodd;stroke:#000000;stroke-width:2.0px;stroke-linecap:butt;stroke-linejoin:miter;stroke-opacity:1"/>
<path d="M 85.5,159.2 L 86.6,160.5 L 87.3,160.3" style="fill:none;stroke:#000000;stroke-width:2.0px;stroke-linecap:butt;stroke-linejoin:miter;stroke-opacity:1;"/>
<path d="M 64.1,136.5 L 62.9,135.2 L 63.4,133.6" style="fill:none;stroke:#000000;stroke-width:2.0px;stroke-linecap:butt;stroke-linejoin:miter;stroke-opacity:1;"/>
<path d="M 72.4,103.7 L 72.9,102.0 L 74.6,101.7" style="fill:none;stroke:#000000;stroke-width:2.0px;stroke-linecap:butt;stroke-linejoin:miter;stroke-opacity:1;"/>
<path d="M 105.0,94.5 L 106.7,94.1 L 107.8,95.4" style="fill:none;stroke:#000000;stroke-width:2.0px;stroke-linecap:butt;stroke-linejoin:miter;stroke-opacity:1;"/>
<path d="M 129.2,118.1 L 130.4,119.4 L 130.2,120.1" style="fill:none;stroke:#000000;stroke-width:2.0px;stroke-linecap:butt;stroke-linejoin:miter;stroke-opacity:1;"/>
<path d="M 204.9,164.9 L 205.8,166.3 L 207.5,165.9" style="fill:none;stroke:#000000;stroke-width:2.0px;stroke-linecap:butt;stroke-linejoin:miter;stroke-opacity:1;"/>
<path d="M 237.8,158.8 L 239.5,158.4 L 239.6,156.7" style="fill:none;stroke:#000000;stroke-width:2.0px;stroke-linecap:butt;stroke-linejoin:miter;stroke-opacity:1;"/>
<path d="M 242.3,125.6 L 242.4,123.9 L 241.7,123.6" style="fill:none;stroke:#000000;stroke-width:2.0px;stroke-linecap:butt;stroke-linejoin:miter;stroke-opacity:1;"/>
<path class="atom-6" d="M 115.9 152.6 Q 115.9 150.2, 117.0 148.9 Q 118.2 147.6, 120.4 147.6 Q 122.5 147.6, 123.7 148.9 Q 124.9 150.2, 124.9 152.6 Q 124.9 155.0, 123.7 156.3 Q 122.5 157.7, 120.4 157.7 Q 118.2 157.7, 117.0 156.3 Q 115.9 155.0, 115.9 152.6 M 120.4 156.6 Q 121.9 156.6, 122.7 155.6 Q 123.5 154.5, 123.5 152.6 Q 123.5 150.6, 122.7 149.7 Q 121.9 148.7, 120.4 148.7 Q 118.9 148.7, 118.1 149.7 Q 117.3 150.6, 117.3 152.6 Q 117.3 154.6, 118.1 155.6 Q 118.9 156.6, 120.4 156.6 " fill="#FF0000"/>
<path class="atom-7" d="M 159.6 111.5 Q 159.6 109.1, 160.8 107.8 Q 161.9 106.5, 164.1 106.5 Q 166.3 106.5, 167.4 107.8 Q 168.6 109.1, 168.6 111.5 Q 168.6 113.9, 167.4 115.2 Q 166.3 116.6, 164.1 116.6 Q 161.9 116.6, 160.8 115.2 Q 159.6 113.9, 159.6 111.5 M 164.1 115.5 Q 165.6 115.5, 166.4 114.5 Q 167.2 113.5, 167.2 111.5 Q 167.2 109.6, 166.4 108.6 Q 165.6 107.6, 164.1 107.6 Q 162.6 107.6, 161.8 108.6 Q 161.0 109.5, 161.0 111.5 Q 161.0 113.5, 161.8 114.5 Q 162.6 115.5, 164.1 115.5 " fill="#FF0000"/>
<path class="atom-12" d="M 206.0 110.5 Q 206.0 108.2, 207.1 106.8 Q 208.3 105.5, 210.5 105.5 Q 212.6 105.5, 213.8 106.8 Q 215.0 108.2, 215.0 110.5 Q 215.0 112.9, 213.8 114.3 Q 212.6 115.6, 210.5 115.6 Q 208.3 115.6, 207.1 114.3 Q 206.0 112.9, 206.0 110.5 M 210.5 114.5 Q 212.0 114.5, 212.8 113.5 Q 213.6 112.5, 213.6 110.5 Q 213.6 108.6, 212.8 107.6 Q 212.0 106.6, 210.5 106.6 Q 209.0 106.6, 208.1 107.6 Q 207.3 108.6, 207.3 110.5 Q 207.3 112.5, 208.1 113.5 Q 209.0 114.5, 210.5 114.5 " fill="#FF0000"/>
<path class="atom-14" d="M 266.8 71.3 Q 266.8 69.0, 268.0 67.7 Q 269.1 66.3, 271.3 66.3 Q 273.5 66.3, 274.6 67.7 Q 275.8 69.0, 275.8 71.3 Q 275.8 73.7, 274.6 75.1 Q 273.4 76.4, 271.3 76.4 Q 269.1 76.4, 268.0 75.1 Q 266.8 73.7, 266.8 71.3 M 271.3 75.3 Q 272.8 75.3, 273.6 74.3 Q 274.4 73.3, 274.4 71.3 Q 274.4 69.4, 273.6 68.4 Q 272.8 67.5, 271.3 67.5 Q 269.8 67.5, 269.0 68.4 Q 268.2 69.4, 268.2 71.3 Q 268.2 73.3, 269.0 74.3 Q 269.8 75.3, 271.3 75.3 " fill="#FF0000"/>
<path class="atom-14" d="M 277.3 66.5 L 278.7 66.5 L 278.7 70.6 L 283.7 70.6 L 283.7 66.5 L 285.0 66.5 L 285.0 76.3 L 283.7 76.3 L 283.7 71.7 L 278.7 71.7 L 278.7 76.3 L 277.3 76.3 L 277.3 66.5 " fill="#FF0000"/>
<path class="atom-15" d="M 261.2 181.1 Q 261.2 178.7, 262.4 177.4 Q 263.6 176.1, 265.7 176.1 Q 267.9 176.1, 269.1 177.4 Q 270.2 178.7, 270.2 181.1 Q 270.2 183.5, 269.1 184.8 Q 267.9 186.2, 265.7 186.2 Q 263.6 186.2, 262.4 184.8 Q 261.2 183.5, 261.2 181.1 M 265.7 185.1 Q 267.2 185.1, 268.0 184.1 Q 268.9 183.0, 268.9 181.1 Q 268.9 179.2, 268.0 178.2 Q 267.2 177.2, 265.7 177.2 Q 264.2 177.2, 263.4 178.2 Q 262.6 179.1, 262.6 181.1 Q 262.6 183.1, 263.4 184.1 Q 264.2 185.1, 265.7 185.1 " fill="#FF0000"/>
<path class="atom-15" d="M 271.8 176.2 L 273.1 176.2 L 273.1 180.4 L 278.1 180.4 L 278.1 176.2 L 279.4 176.2 L 279.4 186.0 L 278.1 186.0 L 278.1 181.5 L 273.1 181.5 L 273.1 186.0 L 271.8 186.0 L 271.8 176.2 " fill="#FF0000"/>
<path class="atom-16" d="M 178.2 193.4 L 179.5 193.4 L 179.5 197.6 L 184.5 197.6 L 184.5 193.4 L 185.8 193.4 L 185.8 203.2 L 184.5 203.2 L 184.5 198.7 L 179.5 198.7 L 179.5 203.2 L 178.2 203.2 L 178.2 193.4 " fill="#FF0000"/>
<path class="atom-16" d="M 187.9 198.3 Q 187.9 196.0, 189.0 194.6 Q 190.2 193.3, 192.4 193.3 Q 194.5 193.3, 195.7 194.6 Q 196.9 196.0, 196.9 198.3 Q 196.9 200.7, 195.7 202.1 Q 194.5 203.4, 192.4 203.4 Q 190.2 203.4, 189.0 202.1 Q 187.9 200.7, 187.9 198.3 M 192.4 202.3 Q 193.9 202.3, 194.7 201.3 Q 195.5 200.3, 195.5 198.3 Q 195.5 196.4, 194.7 195.4 Q 193.9 194.4, 192.4 194.4 Q 190.9 194.4, 190.0 195.4 Q 189.2 196.4, 189.2 198.3 Q 189.2 200.3, 190.0 201.3 Q 190.9 202.3, 192.4 202.3 " fill="#FF0000"/>
<path class="atom-18" d="M 160.1 192.1 Q 160.1 189.7, 161.2 188.4 Q 162.4 187.1, 164.6 187.1 Q 166.8 187.1, 167.9 188.4 Q 169.1 189.7, 169.1 192.1 Q 169.1 194.4, 167.9 195.8 Q 166.7 197.1, 164.6 197.1 Q 162.4 197.1, 161.2 195.8 Q 160.1 194.5, 160.1 192.1 M 164.6 196.0 Q 166.1 196.0, 166.9 195.0 Q 167.7 194.0, 167.7 192.1 Q 167.7 190.1, 166.9 189.2 Q 166.1 188.2, 164.6 188.2 Q 163.1 188.2, 162.3 189.2 Q 161.5 190.1, 161.5 192.1 Q 161.5 194.0, 162.3 195.0 Q 163.1 196.0, 164.6 196.0 " fill="#FF0000"/>
<path class="atom-18" d="M 170.6 187.2 L 171.9 187.2 L 171.9 191.4 L 177.0 191.4 L 177.0 187.2 L 178.3 187.2 L 178.3 197.0 L 177.0 197.0 L 177.0 192.5 L 171.9 192.5 L 171.9 197.0 L 170.6 197.0 L 170.6 187.2 " fill="#FF0000"/>
<path class="atom-19" d="M 112.2 61.0 Q 112.2 58.6, 113.3 57.3 Q 114.5 56.0, 116.7 56.0 Q 118.8 56.0, 120.0 57.3 Q 121.2 58.6, 121.2 61.0 Q 121.2 63.4, 120.0 64.7 Q 118.8 66.1, 116.7 66.1 Q 114.5 66.1, 113.3 64.7 Q 112.2 63.4, 112.2 61.0 M 116.7 65.0 Q 118.2 65.0, 119.0 64.0 Q 119.8 63.0, 119.8 61.0 Q 119.8 59.1, 119.0 58.1 Q 118.2 57.1, 116.7 57.1 Q 115.2 57.1, 114.3 58.1 Q 113.5 59.1, 113.5 61.0 Q 113.5 63.0, 114.3 64.0 Q 115.2 65.0, 116.7 65.0 " fill="#FF0000"/>
<path class="atom-19" d="M 122.7 56.1 L 124.0 56.1 L 124.0 60.3 L 129.0 60.3 L 129.0 56.1 L 130.4 56.1 L 130.4 65.9 L 129.0 65.9 L 129.0 61.4 L 124.0 61.4 L 124.0 65.9 L 122.7 65.9 L 122.7 56.1 " fill="#FF0000"/>
<path class="atom-20" d="M 35.0 72.0 L 36.3 72.0 L 36.3 76.1 L 41.4 76.1 L 41.4 72.0 L 42.7 72.0 L 42.7 81.8 L 41.4 81.8 L 41.4 77.2 L 36.3 77.2 L 36.3 81.8 L 35.0 81.8 L 35.0 72.0 " fill="#FF0000"/>
<path class="atom-20" d="M 44.7 76.8 Q 44.7 74.5, 45.9 73.2 Q 47.0 71.8, 49.2 71.8 Q 51.4 71.8, 52.5 73.2 Q 53.7 74.5, 53.7 76.8 Q 53.7 79.2, 52.5 80.6 Q 51.4 81.9, 49.2 81.9 Q 47.0 81.9, 45.9 80.6 Q 44.7 79.2, 44.7 76.8 M 49.2 80.8 Q 50.7 80.8, 51.5 79.8 Q 52.3 78.8, 52.3 76.8 Q 52.3 74.9, 51.5 73.9 Q 50.7 72.9, 49.2 72.9 Q 47.7 72.9, 46.9 73.9 Q 46.1 74.9, 46.1 76.8 Q 46.1 78.8, 46.9 79.8 Q 47.7 80.8, 49.2 80.8 " fill="#FF0000"/>
<path class="atom-21" d="M 15.0 138.3 L 16.3 138.3 L 16.3 142.5 L 21.3 142.5 L 21.3 138.3 L 22.7 138.3 L 22.7 148.1 L 21.3 148.1 L 21.3 143.6 L 16.3 143.6 L 16.3 148.1 L 15.0 148.1 L 15.0 138.3 " fill="#FF0000"/>
<path class="atom-21" d="M 24.7 143.2 Q 24.7 140.8, 25.9 139.5 Q 27.0 138.2, 29.2 138.2 Q 31.4 138.2, 32.5 139.5 Q 33.7 140.8, 33.7 143.2 Q 33.7 145.5, 32.5 146.9 Q 31.3 148.2, 29.2 148.2 Q 27.0 148.2, 25.9 146.9 Q 24.7 145.6, 24.7 143.2 M 29.2 147.1 Q 30.7 147.1, 31.5 146.1 Q 32.3 145.1, 32.3 143.2 Q 32.3 141.2, 31.5 140.3 Q 30.7 139.3, 29.2 139.3 Q 27.7 139.3, 26.9 140.3 Q 26.1 141.2, 26.1 143.2 Q 26.1 145.1, 26.9 146.1 Q 27.7 147.1, 29.2 147.1 " fill="#FF0000"/>
<path class="atom-22" d="M 95.9 218.9 Q 95.9 216.6, 97.0 215.2 Q 98.2 213.9, 100.4 213.9 Q 102.5 213.9, 103.7 215.2 Q 104.9 216.6, 104.9 218.9 Q 104.9 221.3, 103.7 222.7 Q 102.5 224.0, 100.4 224.0 Q 98.2 224.0, 97.0 222.7 Q 95.9 221.3, 95.9 218.9 M 100.4 222.9 Q 101.9 222.9, 102.7 221.9 Q 103.5 220.9, 103.5 218.9 Q 103.5 217.0, 102.7 216.0 Q 101.9 215.0, 100.4 215.0 Q 98.9 215.0, 98.0 216.0 Q 97.2 217.0, 97.2 218.9 Q 97.2 220.9, 98.0 221.9 Q 98.9 222.9, 100.4 222.9 " fill="#FF0000"/>
<path class="atom-22" d="M 106.4 214.0 L 107.7 214.0 L 107.7 218.2 L 112.7 218.2 L 112.7 214.0 L 114.1 214.0 L 114.1 223.8 L 112.7 223.8 L 112.7 219.3 L 107.7 219.3 L 107.7 223.8 L 106.4 223.8 L 106.4 214.0 " fill="#FF0000"/>
<path class="note" d="M 88.3 181.6 Q 87.4 181.6, 86.9 180.9 Q 86.5 180.3, 86.5 179.1 Q 86.5 177.9, 86.9 177.2 Q 87.4 176.6, 88.3 176.6 Q 89.2 176.6, 89.6 177.2 Q 90.1 177.9, 90.1 179.1 Q 90.1 180.3, 89.6 180.9 Q 89.2 181.6, 88.3 181.6 M 88.3 181.0 Q 88.8 181.0, 89.1 180.5 Q 89.4 180.0, 89.4 179.1 Q 89.4 178.1, 89.1 177.6 Q 88.8 177.1, 88.3 177.1 Q 87.7 177.1, 87.5 177.6 Q 87.2 178.1, 87.2 179.1 Q 87.2 180.0, 87.5 180.5 Q 87.7 181.0, 88.3 181.0 " fill="#000000"/>
<path class="note" d="M 68.5 154.5 L 69.6 154.5 L 69.6 150.8 L 68.4 151.2 L 68.3 150.8 L 69.8 150.1 L 70.2 150.2 L 70.2 154.5 L 71.2 154.5 L 71.2 155.1 L 68.5 155.1 L 68.5 154.5 " fill="#000000"/>
<path class="note" d="M 63.0 116.1 Q 63.1 115.7, 63.6 115.4 Q 64.0 115.2, 64.6 115.2 Q 65.3 115.2, 65.8 115.6 Q 66.2 116.0, 66.2 116.7 Q 66.2 117.4, 65.6 118.1 Q 65.1 118.8, 64.0 119.6 L 66.3 119.6 L 66.3 120.1 L 63.0 120.1 L 63.0 119.6 Q 63.9 119.0, 64.4 118.5 Q 65.0 118.0, 65.2 117.6 Q 65.5 117.2, 65.5 116.7 Q 65.5 116.2, 65.2 116.0 Q 65.0 115.7, 64.6 115.7 Q 64.2 115.7, 63.9 115.9 Q 63.7 116.0, 63.5 116.4 L 63.0 116.1 " fill="#000000"/>
<path class="note" d="M 88.9 91.2 Q 89.4 91.4, 89.6 91.7 Q 89.9 92.0, 89.9 92.5 Q 89.9 92.9, 89.6 93.2 Q 89.4 93.5, 89.1 93.7 Q 88.7 93.9, 88.2 93.9 Q 87.7 93.9, 87.3 93.7 Q 86.9 93.5, 86.6 93.2 L 87.0 92.8 Q 87.3 93.1, 87.5 93.2 Q 87.8 93.3, 88.2 93.3 Q 88.6 93.3, 88.9 93.1 Q 89.2 92.9, 89.2 92.5 Q 89.2 92.0, 88.9 91.8 Q 88.6 91.5, 88.0 91.5 L 87.6 91.5 L 87.6 91.0 L 88.0 91.0 Q 88.5 91.0, 88.8 90.8 Q 89.1 90.6, 89.1 90.1 Q 89.1 89.8, 88.8 89.6 Q 88.6 89.4, 88.2 89.4 Q 87.8 89.4, 87.5 89.6 Q 87.3 89.7, 87.1 90.1 L 86.6 89.8 Q 86.8 89.4, 87.2 89.1 Q 87.6 88.9, 88.2 88.9 Q 88.9 88.9, 89.3 89.2 Q 89.8 89.5, 89.8 90.1 Q 89.8 90.5, 89.5 90.8 Q 89.3 91.1, 88.9 91.2 " fill="#000000"/>
<path class="note" d="M 124.9 102.8 L 125.5 102.8 L 125.5 103.3 L 124.9 103.3 L 124.9 104.5 L 124.2 104.5 L 124.2 103.3 L 121.7 103.3 L 121.7 102.9 L 123.8 99.6 L 124.9 99.6 L 124.9 102.8 M 122.5 102.8 L 124.2 102.8 L 124.2 100.0 L 122.5 102.8 " fill="#000000"/>
<path class="note" d="M 128.8 136.3 Q 129.2 136.3, 129.6 136.5 Q 129.9 136.7, 130.1 137.1 Q 130.3 137.4, 130.3 137.9 Q 130.3 138.4, 130.1 138.7 Q 129.9 139.1, 129.5 139.3 Q 129.1 139.5, 128.6 139.5 Q 128.1 139.5, 127.7 139.3 Q 127.3 139.1, 127.0 138.8 L 127.4 138.4 Q 127.7 138.6, 128.0 138.8 Q 128.3 138.9, 128.6 138.9 Q 129.1 138.9, 129.4 138.6 Q 129.7 138.4, 129.7 137.9 Q 129.7 137.4, 129.4 137.1 Q 129.1 136.9, 128.6 136.9 Q 128.1 136.9, 127.7 137.1 L 127.3 136.9 L 127.5 134.5 L 130.0 134.5 L 130.0 135.1 L 128.1 135.1 L 127.9 136.5 Q 128.4 136.3, 128.8 136.3 " fill="#000000"/>
<path class="note" d="M 145.9 108.1 Q 146.3 108.1, 146.6 108.3 Q 147.0 108.5, 147.2 108.8 Q 147.4 109.1, 147.4 109.6 Q 147.4 110.1, 147.1 110.4 Q 146.9 110.8, 146.6 111.0 Q 146.2 111.2, 145.7 111.2 Q 144.8 111.2, 144.4 110.6 Q 144.0 110.0, 144.0 108.8 Q 144.0 107.5, 144.5 106.9 Q 145.0 106.2, 146.1 106.2 Q 146.4 106.2, 146.6 106.3 Q 146.9 106.3, 147.2 106.5 L 146.9 106.9 Q 146.5 106.7, 146.1 106.7 Q 145.4 106.7, 145.0 107.2 Q 144.7 107.6, 144.7 108.6 Q 144.9 108.3, 145.2 108.2 Q 145.5 108.1, 145.9 108.1 M 145.7 110.6 Q 146.0 110.6, 146.2 110.5 Q 146.4 110.4, 146.5 110.1 Q 146.7 109.9, 146.7 109.6 Q 146.7 109.1, 146.4 108.9 Q 146.2 108.6, 145.7 108.6 Q 145.5 108.6, 145.2 108.8 Q 144.9 108.9, 144.7 109.1 Q 144.7 109.9, 144.9 110.3 Q 145.2 110.6, 145.7 110.6 " fill="#000000"/>
<path class="note" d="M 182.0 117.4 L 179.4 117.4 L 179.4 116.9 L 182.6 116.9 L 182.6 117.4 L 180.7 121.8 L 180.0 121.8 L 182.0 117.4 " fill="#000000"/>
<path class="note" d="M 203.5 147.8 Q 203.9 148.0, 204.2 148.3 Q 204.5 148.6, 204.5 149.1 Q 204.5 149.5, 204.2 149.8 Q 204.0 150.1, 203.6 150.3 Q 203.3 150.5, 202.8 150.5 Q 201.9 150.5, 201.5 150.1 Q 201.0 149.7, 201.0 149.1 Q 201.0 148.7, 201.2 148.4 Q 201.4 148.1, 201.8 147.8 Q 201.5 147.7, 201.3 147.4 Q 201.2 147.1, 201.2 146.7 Q 201.2 146.1, 201.6 145.8 Q 202.0 145.5, 202.7 145.5 Q 203.4 145.5, 203.9 145.8 Q 204.3 146.1, 204.3 146.7 Q 204.3 147.1, 204.1 147.3 Q 203.9 147.6, 203.5 147.8 M 202.7 146.0 Q 202.3 146.0, 202.1 146.2 Q 201.9 146.4, 201.9 146.7 Q 201.9 147.0, 202.0 147.1 Q 202.2 147.3, 202.4 147.4 Q 202.6 147.5, 203.0 147.6 Q 203.3 147.4, 203.5 147.2 Q 203.6 147.0, 203.6 146.7 Q 203.6 146.4, 203.4 146.2 Q 203.1 146.0, 202.7 146.0 M 202.8 150.0 Q 203.2 150.0, 203.5 149.7 Q 203.8 149.5, 203.8 149.1 Q 203.8 148.8, 203.6 148.6 Q 203.5 148.5, 203.3 148.4 Q 203.0 148.3, 202.6 148.2 L 202.3 148.0 Q 202.0 148.3, 201.8 148.5 Q 201.7 148.7, 201.7 149.1 Q 201.7 149.5, 202.0 149.7 Q 202.3 150.0, 202.8 150.0 " fill="#000000"/>
<path class="note" d="M 221.0 153.2 Q 221.9 153.2, 222.3 153.8 Q 222.8 154.3, 222.8 155.5 Q 222.8 156.8, 222.2 157.5 Q 221.7 158.2, 220.6 158.2 Q 220.3 158.2, 220.1 158.1 Q 219.8 158.0, 219.5 157.9 L 219.8 157.4 Q 220.2 157.6, 220.6 157.6 Q 221.3 157.6, 221.7 157.2 Q 222.0 156.7, 222.1 155.8 Q 221.8 156.0, 221.5 156.2 Q 221.2 156.3, 220.8 156.3 Q 220.4 156.3, 220.1 156.1 Q 219.7 155.9, 219.5 155.6 Q 219.4 155.2, 219.4 154.8 Q 219.4 154.3, 219.6 153.9 Q 219.8 153.6, 220.2 153.4 Q 220.5 153.2, 221.0 153.2 M 220.0 154.8 Q 220.0 155.2, 220.3 155.5 Q 220.5 155.7, 221.0 155.7 Q 221.3 155.7, 221.6 155.6 Q 221.9 155.5, 222.1 155.3 Q 222.0 154.5, 221.8 154.1 Q 221.5 153.7, 221.0 153.7 Q 220.7 153.7, 220.5 153.9 Q 220.3 154.0, 220.2 154.2 Q 220.0 154.5, 220.0 154.8 " fill="#000000"/>
<path class="note" d="M 230.7 142.5 L 231.8 142.5 L 231.8 138.8 L 230.6 139.2 L 230.5 138.8 L 232.0 138.1 L 232.5 138.2 L 232.5 142.5 L 233.4 142.5 L 233.4 143.1 L 230.7 143.1 L 230.7 142.5 " fill="#000000"/>
<path class="note" d="M 235.8 143.1 Q 234.9 143.1, 234.5 142.5 Q 234.0 141.8, 234.0 140.6 Q 234.0 139.4, 234.5 138.8 Q 234.9 138.1, 235.8 138.1 Q 236.7 138.1, 237.2 138.8 Q 237.6 139.4, 237.6 140.6 Q 237.6 141.8, 237.2 142.5 Q 236.7 143.1, 235.8 143.1 M 235.8 142.6 Q 236.4 142.6, 236.7 142.1 Q 236.9 141.6, 236.9 140.6 Q 236.9 139.6, 236.7 139.1 Q 236.4 138.7, 235.8 138.7 Q 235.3 138.7, 235.0 139.1 Q 234.7 139.6, 234.7 140.6 Q 234.7 141.6, 235.0 142.1 Q 235.3 142.6, 235.8 142.6 " fill="#000000"/>
<path class="note" d="M 220.8 125.5 L 221.8 125.5 L 221.8 121.8 L 220.6 122.2 L 220.5 121.8 L 222.0 121.1 L 222.5 121.2 L 222.5 125.5 L 223.4 125.5 L 223.4 126.0 L 220.8 126.0 L 220.8 125.5 " fill="#000000"/>
<path class="note" d="M 224.3 125.5 L 225.4 125.5 L 225.4 121.8 L 224.2 122.2 L 224.0 121.8 L 225.5 121.1 L 226.0 121.2 L 226.0 125.5 L 227.0 125.5 L 227.0 126.0 L 224.3 126.0 L 224.3 125.5 " fill="#000000"/>
<path class="note" d="M 250.5 110.9 L 251.5 110.9 L 251.5 107.3 L 250.3 107.6 L 250.2 107.2 L 251.7 106.5 L 252.2 106.6 L 252.2 110.9 L 253.1 110.9 L 253.1 111.5 L 250.5 111.5 L 250.5 110.9 " fill="#000000"/>
<path class="note" d="M 253.8 107.5 Q 253.9 107.0, 254.4 106.8 Q 254.8 106.5, 255.4 106.5 Q 256.1 106.5, 256.6 106.9 Q 257.0 107.3, 257.0 108.0 Q 257.0 108.8, 256.4 109.4 Q 255.9 110.1, 254.8 110.9 L 257.1 110.9 L 257.1 111.5 L 253.7 111.5 L 253.7 111.0 Q 254.7 110.4, 255.2 109.9 Q 255.8 109.4, 256.0 109.0 Q 256.3 108.5, 256.3 108.1 Q 256.3 107.6, 256.0 107.3 Q 255.8 107.1, 255.4 107.1 Q 255.0 107.1, 254.7 107.2 Q 254.5 107.4, 254.3 107.7 L 253.8 107.5 " fill="#000000"/>
<path class="note" d="M 261.6 90.7 L 262.6 90.7 L 262.6 87.0 L 261.5 87.4 L 261.3 87.0 L 262.8 86.3 L 263.3 86.4 L 263.3 90.7 L 264.3 90.7 L 264.3 91.3 L 261.6 91.3 L 261.6 90.7 " fill="#000000"/>
<path class="note" d="M 267.2 88.7 Q 267.7 88.8, 267.9 89.1 Q 268.2 89.4, 268.2 89.9 Q 268.2 90.3, 268.0 90.7 Q 267.7 91.0, 267.4 91.2 Q 267.0 91.3, 266.5 91.3 Q 266.0 91.3, 265.6 91.1 Q 265.2 91.0, 264.9 90.6 L 265.3 90.2 Q 265.6 90.5, 265.8 90.6 Q 266.1 90.8, 266.5 90.8 Q 266.9 90.8, 267.2 90.5 Q 267.5 90.3, 267.5 89.9 Q 267.5 89.4, 267.2 89.2 Q 266.9 89.0, 266.3 89.0 L 266.0 89.0 L 266.0 88.5 L 266.3 88.5 Q 266.8 88.4, 267.1 88.2 Q 267.4 88.0, 267.4 87.5 Q 267.4 87.2, 267.1 87.0 Q 266.9 86.8, 266.5 86.8 Q 266.1 86.8, 265.8 87.0 Q 265.6 87.1, 265.4 87.5 L 264.9 87.2 Q 265.1 86.8, 265.5 86.6 Q 265.9 86.3, 266.5 86.3 Q 267.2 86.3, 267.6 86.6 Q 268.1 87.0, 268.1 87.5 Q 268.1 87.9, 267.8 88.2 Q 267.6 88.5, 267.2 88.7 " fill="#000000"/>
<path class="note" d="M 256.0 163.8 L 257.1 163.8 L 257.1 160.1 L 255.9 160.5 L 255.7 160.1 L 257.2 159.4 L 257.7 159.5 L 257.7 163.8 L 258.7 163.8 L 258.7 164.3 L 256.0 164.3 L 256.0 163.8 " fill="#000000"/>
<path class="note" d="M 262.5 162.7 L 263.1 162.7 L 263.1 163.2 L 262.5 163.2 L 262.5 164.3 L 261.9 164.3 L 261.9 163.2 L 259.3 163.2 L 259.3 162.8 L 261.5 159.4 L 262.5 159.4 L 262.5 162.7 M 260.1 162.7 L 261.9 162.7 L 261.9 159.9 L 260.1 162.7 " fill="#000000"/>
<path class="note" d="M 202.3 186.9 L 203.4 186.9 L 203.4 183.2 L 202.2 183.6 L 202.0 183.2 L 203.5 182.5 L 204.0 182.6 L 204.0 186.9 L 205.0 186.9 L 205.0 187.5 L 202.3 187.5 L 202.3 186.9 " fill="#000000"/>
<path class="note" d="M 207.4 184.4 Q 207.8 184.4, 208.1 184.6 Q 208.5 184.8, 208.7 185.1 Q 208.9 185.4, 208.9 185.9 Q 208.9 186.4, 208.6 186.8 Q 208.4 187.1, 208.0 187.3 Q 207.6 187.5, 207.1 187.5 Q 206.7 187.5, 206.3 187.4 Q 205.9 187.2, 205.6 186.9 L 206.0 186.4 Q 206.2 186.7, 206.5 186.8 Q 206.8 187.0, 207.2 187.0 Q 207.6 187.0, 207.9 186.7 Q 208.2 186.4, 208.2 185.9 Q 208.2 185.4, 207.9 185.2 Q 207.6 184.9, 207.1 184.9 Q 206.7 184.9, 206.2 185.1 L 205.8 184.9 L 206.1 182.6 L 208.6 182.6 L 208.5 183.1 L 206.6 183.1 L 206.5 184.6 Q 206.9 184.4, 207.4 184.4 " fill="#000000"/>
<path class="note" d="M 175.0 154.6 L 176.1 154.6 L 176.1 151.0 L 174.9 151.3 L 174.7 150.9 L 176.2 150.3 L 176.7 150.3 L 176.7 154.6 L 177.7 154.6 L 177.7 155.2 L 175.0 155.2 L 175.0 154.6 " fill="#000000"/>
<path class="note" d="M 180.2 152.1 Q 180.7 152.1, 181.0 152.3 Q 181.3 152.5, 181.5 152.8 Q 181.7 153.2, 181.7 153.6 Q 181.7 154.1, 181.5 154.5 Q 181.3 154.8, 180.9 155.0 Q 180.5 155.2, 180.1 155.2 Q 179.2 155.2, 178.7 154.7 Q 178.3 154.1, 178.3 152.9 Q 178.3 151.6, 178.8 150.9 Q 179.4 150.2, 180.4 150.2 Q 180.7 150.2, 181.0 150.3 Q 181.3 150.4, 181.5 150.5 L 181.2 151.0 Q 180.9 150.8, 180.4 150.8 Q 179.7 150.8, 179.4 151.2 Q 179.0 151.7, 179.0 152.6 Q 179.3 152.4, 179.6 152.2 Q 179.9 152.1, 180.2 152.1 M 180.1 154.7 Q 180.3 154.7, 180.5 154.5 Q 180.8 154.4, 180.9 154.2 Q 181.0 153.9, 181.0 153.6 Q 181.0 153.2, 180.8 152.9 Q 180.5 152.7, 180.1 152.7 Q 179.8 152.7, 179.5 152.8 Q 179.2 152.9, 179.0 153.1 Q 179.0 153.9, 179.3 154.3 Q 179.5 154.7, 180.1 154.7 " fill="#000000"/>
<path class="note" d="M 166.1 175.9 L 167.2 175.9 L 167.2 172.2 L 166.0 172.6 L 165.9 172.2 L 167.4 171.5 L 167.9 171.6 L 167.9 175.9 L 168.8 175.9 L 168.8 176.4 L 166.1 176.4 L 166.1 175.9 " fill="#000000"/>
<path class="note" d="M 172.0 172.1 L 169.4 172.1 L 169.4 171.5 L 172.7 171.5 L 172.7 172.0 L 170.7 176.4 L 170.0 176.4 L 172.0 172.1 " fill="#000000"/>
<path class="note" d="M 101.8 77.5 L 102.8 77.5 L 102.8 73.8 L 101.7 74.2 L 101.5 73.8 L 103.0 73.1 L 103.5 73.2 L 103.5 77.5 L 104.5 77.5 L 104.5 78.0 L 101.8 78.0 L 101.8 77.5 " fill="#000000"/>
<path class="note" d="M 107.6 75.4 Q 108.0 75.6, 108.3 75.9 Q 108.5 76.2, 108.5 76.7 Q 108.5 77.1, 108.3 77.4 Q 108.1 77.7, 107.7 77.9 Q 107.3 78.1, 106.8 78.1 Q 106.0 78.1, 105.5 77.7 Q 105.1 77.3, 105.1 76.7 Q 105.1 76.3, 105.3 76.0 Q 105.5 75.7, 105.9 75.4 Q 105.6 75.3, 105.4 75.0 Q 105.3 74.7, 105.3 74.3 Q 105.3 73.7, 105.7 73.4 Q 106.1 73.1, 106.8 73.1 Q 107.5 73.1, 107.9 73.4 Q 108.4 73.7, 108.4 74.3 Q 108.4 74.7, 108.2 75.0 Q 108.0 75.2, 107.6 75.4 M 106.8 73.6 Q 106.4 73.6, 106.2 73.8 Q 105.9 74.0, 105.9 74.3 Q 105.9 74.6, 106.1 74.7 Q 106.3 74.9, 106.5 75.0 Q 106.7 75.1, 107.1 75.3 Q 107.4 75.0, 107.5 74.8 Q 107.7 74.6, 107.7 74.3 Q 107.7 74.0, 107.4 73.8 Q 107.2 73.6, 106.8 73.6 M 106.8 77.6 Q 107.3 77.6, 107.6 77.3 Q 107.8 77.1, 107.8 76.7 Q 107.8 76.4, 107.7 76.2 Q 107.6 76.1, 107.3 76.0 Q 107.1 75.9, 106.7 75.8 L 106.4 75.7 Q 106.1 75.9, 105.9 76.1 Q 105.8 76.4, 105.8 76.7 Q 105.8 77.1, 106.1 77.3 Q 106.4 77.6, 106.8 77.6 " fill="#000000"/>
<path class="note" d="M 50.3 98.5 L 51.4 98.5 L 51.4 94.8 L 50.2 95.2 L 50.0 94.8 L 51.5 94.1 L 52.0 94.2 L 52.0 98.5 L 53.0 98.5 L 53.0 99.0 L 50.3 99.0 L 50.3 98.5 " fill="#000000"/>
<path class="note" d="M 55.2 94.1 Q 56.1 94.1, 56.5 94.7 Q 57.0 95.2, 57.0 96.4 Q 57.0 97.7, 56.4 98.4 Q 55.9 99.1, 54.8 99.1 Q 54.5 99.1, 54.3 99.0 Q 54.0 98.9, 53.8 98.8 L 54.0 98.3 Q 54.4 98.5, 54.8 98.5 Q 55.5 98.5, 55.9 98.1 Q 56.2 97.6, 56.3 96.7 Q 56.0 96.9, 55.7 97.1 Q 55.4 97.2, 55.1 97.2 Q 54.6 97.2, 54.3 97.0 Q 53.9 96.8, 53.8 96.5 Q 53.6 96.1, 53.6 95.7 Q 53.6 95.2, 53.8 94.9 Q 54.0 94.5, 54.4 94.3 Q 54.7 94.1, 55.2 94.1 M 54.3 95.7 Q 54.3 96.1, 54.5 96.4 Q 54.8 96.6, 55.2 96.6 Q 55.5 96.6, 55.8 96.5 Q 56.1 96.4, 56.3 96.2 Q 56.2 95.4, 56.0 95.0 Q 55.7 94.6, 55.2 94.6 Q 55.0 94.6, 54.7 94.8 Q 54.5 94.9, 54.4 95.1 Q 54.3 95.4, 54.3 95.7 " fill="#000000"/>
<path class="note" d="M 43.8 144.4 Q 44.0 144.0, 44.4 143.7 Q 44.9 143.4, 45.5 143.4 Q 46.2 143.4, 46.6 143.8 Q 47.0 144.2, 47.0 145.0 Q 47.0 145.7, 46.5 146.4 Q 46.0 147.0, 44.9 147.8 L 47.1 147.8 L 47.1 148.4 L 43.8 148.4 L 43.8 147.9 Q 44.7 147.3, 45.3 146.8 Q 45.8 146.3, 46.1 145.9 Q 46.3 145.4, 46.3 145.0 Q 46.3 144.5, 46.1 144.3 Q 45.9 144.0, 45.5 144.0 Q 45.1 144.0, 44.8 144.2 Q 44.5 144.3, 44.4 144.7 L 43.8 144.4 " fill="#000000"/>
<path class="note" d="M 49.7 148.5 Q 48.8 148.5, 48.3 147.8 Q 47.9 147.1, 47.9 145.9 Q 47.9 144.8, 48.3 144.1 Q 48.8 143.4, 49.7 143.4 Q 50.6 143.4, 51.0 144.1 Q 51.5 144.8, 51.5 145.9 Q 51.5 147.1, 51.0 147.8 Q 50.6 148.5, 49.7 148.5 M 49.7 147.9 Q 50.2 147.9, 50.5 147.4 Q 50.8 146.9, 50.8 145.9 Q 50.8 145.0, 50.5 144.5 Q 50.2 144.0, 49.7 144.0 Q 49.1 144.0, 48.9 144.5 Q 48.6 145.0, 48.6 145.9 Q 48.6 146.9, 48.9 147.4 Q 49.1 147.9, 49.7 147.9 " fill="#000000"/>
<path class="note" d="M 90.1 200.0 Q 90.2 199.6, 90.7 199.3 Q 91.1 199.0, 91.7 199.0 Q 92.4 199.0, 92.9 199.4 Q 93.3 199.8, 93.3 200.6 Q 93.3 201.3, 92.7 202.0 Q 92.2 202.6, 91.1 203.4 L 93.4 203.4 L 93.4 204.0 L 90.0 204.0 L 90.0 203.5 Q 91.0 202.9, 91.5 202.4 Q 92.1 201.9, 92.3 201.5 Q 92.6 201.0, 92.6 200.6 Q 92.6 200.1, 92.3 199.9 Q 92.1 199.6, 91.7 199.6 Q 91.3 199.6, 91.0 199.7 Q 90.8 199.9, 90.6 200.3 L 90.1 200.0 " fill="#000000"/>
<path class="note" d="M 94.4 203.4 L 95.4 203.4 L 95.4 199.8 L 94.2 200.1 L 94.1 199.7 L 95.6 199.1 L 96.1 199.1 L 96.1 203.4 L 97.0 203.4 L 97.0 204.0 L 94.4 204.0 L 94.4 203.4 " fill="#000000"/>
<path class="note" d="M 101.4 161.8 Q 101.6 161.3, 102.0 161.0 Q 102.5 160.8, 103.1 160.8 Q 103.8 160.8, 104.2 161.2 Q 104.6 161.6, 104.6 162.3 Q 104.6 163.0, 104.1 163.7 Q 103.6 164.4, 102.5 165.2 L 104.7 165.2 L 104.7 165.7 L 101.4 165.7 L 101.4 165.3 Q 102.3 164.6, 102.9 164.1 Q 103.4 163.6, 103.7 163.2 Q 103.9 162.8, 103.9 162.3 Q 103.9 161.9, 103.7 161.6 Q 103.5 161.3, 103.1 161.3 Q 102.7 161.3, 102.4 161.5 Q 102.1 161.6, 102.0 162.0 L 101.4 161.8 " fill="#000000"/>
<path class="note" d="M 105.5 161.8 Q 105.7 161.3, 106.1 161.0 Q 106.5 160.8, 107.1 160.8 Q 107.9 160.8, 108.3 161.2 Q 108.7 161.6, 108.7 162.3 Q 108.7 163.0, 108.1 163.7 Q 107.6 164.4, 106.5 165.2 L 108.8 165.2 L 108.8 165.7 L 105.5 165.7 L 105.5 165.3 Q 106.4 164.6, 106.9 164.1 Q 107.5 163.6, 107.7 163.2 Q 108.0 162.8, 108.0 162.3 Q 108.0 161.9, 107.8 161.6 Q 107.5 161.3, 107.1 161.3 Q 106.7 161.3, 106.5 161.5 Q 106.2 161.6, 106.0 162.0 L 105.5 161.8 " fill="#000000"/>
<path class="note" d="M 200.7 126.6 Q 200.9 126.2, 201.3 125.9 Q 201.8 125.6, 202.4 125.6 Q 203.1 125.6, 203.5 126.0 Q 203.9 126.4, 203.9 127.2 Q 203.9 127.9, 203.4 128.6 Q 202.9 129.2, 201.8 130.0 L 204.0 130.0 L 204.0 130.6 L 200.7 130.6 L 200.7 130.1 Q 201.6 129.5, 202.2 129.0 Q 202.7 128.5, 203.0 128.1 Q 203.2 127.6, 203.2 127.2 Q 203.2 126.7, 203.0 126.5 Q 202.8 126.2, 202.4 126.2 Q 202.0 126.2, 201.7 126.4 Q 201.4 126.5, 201.3 126.9 L 200.7 126.6 " fill="#000000"/>
<path class="note" d="M 207.1 128.0 Q 207.6 128.2, 207.8 128.5 Q 208.1 128.8, 208.1 129.3 Q 208.1 129.7, 207.9 130.0 Q 207.6 130.3, 207.3 130.5 Q 206.9 130.7, 206.4 130.7 Q 205.9 130.7, 205.5 130.5 Q 205.1 130.3, 204.8 129.9 L 205.2 129.5 Q 205.5 129.9, 205.7 130.0 Q 206.0 130.1, 206.4 130.1 Q 206.8 130.1, 207.1 129.9 Q 207.4 129.6, 207.4 129.3 Q 207.4 128.8, 207.1 128.5 Q 206.8 128.3, 206.2 128.3 L 205.8 128.3 L 205.8 127.8 L 206.2 127.8 Q 206.7 127.8, 207.0 127.6 Q 207.3 127.3, 207.3 126.9 Q 207.3 126.6, 207.0 126.4 Q 206.8 126.2, 206.4 126.2 Q 206.0 126.2, 205.7 126.3 Q 205.5 126.5, 205.3 126.9 L 204.8 126.6 Q 205.0 126.2, 205.4 125.9 Q 205.8 125.6, 206.4 125.6 Q 207.1 125.6, 207.5 126.0 Q 208.0 126.3, 208.0 126.9 Q 208.0 127.3, 207.7 127.6 Q 207.5 127.9, 207.1 128.0 " fill="#000000"/>
<path class="bond-0 atom-0 atom-1" d="M 442.4,171.7 L 407.8,173.4" style="fill:none;fill-rule:evenodd;stroke:#000000;stroke-width:2.0px;stroke-linecap:butt;stroke-linejoin:miter;stroke-opacity:1"/>
<path class="bond-1 atom-1 atom-2" d="M 407.8,173.4 L 388.9,144.4" style="fill:none;fill-rule:evenodd;stroke:#000000;stroke-width:2.0px;stroke-linecap:butt;stroke-linejoin:miter;stroke-opacity:1"/>
<path class="bond-2 atom-2 atom-3" d="M 388.9,144.4 L 404.7,113.5" style="fill:none;fill-rule:evenodd;stroke:#000000;stroke-width:2.0px;stroke-linecap:butt;stroke-linejoin:miter;stroke-opacity:1"/>
<path class="bond-3 atom-3 atom-4" d="M 404.7,113.5 L 439.3,111.7" style="fill:none;fill-rule:evenodd;stroke:#000000;stroke-width:2.0px;stroke-linecap:butt;stroke-linejoin:miter;stroke-opacity:1"/>
<path class="bond-4 atom-4 atom-5" d="M 439.3,111.7 L 446.7,123.2" style="fill:none;fill-rule:evenodd;stroke:#000000;stroke-width:2.0px;stroke-linecap:butt;stroke-linejoin:miter;stroke-opacity:1"/>
<path class="bond-4 atom-4 atom-5" d="M 446.7,123.2 L 454.2,134.8" style="fill:none;fill-rule:evenodd;stroke:#0000FF;stroke-width:2.0px;stroke-linecap:butt;stroke-linejoin:miter;stroke-opacity:1"/>
<path class="bond-5 atom-5 atom-6" d="M 469.1,140.2 L 480.9,139.6" style="fill:none;fill-rule:evenodd;stroke:#0000FF;stroke-width:2.0px;stroke-linecap:butt;stroke-linejoin:miter;stroke-opacity:1"/>
<path class="bond-5 atom-5 atom-6" d="M 480.9,139.6 L 492.7,139.0" style="fill:none;fill-rule:evenodd;stroke:#000000;stroke-width:2.0px;stroke-linecap:butt;stroke-linejoin:miter;stroke-opacity:1"/>
<path class="bond-6 atom-6 atom-7" d="M 492.7,139.0 L 511.6,168.1" style="fill:none;fill-rule:evenodd;stroke:#000000;stroke-width:2.0px;stroke-linecap:butt;stroke-linejoin:miter;stroke-opacity:1"/>
<path class="bond-7 atom-7 atom-8" d="M 511.6,168.1 L 526.0,167.3" style="fill:none;fill-rule:evenodd;stroke:#000000;stroke-width:2.0px;stroke-linecap:butt;stroke-linejoin:miter;stroke-opacity:1"/>
<path class="bond-7 atom-7 atom-8" d="M 526.0,167.3 L 540.5,166.6" style="fill:none;fill-rule:evenodd;stroke:#FF0000;stroke-width:2.0px;stroke-linecap:butt;stroke-linejoin:miter;stroke-opacity:1"/>
<path class="bond-8 atom-4 atom-9" d="M 439.3,111.7 L 452.1,81.0 L 458.2,80.7 Z" style="fill:#000000;fill-rule:evenodd;fill-opacity:1;stroke:#000000;stroke-width:0.5px;stroke-linecap:butt;stroke-linejoin:miter;stroke-opacity:1;"/>
<path class="bond-9 atom-9 atom-10" d="M 452.1,81.0 L 469.5,80.1" style="fill:none;fill-rule:evenodd;stroke:#000000;stroke-width:2.0px;stroke-linecap:butt;stroke-linejoin:miter;stroke-opacity:1"/>
<path class="bond-9 atom-9 atom-10" d="M 469.5,80.1 L 484.0,79.4" style="fill:none;fill-rule:evenodd;stroke:#FF0000;stroke-width:2.0px;stroke-linecap:butt;stroke-linejoin:miter;stroke-opacity:1"/>
<path class="bond-10 atom-3 atom-11" d="M 402.4,110.6 L 403.0,110.2" style="fill:none;fill-rule:evenodd;stroke:#000000;stroke-width:1.0px;stroke-linecap:butt;stroke-linejoin:miter;stroke-opacity:1"/>
<path class="bond-10 atom-3 atom-11" d="M 400.0,107.7 L 401.3,106.9" style="fill:none;fill-rule:evenodd;stroke:#000000;stroke-width:1.0px;stroke-linecap:butt;stroke-linejoin:miter;stroke-opacity:1"/>
<path class="bond-10 atom-3 atom-11" d="M 397.7,104.8 L 399.6,103.6" style="fill:none;fill-rule:evenodd;stroke:#000000;stroke-width:1.0px;stroke-linecap:butt;stroke-linejoin:miter;stroke-opacity:1"/>
<path class="bond-10 atom-3 atom-11" d="M 395.4,101.9 L 397.9,100.3" style="fill:none;fill-rule:evenodd;stroke:#FF0000;stroke-width:1.0px;stroke-linecap:butt;stroke-linejoin:miter;stroke-opacity:1"/>
<path class="bond-10 atom-3 atom-11" d="M 393.1,99.1 L 396.2,97.0" style="fill:none;fill-rule:evenodd;stroke:#FF0000;stroke-width:1.0px;stroke-linecap:butt;stroke-linejoin:miter;stroke-opacity:1"/>
<path class="bond-10 atom-3 atom-11" d="M 390.8,96.2 L 394.5,93.7" style="fill:none;fill-rule:evenodd;stroke:#FF0000;stroke-width:1.0px;stroke-linecap:butt;stroke-linejoin:miter;stroke-opacity:1"/>
<path class="bond-10 atom-3 atom-11" d="M 388.4,93.3 L 392.8,90.4" style="fill:none;fill-rule:evenodd;stroke:#FF0000;stroke-width:1.0px;stroke-linecap:butt;stroke-linejoin:miter;stroke-opacity:1"/>
<path class="bond-11 atom-2 atom-12" d="M 388.9,144.4 L 375.1,146.4 L 375.0,143.8 Z" style="fill:#000000;fill-rule:evenodd;fill-opacity:1;stroke:#000000;stroke-width:0.5px;stroke-linecap:butt;stroke-linejoin:miter;stroke-opacity:1;"/>
<path class="bond-11 atom-2 atom-12" d="M 375.1,146.4 L 361.0,143.2 L 361.2,148.4 Z" style="fill:#FF0000;fill-rule:evenodd;fill-opacity:1;stroke:#FF0000;stroke-width:0.5px;stroke-linecap:butt;stroke-linejoin:miter;stroke-opacity:1;"/>
<path class="bond-11 atom-2 atom-12" d="M 375.1,146.4 L 375.0,143.8 L 361.0,143.2 Z" style="fill:#FF0000;fill-rule:evenodd;fill-opacity:1;stroke:#FF0000;stroke-width:0.5px;stroke-linecap:butt;stroke-linejoin:miter;stroke-opacity:1;"/>
<path class="bond-12 atom-1 atom-13" d="M 406.6,176.5 L 406.0,176.3" style="fill:none;fill-rule:evenodd;stroke:#000000;stroke-width:1.0px;stroke-linecap:butt;stroke-linejoin:miter;stroke-opacity:1"/>
<path class="bond-12 atom-1 atom-13" d="M 405.3,179.6 L 404.2,179.1" style="fill:none;fill-rule:evenodd;stroke:#000000;stroke-width:1.0px;stroke-linecap:butt;stroke-linejoin:miter;stroke-opacity:1"/>
<path class="bond-12 atom-1 atom-13" d="M 404.1,182.7 L 402.4,181.9" style="fill:none;fill-rule:evenodd;stroke:#000000;stroke-width:1.0px;stroke-linecap:butt;stroke-linejoin:miter;stroke-opacity:1"/>
<path class="bond-12 atom-1 atom-13" d="M 402.9,185.8 L 400.6,184.7" style="fill:none;fill-rule:evenodd;stroke:#000000;stroke-width:1.0px;stroke-linecap:butt;stroke-linejoin:miter;stroke-opacity:1"/>
<path class="bond-12 atom-1 atom-13" d="M 401.7,188.9 L 398.8,187.5" style="fill:none;fill-rule:evenodd;stroke:#FF0000;stroke-width:1.0px;stroke-linecap:butt;stroke-linejoin:miter;stroke-opacity:1"/>
<path class="bond-12 atom-1 atom-13" d="M 400.5,192.0 L 397.0,190.3" style="fill:none;fill-rule:evenodd;stroke:#FF0000;stroke-width:1.0px;stroke-linecap:butt;stroke-linejoin:miter;stroke-opacity:1"/>
<path class="bond-12 atom-1 atom-13" d="M 399.2,195.1 L 395.2,193.1" style="fill:none;fill-rule:evenodd;stroke:#FF0000;stroke-width:1.0px;stroke-linecap:butt;stroke-linejoin:miter;stroke-opacity:1"/>
<path class="bond-12 atom-1 atom-13" d="M 398.0,198.2 L 393.4,195.9" style="fill:none;fill-rule:evenodd;stroke:#FF0000;stroke-width:1.0px;stroke-linecap:butt;stroke-linejoin:miter;stroke-opacity:1"/>
<path class="bond-13 atom-5 atom-0" d="M 453.1,150.6 L 447.8,161.1" style="fill:none;fill-rule:evenodd;stroke:#0000FF;stroke-width:2.0px;stroke-linecap:butt;stroke-linejoin:miter;stroke-opacity:1"/>
<path class="bond-13 atom-5 atom-0" d="M 447.8,161.1 L 442.4,171.7" style="fill:none;fill-rule:evenodd;stroke:#000000;stroke-width:2.0px;stroke-linecap:butt;stroke-linejoin:miter;stroke-opacity:1"/>
<path d="M 440.6,171.7 L 442.4,171.7 L 442.6,171.1" style="fill:none;stroke:#000000;stroke-width:2.0px;stroke-linecap:butt;stroke-linejoin:miter;stroke-opacity:1;"/>
<path d="M 409.5,173.4 L 407.8,173.4 L 406.8,172.0" style="fill:none;stroke:#000000;stroke-width:2.0px;stroke-linecap:butt;stroke-linejoin:miter;stroke-opacity:1;"/>
<path d="M 389.9,145.8 L 388.9,144.4 L 389.7,142.8" style="fill:none;stroke:#000000;stroke-width:2.0px;stroke-linecap:butt;stroke-linejoin:miter;stroke-opacity:1;"/>
<path d="M 403.9,115.1 L 404.7,113.5 L 406.4,113.4" style="fill:none;stroke:#000000;stroke-width:2.0px;stroke-linecap:butt;stroke-linejoin:miter;stroke-opacity:1;"/>
<path d="M 437.5,111.8 L 439.3,111.7 L 439.6,112.3" style="fill:none;stroke:#000000;stroke-width:2.0px;stroke-linecap:butt;stroke-linejoin:miter;stroke-opacity:1;"/>
<path d="M 492.1,139.0 L 492.7,139.0 L 493.7,140.5" style="fill:none;stroke:#000000;stroke-width:2.0px;stroke-linecap:butt;stroke-linejoin:miter;stroke-opacity:1;"/>
<path d="M 510.6,166.6 L 511.6,168.1 L 512.3,168.0" style="fill:none;stroke:#000000;stroke-width:2.0px;stroke-linecap:butt;stroke-linejoin:miter;stroke-opacity:1;"/>
<path class="atom-5" d="M 455.9 135.9 L 459.2 141.1 Q 459.5 141.6, 460.0 142.5 Q 460.5 143.5, 460.5 143.5 L 460.5 135.9 L 461.8 135.9 L 461.8 145.7 L 460.5 145.7 L 457.0 140.0 Q 456.6 139.4, 456.2 138.6 Q 455.8 137.8, 455.7 137.6 L 455.7 145.7 L 454.4 145.7 L 454.4 135.9 L 455.9 135.9 " fill="#0000FF"/>
<path class="atom-5" d="M 463.7 137.7 L 465.4 137.7 L 465.4 135.8 L 466.2 135.8 L 466.2 137.7 L 468.0 137.7 L 468.0 138.3 L 466.2 138.3 L 466.2 140.2 L 465.4 140.2 L 465.4 138.3 L 463.7 138.3 L 463.7 137.7 " fill="#0000FF"/>
<path class="atom-5" d="M 454.3 146.7 L 455.6 146.7 L 455.6 150.9 L 460.6 150.9 L 460.6 146.7 L 462.0 146.7 L 462.0 156.5 L 460.6 156.5 L 460.6 152.0 L 455.6 152.0 L 455.6 156.5 L 454.3 156.5 L 454.3 146.7 " fill="#0000FF"/>
<path class="atom-8" d="M 541.7 166.3 Q 541.7 164.0, 542.8 162.7 Q 544.0 161.3, 546.2 161.3 Q 548.3 161.3, 549.5 162.7 Q 550.7 164.0, 550.7 166.3 Q 550.7 168.7, 549.5 170.1 Q 548.3 171.4, 546.2 171.4 Q 544.0 171.4, 542.8 170.1 Q 541.7 168.7, 541.7 166.3 M 546.2 170.3 Q 547.7 170.3, 548.5 169.3 Q 549.3 168.3, 549.3 166.3 Q 549.3 164.4, 548.5 163.4 Q 547.7 162.4, 546.2 162.4 Q 544.7 162.4, 543.8 163.4 Q 543.0 164.4, 543.0 166.3 Q 543.0 168.3, 543.8 169.3 Q 544.7 170.3, 546.2 170.3 " fill="#FF0000"/>
<path class="atom-8" d="M 552.2 161.4 L 553.5 161.4 L 553.5 165.6 L 558.5 165.6 L 558.5 161.4 L 559.9 161.4 L 559.9 171.3 L 558.5 171.3 L 558.5 166.7 L 553.5 166.7 L 553.5 171.3 L 552.2 171.3 L 552.2 161.4 " fill="#FF0000"/>
<path class="atom-10" d="M 485.1 79.1 Q 485.1 76.8, 486.3 75.4 Q 487.4 74.1, 489.6 74.1 Q 491.8 74.1, 493.0 75.4 Q 494.1 76.8, 494.1 79.1 Q 494.1 81.5, 492.9 82.9 Q 491.8 84.2, 489.6 84.2 Q 487.5 84.2, 486.3 82.9 Q 485.1 81.5, 485.1 79.1 M 489.6 83.1 Q 491.1 83.1, 491.9 82.1 Q 492.7 81.1, 492.7 79.1 Q 492.7 77.2, 491.9 76.2 Q 491.1 75.2, 489.6 75.2 Q 488.1 75.2, 487.3 76.2 Q 486.5 77.2, 486.5 79.1 Q 486.5 81.1, 487.3 82.1 Q 488.1 83.1, 489.6 83.1 " fill="#FF0000"/>
<path class="atom-10" d="M 495.7 74.2 L 497.0 74.2 L 497.0 78.4 L 502.0 78.4 L 502.0 74.2 L 503.3 74.2 L 503.3 84.0 L 502.0 84.0 L 502.0 79.5 L 497.0 79.5 L 497.0 84.0 L 495.7 84.0 L 495.7 74.2 " fill="#FF0000"/>
<path class="atom-11" d="M 371.6 79.6 L 373.0 79.6 L 373.0 83.8 L 378.0 83.8 L 378.0 79.6 L 379.3 79.6 L 379.3 89.4 L 378.0 89.4 L 378.0 84.9 L 373.0 84.9 L 373.0 89.4 L 371.6 89.4 L 371.6 79.6 " fill="#FF0000"/>
<path class="atom-11" d="M 381.3 84.5 Q 381.3 82.1, 382.5 80.8 Q 383.6 79.5, 385.8 79.5 Q 388.0 79.5, 389.2 80.8 Q 390.3 82.1, 390.3 84.5 Q 390.3 86.9, 389.2 88.2 Q 388.0 89.6, 385.8 89.6 Q 383.7 89.6, 382.5 88.2 Q 381.3 86.9, 381.3 84.5 M 385.8 88.5 Q 387.3 88.5, 388.1 87.5 Q 388.9 86.4, 388.9 84.5 Q 388.9 82.6, 388.1 81.6 Q 387.3 80.6, 385.8 80.6 Q 384.3 80.6, 383.5 81.6 Q 382.7 82.5, 382.7 84.5 Q 382.7 86.5, 383.5 87.5 Q 384.3 88.5, 385.8 88.5 " fill="#FF0000"/>
<path class="atom-12" d="M 340.1 141.3 L 341.5 141.3 L 341.5 145.5 L 346.5 145.5 L 346.5 141.3 L 347.8 141.3 L 347.8 151.1 L 346.5 151.1 L 346.5 146.6 L 341.5 146.6 L 341.5 151.1 L 340.1 151.1 L 340.1 141.3 " fill="#FF0000"/>
<path class="atom-12" d="M 349.8 146.2 Q 349.8 143.8, 351.0 142.5 Q 352.1 141.2, 354.3 141.2 Q 356.5 141.2, 357.7 142.5 Q 358.8 143.8, 358.8 146.2 Q 358.8 148.6, 357.6 149.9 Q 356.5 151.3, 354.3 151.3 Q 352.2 151.3, 351.0 149.9 Q 349.8 148.6, 349.8 146.2 M 354.3 150.2 Q 355.8 150.2, 356.6 149.2 Q 357.4 148.2, 357.4 146.2 Q 357.4 144.3, 356.6 143.3 Q 355.8 142.3, 354.3 142.3 Q 352.8 142.3, 352.0 143.3 Q 351.2 144.3, 351.2 146.2 Q 351.2 148.2, 352.0 149.2 Q 352.8 150.2, 354.3 150.2 " fill="#FF0000"/>
<path class="atom-13" d="M 377.8 199.5 L 379.2 199.5 L 379.2 203.6 L 384.2 203.6 L 384.2 199.5 L 385.5 199.5 L 385.5 209.3 L 384.2 209.3 L 384.2 204.7 L 379.2 204.7 L 379.2 209.3 L 377.8 209.3 L 377.8 199.5 " fill="#FF0000"/>
<path class="atom-13" d="M 387.5 204.3 Q 387.5 202.0, 388.7 200.7 Q 389.8 199.3, 392.0 199.3 Q 394.2 199.3, 395.4 200.7 Q 396.5 202.0, 396.5 204.3 Q 396.5 206.7, 395.3 208.1 Q 394.2 209.4, 392.0 209.4 Q 389.9 209.4, 388.7 208.1 Q 387.5 206.7, 387.5 204.3 M 392.0 208.3 Q 393.5 208.3, 394.3 207.3 Q 395.1 206.3, 395.1 204.3 Q 395.1 202.4, 394.3 201.4 Q 393.5 200.5, 392.0 200.5 Q 390.5 200.5, 389.7 201.4 Q 388.9 202.4, 388.9 204.3 Q 388.9 206.3, 389.7 207.3 Q 390.5 208.3, 392.0 208.3 " fill="#FF0000"/>
<path class="note" d="M 425.4 182.0 Q 424.5 182.0, 424.1 181.3 Q 423.6 180.7, 423.6 179.5 Q 423.6 178.3, 424.1 177.7 Q 424.5 177.0, 425.4 177.0 Q 426.3 177.0, 426.8 177.7 Q 427.2 178.3, 427.2 179.5 Q 427.2 180.7, 426.8 181.3 Q 426.3 182.0, 425.4 182.0 M 425.4 181.5 Q 426.0 181.5, 426.2 181.0 Q 426.5 180.5, 426.5 179.5 Q 426.5 178.5, 426.2 178.0 Q 426.0 177.5, 425.4 177.5 Q 424.9 177.5, 424.6 178.0 Q 424.3 178.5, 424.3 179.5 Q 424.3 180.5, 424.6 181.0 Q 424.9 181.5, 425.4 181.5 " fill="#000000"/>
<path class="note" d="M 391.3 164.6 L 392.4 164.6 L 392.4 160.9 L 391.2 161.3 L 391.1 160.9 L 392.6 160.2 L 393.0 160.3 L 393.0 164.6 L 394.0 164.6 L 394.0 165.1 L 391.3 165.1 L 391.3 164.6 " fill="#000000"/>
<path class="note" d="M 389.0 124.3 Q 389.2 123.8, 389.6 123.6 Q 390.0 123.3, 390.6 123.3 Q 391.4 123.3, 391.8 123.7 Q 392.2 124.1, 392.2 124.8 Q 392.2 125.6, 391.7 126.2 Q 391.1 126.9, 390.0 127.7 L 392.3 127.7 L 392.3 128.3 L 389.0 128.3 L 389.0 127.8 Q 389.9 127.2, 390.4 126.7 Q 391.0 126.2, 391.2 125.8 Q 391.5 125.3, 391.5 124.9 Q 391.5 124.4, 391.3 124.1 Q 391.0 123.9, 390.6 123.9 Q 390.2 123.9, 390.0 124.0 Q 389.7 124.2, 389.5 124.5 L 389.0 124.3 " fill="#000000"/>
<path class="note" d="M 422.3 105.6 Q 422.8 105.7, 423.0 106.1 Q 423.3 106.4, 423.3 106.8 Q 423.3 107.3, 423.1 107.6 Q 422.8 107.9, 422.5 108.1 Q 422.1 108.3, 421.6 108.3 Q 421.1 108.3, 420.7 108.1 Q 420.3 107.9, 420.0 107.5 L 420.4 107.1 Q 420.7 107.4, 420.9 107.6 Q 421.2 107.7, 421.6 107.7 Q 422.0 107.7, 422.3 107.5 Q 422.6 107.2, 422.6 106.8 Q 422.6 106.3, 422.3 106.1 Q 422.0 105.9, 421.4 105.9 L 421.1 105.9 L 421.1 105.4 L 421.4 105.4 Q 421.9 105.4, 422.2 105.2 Q 422.5 104.9, 422.5 104.5 Q 422.5 104.2, 422.2 104.0 Q 422.0 103.8, 421.6 103.8 Q 421.2 103.8, 420.9 103.9 Q 420.7 104.1, 420.5 104.4 L 420.0 104.2 Q 420.2 103.8, 420.6 103.5 Q 421.0 103.2, 421.6 103.2 Q 422.3 103.2, 422.7 103.6 Q 423.2 103.9, 423.2 104.5 Q 423.2 104.9, 422.9 105.2 Q 422.7 105.4, 422.3 105.6 " fill="#000000"/>
<path class="note" d="M 455.8 123.3 L 456.4 123.3 L 456.4 123.8 L 455.8 123.8 L 455.8 125.0 L 455.2 125.0 L 455.2 123.8 L 452.6 123.8 L 452.6 123.4 L 454.8 120.0 L 455.8 120.0 L 455.8 123.3 M 453.4 123.3 L 455.2 123.3 L 455.2 120.5 L 453.4 123.3 " fill="#000000"/>
<path class="note" d="M 475.2 132.4 Q 475.6 132.4, 476.0 132.6 Q 476.3 132.7, 476.5 133.1 Q 476.7 133.4, 476.7 133.9 Q 476.7 134.4, 476.5 134.8 Q 476.2 135.1, 475.8 135.3 Q 475.4 135.5, 475.0 135.5 Q 474.5 135.5, 474.1 135.3 Q 473.7 135.2, 473.4 134.8 L 473.8 134.4 Q 474.0 134.7, 474.4 134.8 Q 474.7 134.9, 475.0 134.9 Q 475.4 134.9, 475.7 134.7 Q 476.0 134.4, 476.0 133.9 Q 476.0 133.4, 475.7 133.1 Q 475.4 132.9, 474.9 132.9 Q 474.5 132.9, 474.0 133.1 L 473.7 132.9 L 473.9 130.5 L 476.4 130.5 L 476.3 131.1 L 474.5 131.1 L 474.3 132.5 Q 474.8 132.4, 475.2 132.4 " fill="#000000"/>
<path class="note" d="M 508.2 149.2 Q 508.6 149.2, 508.9 149.4 Q 509.3 149.6, 509.5 149.9 Q 509.7 150.3, 509.7 150.7 Q 509.7 151.2, 509.4 151.5 Q 509.2 151.9, 508.9 152.1 Q 508.5 152.3, 508.0 152.3 Q 507.1 152.3, 506.7 151.7 Q 506.3 151.1, 506.3 150.0 Q 506.3 148.7, 506.8 148.0 Q 507.3 147.3, 508.4 147.3 Q 508.7 147.3, 508.9 147.4 Q 509.2 147.4, 509.5 147.6 L 509.2 148.0 Q 508.8 147.9, 508.4 147.9 Q 507.7 147.9, 507.3 148.3 Q 507.0 148.7, 507.0 149.7 Q 507.2 149.4, 507.5 149.3 Q 507.8 149.2, 508.2 149.2 M 508.0 151.7 Q 508.3 151.7, 508.5 151.6 Q 508.7 151.5, 508.8 151.2 Q 509.0 151.0, 509.0 150.7 Q 509.0 150.3, 508.7 150.0 Q 508.5 149.8, 508.0 149.8 Q 507.7 149.8, 507.5 149.9 Q 507.2 150.0, 507.0 150.2 Q 507.0 151.0, 507.2 151.4 Q 507.5 151.7, 508.0 151.7 " fill="#000000"/>
<path class="note" d="M 529.4 158.4 L 526.9 158.4 L 526.9 157.8 L 530.1 157.8 L 530.1 158.3 L 528.2 162.7 L 527.5 162.7 L 529.4 158.4 " fill="#000000"/>
<path class="note" d="M 441.7 93.0 Q 442.2 93.2, 442.5 93.5 Q 442.7 93.8, 442.7 94.3 Q 442.7 94.7, 442.5 95.0 Q 442.3 95.4, 441.9 95.5 Q 441.5 95.7, 441.0 95.7 Q 440.2 95.7, 439.7 95.3 Q 439.2 94.9, 439.2 94.3 Q 439.2 93.9, 439.5 93.6 Q 439.7 93.3, 440.1 93.1 Q 439.8 92.9, 439.6 92.6 Q 439.4 92.3, 439.4 91.9 Q 439.4 91.4, 439.8 91.0 Q 440.3 90.7, 441.0 90.7 Q 441.7 90.7, 442.1 91.0 Q 442.5 91.4, 442.5 91.9 Q 442.5 92.3, 442.3 92.6 Q 442.1 92.8, 441.7 93.0 M 441.0 91.2 Q 440.6 91.2, 440.3 91.4 Q 440.1 91.6, 440.1 91.9 Q 440.1 92.2, 440.3 92.4 Q 440.4 92.5, 440.6 92.6 Q 440.9 92.7, 441.3 92.9 Q 441.6 92.7, 441.7 92.4 Q 441.8 92.2, 441.8 91.9 Q 441.8 91.6, 441.6 91.4 Q 441.4 91.2, 441.0 91.2 M 441.0 95.2 Q 441.5 95.2, 441.7 94.9 Q 442.0 94.7, 442.0 94.3 Q 442.0 94.0, 441.9 93.9 Q 441.7 93.7, 441.5 93.6 Q 441.3 93.5, 440.9 93.4 L 440.6 93.3 Q 440.2 93.5, 440.1 93.7 Q 439.9 94.0, 439.9 94.3 Q 439.9 94.7, 440.2 94.9 Q 440.5 95.2, 441.0 95.2 " fill="#000000"/>
<path class="note" d="M 471.9 70.6 Q 472.8 70.6, 473.2 71.2 Q 473.7 71.8, 473.7 72.9 Q 473.7 74.2, 473.1 74.9 Q 472.6 75.6, 471.5 75.6 Q 471.2 75.6, 471.0 75.5 Q 470.7 75.5, 470.5 75.3 L 470.7 74.9 Q 471.1 75.0, 471.5 75.0 Q 472.2 75.0, 472.6 74.6 Q 472.9 74.2, 473.0 73.2 Q 472.7 73.5, 472.4 73.6 Q 472.1 73.7, 471.7 73.7 Q 471.3 73.7, 471.0 73.5 Q 470.6 73.3, 470.4 73.0 Q 470.3 72.6, 470.3 72.2 Q 470.3 71.7, 470.5 71.4 Q 470.7 71.0, 471.1 70.8 Q 471.4 70.6, 471.9 70.6 M 471.0 72.2 Q 471.0 72.6, 471.2 72.9 Q 471.4 73.1, 471.9 73.1 Q 472.2 73.1, 472.5 73.0 Q 472.8 72.9, 473.0 72.7 Q 472.9 71.9, 472.7 71.5 Q 472.4 71.2, 471.9 71.2 Q 471.6 71.2, 471.4 71.3 Q 471.2 71.4, 471.1 71.7 Q 471.0 71.9, 471.0 72.2 " fill="#000000"/>
<path class="note" d="M 383.2 106.6 L 384.3 106.6 L 384.3 102.9 L 383.1 103.3 L 382.9 102.9 L 384.4 102.2 L 384.9 102.3 L 384.9 106.6 L 385.9 106.6 L 385.9 107.1 L 383.2 107.1 L 383.2 106.6 " fill="#000000"/>
<path class="note" d="M 388.3 107.2 Q 387.4 107.2, 387.0 106.5 Q 386.5 105.8, 386.5 104.7 Q 386.5 103.5, 387.0 102.8 Q 387.4 102.2, 388.3 102.2 Q 389.2 102.2, 389.7 102.8 Q 390.1 103.5, 390.1 104.7 Q 390.1 105.8, 389.7 106.5 Q 389.2 107.2, 388.3 107.2 M 388.3 106.6 Q 388.8 106.6, 389.1 106.1 Q 389.4 105.6, 389.4 104.7 Q 389.4 103.7, 389.1 103.2 Q 388.8 102.7, 388.3 102.7 Q 387.8 102.7, 387.5 103.2 Q 387.2 103.7, 387.2 104.7 Q 387.2 105.6, 387.5 106.1 Q 387.8 106.6, 388.3 106.6 " fill="#000000"/>
<path class="note" d="M 369.0 154.1 L 370.1 154.1 L 370.1 150.4 L 368.9 150.8 L 368.7 150.4 L 370.2 149.7 L 370.7 149.8 L 370.7 154.1 L 371.7 154.1 L 371.7 154.7 L 369.0 154.7 L 369.0 154.1 " fill="#000000"/>
<path class="note" d="M 372.5 154.1 L 373.6 154.1 L 373.6 150.4 L 372.4 150.8 L 372.3 150.4 L 373.8 149.7 L 374.3 149.8 L 374.3 154.1 L 375.2 154.1 L 375.2 154.7 L 372.5 154.7 L 372.5 154.1 " fill="#000000"/>
<path class="note" d="M 406.0 195.5 L 407.1 195.5 L 407.1 191.9 L 405.9 192.2 L 405.7 191.8 L 407.2 191.1 L 407.7 191.2 L 407.7 195.5 L 408.7 195.5 L 408.7 196.1 L 406.0 196.1 L 406.0 195.5 " fill="#000000"/>
<path class="note" d="M 409.3 192.1 Q 409.5 191.6, 409.9 191.4 Q 410.3 191.1, 410.9 191.1 Q 411.7 191.1, 412.1 191.5 Q 412.5 191.9, 412.5 192.6 Q 412.5 193.4, 412.0 194.0 Q 411.4 194.7, 410.3 195.5 L 412.6 195.5 L 412.6 196.1 L 409.3 196.1 L 409.3 195.6 Q 410.2 195.0, 410.7 194.5 Q 411.3 194.0, 411.5 193.6 Q 411.8 193.1, 411.8 192.7 Q 411.8 192.2, 411.6 191.9 Q 411.3 191.7, 410.9 191.7 Q 410.5 191.7, 410.3 191.8 Q 410.0 192.0, 409.8 192.3 L 409.3 192.1 " fill="#000000"/>
<path class="note" d="M 440.9 155.0 L 442.0 155.0 L 442.0 151.3 L 440.8 151.7 L 440.6 151.3 L 442.1 150.6 L 442.6 150.7 L 442.6 155.0 L 443.6 155.0 L 443.6 155.6 L 440.9 155.6 L 440.9 155.0 " fill="#000000"/>
<path class="note" d="M 446.6 153.0 Q 447.0 153.1, 447.3 153.4 Q 447.5 153.7, 447.5 154.2 Q 447.5 154.6, 447.3 155.0 Q 447.1 155.3, 446.7 155.5 Q 446.3 155.6, 445.8 155.6 Q 445.3 155.6, 444.9 155.5 Q 444.5 155.3, 444.2 154.9 L 444.6 154.5 Q 444.9 154.8, 445.2 155.0 Q 445.4 155.1, 445.8 155.1 Q 446.3 155.1, 446.5 154.8 Q 446.8 154.6, 446.8 154.2 Q 446.8 153.7, 446.5 153.5 Q 446.2 153.3, 445.6 153.3 L 445.3 153.3 L 445.3 152.8 L 445.6 152.8 Q 446.1 152.8, 446.4 152.5 Q 446.7 152.3, 446.7 151.9 Q 446.7 151.5, 446.5 151.3 Q 446.2 151.2, 445.8 151.2 Q 445.4 151.2, 445.2 151.3 Q 444.9 151.4, 444.7 151.8 L 444.2 151.6 Q 444.4 151.1, 444.8 150.9 Q 445.2 150.6, 445.8 150.6 Q 446.6 150.6, 447.0 150.9 Q 447.4 151.3, 447.4 151.9 Q 447.4 152.2, 447.2 152.5 Q 447.0 152.8, 446.6 153.0 " fill="#000000"/>
</svg>